<svg width="280" height="180" viewBox="0 0 280 180" fill="none" xmlns="http://www.w3.org/2000/svg">
<path d="M149.642 151.98L140.273 157.251C137.023 159.078 131.773 159.048 128.545 157.183L24.641 97.1498C21.4132 95.2848 21.4304 92.2913 24.6796 90.4637L34.049 85.1934L149.642 151.98Z" fill="#D4D4D8"/>
<path d="M149.642 151.98L140.273 157.251C137.023 159.078 131.773 159.048 128.545 157.183L24.641 97.1498C21.4132 95.2848 21.4304 92.2913 24.6796 90.4637L34.049 85.1934L149.642 151.98Z" stroke="#52525B" stroke-width="1.5"/>
<path d="M239.773 76.8451C251.609 83.6835 251.546 94.6596 239.632 101.361L148.335 152.716L32.7416 85.9288L124.039 34.5739C135.953 27.8725 155.205 27.9835 167.041 34.8218L239.773 76.8451Z" fill="#D4D4D8" stroke="#52525B" stroke-width="1.5"/>
<g clip-path="url(#clip0_9212_1557)">
<path d="M34.0447 82.9363L148.339 148.973L139.623 153.876C136.735 155.5 132.068 155.473 129.199 153.815L25.2947 93.7821C22.4255 92.1244 22.4408 89.4635 25.329 87.8389L34.0447 82.9363Z" fill="#F4F4F5"/>
<rect width="1.83" height="16" transform="matrix(0.865865 0.500278 -0.871576 0.490261 35.7765 83.9368)" fill="#D4D4D8"/>
<rect width="1.83" height="16" transform="matrix(0.865865 0.500278 -0.871576 0.490261 39.1904 85.9093)" fill="#D4D4D8"/>
<rect width="1.83" height="16" transform="matrix(0.865865 0.500278 -0.871576 0.490261 42.6044 87.8818)" fill="#D4D4D8"/>
<rect width="1.83" height="16" transform="matrix(0.865865 0.500278 -0.871576 0.490261 46.0183 89.8543)" fill="#D4D4D8"/>
<rect width="1.83" height="16" transform="matrix(0.865865 0.500278 -0.871576 0.490261 49.4323 91.8268)" fill="#D4D4D8"/>
<rect width="1.83" height="16" transform="matrix(0.865865 0.500278 -0.871576 0.490261 52.8462 93.7993)" fill="#D4D4D8"/>
<rect width="1.83" height="16" transform="matrix(0.865865 0.500278 -0.871576 0.490261 56.2601 95.7719)" fill="#D4D4D8"/>
<rect width="1.83" height="16" transform="matrix(0.865865 0.500278 -0.871576 0.490261 59.6741 97.7443)" fill="#D4D4D8"/>
<rect width="1.83" height="16" transform="matrix(0.865865 0.500278 -0.871576 0.490261 63.088 99.7169)" fill="#D4D4D8"/>
<rect width="1.83" height="16" transform="matrix(0.865865 0.500278 -0.871576 0.490261 66.502 101.689)" fill="#D4D4D8"/>
<rect width="1.83" height="16" transform="matrix(0.865865 0.500278 -0.871576 0.490261 69.9159 103.662)" fill="#D4D4D8"/>
<rect width="1.83" height="16" transform="matrix(0.865865 0.500278 -0.871576 0.490261 73.3299 105.634)" fill="#D4D4D8"/>
<rect width="1.83" height="16" transform="matrix(0.865865 0.500278 -0.871576 0.490261 76.7438 107.607)" fill="#D4D4D8"/>
<rect width="1.83" height="16" transform="matrix(0.865865 0.500278 -0.871576 0.490261 80.1578 109.579)" fill="#D4D4D8"/>
<rect width="1.83" height="16" transform="matrix(0.865865 0.500278 -0.871576 0.490261 83.5717 111.552)" fill="#D4D4D8"/>
<rect width="1.83" height="16" transform="matrix(0.865865 0.500278 -0.871576 0.490261 86.9857 113.524)" fill="#D4D4D8"/>
<rect width="1.83" height="16" transform="matrix(0.865865 0.500278 -0.871576 0.490261 90.3996 115.497)" fill="#D4D4D8"/>
<rect width="1.83" height="16" transform="matrix(0.865865 0.500278 -0.871576 0.490261 93.8135 117.469)" fill="#D4D4D8"/>
<rect width="1.83" height="16" transform="matrix(0.865865 0.500278 -0.871576 0.490261 97.2275 119.442)" fill="#D4D4D8"/>
<rect width="1.83" height="16" transform="matrix(0.865865 0.500278 -0.871576 0.490261 100.641 121.414)" fill="#D4D4D8"/>
<rect width="1.83" height="16" transform="matrix(0.865865 0.500278 -0.871576 0.490261 104.055 123.387)" fill="#D4D4D8"/>
<rect width="1.83" height="16" transform="matrix(0.865865 0.500278 -0.871576 0.490261 107.469 125.359)" fill="#D4D4D8"/>
<rect width="1.83" height="16" transform="matrix(0.865865 0.500278 -0.871576 0.490261 110.883 127.332)" fill="#D4D4D8"/>
<rect width="1.83" height="16" transform="matrix(0.865865 0.500278 -0.871576 0.490261 114.297 129.304)" fill="#D4D4D8"/>
<rect width="1.83" height="16" transform="matrix(0.865865 0.500278 -0.871576 0.490261 117.711 131.277)" fill="#D4D4D8"/>
<rect width="1.83" height="16" transform="matrix(0.865865 0.500278 -0.871576 0.490261 121.125 133.249)" fill="#D4D4D8"/>
<rect width="1.83" height="16" transform="matrix(0.865865 0.500278 -0.871576 0.490261 124.539 135.222)" fill="#D4D4D8"/>
<rect width="1.83" height="16" transform="matrix(0.865865 0.500278 -0.871576 0.490261 127.953 137.194)" fill="#D4D4D8"/>
<rect width="1.83" height="16" transform="matrix(0.865865 0.500278 -0.871576 0.490261 131.367 139.167)" fill="#D4D4D8"/>
<rect width="1.83" height="16" transform="matrix(0.865865 0.500278 -0.871576 0.490261 134.781 141.139)" fill="#D4D4D8"/>
<rect width="1.83" height="16" transform="matrix(0.865865 0.500278 -0.871576 0.490261 138.195 143.112)" fill="#D4D4D8"/>
<rect width="1.83" height="16" transform="matrix(0.865865 0.500278 -0.871576 0.490261 141.609 145.084)" fill="#D4D4D8"/>
<rect width="1.83" height="16" transform="matrix(0.865865 0.500278 -0.871576 0.490261 145.023 147.057)" fill="#D4D4D8"/>
</g>
<path d="M149.642 148.98L140.273 154.251C137.023 156.078 131.773 156.048 128.545 154.183L24.641 94.1498C21.4132 92.2848 21.4304 89.2913 24.6796 87.4637L34.049 82.1934L149.642 148.98Z" stroke="#52525B" stroke-width="1.5"/>
<path d="M239.773 73.8451C251.609 80.6835 251.546 91.6596 239.632 98.361L148.335 149.716L32.7416 82.9288L124.039 31.5739C135.953 24.8725 155.205 24.9835 167.041 31.8218L239.773 73.8451Z" fill="white" stroke="#52525B" stroke-width="1.5"/>
<rect width="12" height="4" rx="2" transform="matrix(0.865865 0.500278 -0.871576 0.490261 58.3803 81.0955)" fill="#D4D4D8"/>
<rect width="36" height="4" rx="2" transform="matrix(0.865865 0.500278 -0.871576 0.490261 131.182 111.232)" fill="#D4D4D8"/>
<rect x="0.00428286" y="-0.742904" width="109.5" height="77.5" rx="12.75" transform="matrix(0.865865 0.500278 -0.871576 0.490261 144.891 31.6885)" fill="white" stroke="#D4D4D8" stroke-width="1.5"/>
<rect x="0.00428286" y="-0.742904" width="97.5" height="65.5" rx="6.75" transform="matrix(0.865865 0.500278 -0.871576 0.490261 144.857 37.6317)" fill="#F4F4F5" stroke="#52525B" stroke-width="1.5"/>
<rect x="0.00428286" y="-0.742904" width="97.5" height="65.5" rx="6.75" transform="matrix(0.865865 0.500278 -0.871576 0.490261 144.857 38.6317)" fill="#F4F4F5" stroke="#52525B" stroke-width="1.5"/>
<path d="M170.235 102.628L168.443 101.593C168.196 101.45 168.198 101.22 168.446 101.08C169.193 100.66 170.401 100.667 171.142 101.096C171.884 101.524 171.88 102.213 171.134 102.633C170.885 102.773 170.482 102.771 170.235 102.628Z" fill="#52525B"/>
<path d="M166.409 103.758C169.995 105.831 175.829 105.864 179.44 103.834C183.05 101.803 183.069 98.4768 179.483 96.4045C175.896 94.3323 170.062 94.2987 166.452 96.3294C162.842 98.3602 162.822 101.686 166.409 103.758Z" stroke="#52525B" stroke-width="1.5" stroke-linecap="round" stroke-linejoin="round"/>
<path d="M170.717 96.9944L170.702 99.5562" stroke="#52525B" stroke-width="1.5" stroke-linecap="round" stroke-linejoin="round"/>
<path d="M172.956 98.2883L168.463 98.2624" stroke="#52525B" stroke-width="1.5" stroke-linecap="round" stroke-linejoin="round"/>
<path d="M176.091 100.1L176.076 102.661" stroke="#52525B" stroke-width="1.5" stroke-linecap="round" stroke-linejoin="round"/>
<path d="M178.33 101.393L173.837 101.368" stroke="#52525B" stroke-width="1.5" stroke-linecap="round" stroke-linejoin="round"/>
<rect width="14" height="3" rx="1.5" transform="matrix(0.865865 0.500278 -0.871576 0.490261 145.401 55.8423)" fill="#D4D4D8"/>
<rect width="16" height="3" rx="1.5" transform="matrix(0.865865 0.500278 -0.871576 0.490261 160.12 64.347)" fill="#D4D4D8"/>
<rect width="16" height="3" rx="1.5" transform="matrix(0.865865 0.500278 -0.871576 0.490261 117.51 71.5306)" fill="#D4D4D8"/>
<rect width="26" height="3" rx="1.5" transform="matrix(0.865865 0.500278 -0.871576 0.490261 145.309 71.6909)" fill="#D4D4D8"/>
<rect width="28" height="3" rx="1.5" transform="matrix(0.865865 0.500278 -0.871576 0.490261 158.343 71.2708)" fill="#D4D4D8"/>
<rect width="12" height="3" rx="1.5" transform="matrix(0.865865 0.500278 -0.871576 0.490261 145.355 63.7666)" fill="#D4D4D8"/>
<rect width="16" height="3" rx="1.5" transform="matrix(0.865865 0.500278 -0.871576 0.490261 131.41 71.6108)" fill="#D4D4D8"/>
<rect width="10" height="3" rx="1.5" transform="matrix(0.865865 0.500278 -0.871576 0.490261 147.861 81.116)" fill="#D4D4D8"/>
<rect width="16" height="3" rx="1.5" transform="matrix(0.865865 0.500278 -0.871576 0.490261 145.446 47.918)" fill="#D4D4D8"/>
<rect width="8" height="3" rx="1.5" transform="matrix(0.865865 0.500278 -0.871576 0.490261 161.898 57.4232)" fill="#D4D4D8"/>
<rect width="2" height="5" transform="matrix(0.865865 0.500278 -0.871576 0.490261 133.968 80.0453)" fill="#52525B"/>
<defs>
<clipPath id="clip0_9212_1557">
<path d="M34.0447 82.9363L148.339 148.973L139.623 153.876C136.735 155.5 132.068 155.473 129.199 153.815L25.2947 93.7821C22.4255 92.1244 22.4408 89.4635 25.329 87.8389L34.0447 82.9363Z" fill="white"/>
</clipPath>
</defs>
</svg>
