<svg width="1289" height="909" viewBox="0 0 1289 909" fill="none" xmlns="http://www.w3.org/2000/svg">
<path d="M0.0900002 0.0900002C681.26 0.0900002 602.42 0.09 1283.59 0C1287.34 0 1288.18 0.84 1288.18 4.59C1288.08 684.26 1288.08 223.92 1288.18 903.59C1288.18 907.34 1287.34 908.18 1283.59 908.18C603.92 908.08 684.26 908.08 4.59 908.18C0.84 908.18 0 907.34 0 903.59C0.1 222.43 0.0900002 681.26 0.0900002 0.0900002ZM1050.07 566.31C1050.07 540.98 1050 515.65 1050.14 490.33C1050.16 486.09 1048.89 484.32 1044.43 484.45C1036.11 484.7 1027.76 484.7 1019.44 484.42C1014.71 484.27 1012.88 485.94 1012.95 490.75C1013.15 504.58 1013.12 518.41 1012.98 532.24C1012.84 546.9 1013.75 561.58 1012.48 576.2C1011.33 589.48 1002.8 598.56 989.73 601.13C971.24 604.76 959.33 596.99 957.12 579.74C956.76 576.94 956.81 574.09 956.81 571.26C956.79 544.27 956.73 517.27 956.86 490.28C956.88 485.96 955.42 484.31 951.06 484.42C942.4 484.65 933.72 484.74 925.07 484.42C920.31 484.25 919.11 486.15 919.13 490.57C919.27 520.56 919.05 550.56 919.27 580.55C919.47 608.1 936.69 627.93 963.94 631.3C981.71 633.5 998.32 630.75 1009.81 614.72C1010.29 614.06 1010.78 613.09 1011.71 613.4C1013.1 613.86 1012.96 615.26 1012.95 616.38C1012.93 624.87 1013.48 633.39 1012.22 641.84C1011.05 649.67 1007.88 656.55 1001.69 661.7C985.08 675.5 959.09 666.56 954.58 645.51C953.94 642.53 953.2 640.07 949.37 640.11C940.87 640.21 932.37 640.15 923.88 640.13C920.82 640.13 919.14 641.45 919.34 644.65C920.61 664.74 927.61 681.77 946.02 692.04C961.53 700.7 978.55 701.38 995.64 699.28C1006.65 697.92 1016.95 693.91 1025.92 687.07C1042.86 674.16 1050.1 656.69 1050.07 635.76C1050.03 612.6 1050.07 589.44 1050.07 566.28V566.31ZM618.71 191.98C566.15 190.41 517.03 239.44 522.16 299C526.6 350.5 569.17 389.87 620.85 389.79C649.37 389.74 673.38 378.43 693.4 358.78C715.04 337.55 736 315.63 757.34 294.09C760 291.4 759.67 289.56 757.12 287.06C750.22 280.3 743.63 273.23 736.72 266.49C718.96 249.18 702.82 230.21 683.56 214.42C665.5 199.61 644.84 192 618.72 191.98H618.71ZM952.5 390.03C955.98 389.7 959.46 389.37 962.93 389.05C1013.87 384.38 1056.02 337.87 1050.87 282.82C1047.16 243.15 1026.49 214.55 989.82 199.49C953.55 184.6 918.73 190.02 888.66 215.41C862.43 237.56 839.89 263.66 815.64 287.94C813.32 290.27 813.69 292.09 815.87 294.26C822.48 300.84 828.93 307.59 835.53 314.18C852.15 330.77 867.87 348.26 885.49 363.84C904.64 380.78 926.89 389.52 952.48 390.01L952.5 390.03ZM783.24 509.44H783.3C783.3 533.11 782.9 556.78 783.44 580.44C783.83 597.6 789.49 612.71 804.08 623.42C817.71 633.42 833.19 634.78 849.31 634.07C875.52 632.91 895.75 615.75 899.94 589.95C902.65 573.27 900.76 556.35 901.03 539.54C901.09 536.05 898.88 535.01 895.78 535.02C887.95 535.04 880.11 535.13 872.28 534.96C868.04 534.87 866.25 536.48 866.34 540.83C866.52 549.66 866.38 558.5 866.37 567.33C866.37 573.49 866.66 579.68 864.84 585.69C862.33 593.97 857.44 599.75 848.5 601.34C833.16 604.07 822.64 597.03 820.96 581.46C818.58 559.39 820.34 537.18 820.05 515.03C820.01 512.08 821.7 510.88 824.5 510.91C826 510.93 827.5 510.88 829 510.88C851 510.88 873 510.82 895 510.93C899.09 510.95 901.32 509.79 901.14 505.29C900.95 500.63 901.14 495.96 901.1 491.29C901.04 484.9 900.66 484.5 894.25 484.49C871.75 484.47 849.25 484.49 826.75 484.46C820.39 484.46 820.01 484.07 819.99 477.59C819.94 464.09 819.87 450.59 820.02 437.09C820.07 432.82 818.51 431.07 814.17 431.18C806.17 431.38 798.17 431.21 790.17 431.24C783.51 431.27 783.25 431.53 783.24 438.44C783.22 462.11 783.24 485.77 783.24 509.44ZM293.05 556.87C293.05 578.7 293.04 600.52 293.05 622.35C293.05 629.8 293.45 630.17 301.05 630.2C307.71 630.23 314.38 630.24 321.04 630.2C331.17 630.15 330.69 631.82 330.7 620.57C330.71 594.75 330.53 568.92 330.86 543.1C331.02 530.56 335.01 519.63 347.98 514.65C356.49 511.38 365.28 511.47 373.97 514.21C379.8 516.05 383.56 520.02 385.17 525.97C386.66 531.48 387.23 537.08 387.23 542.78C387.21 569.77 387.3 596.76 387.16 623.75C387.14 628.46 388.77 630.38 393.55 630.25C402.21 630.02 410.88 630.12 419.54 630.19C423.29 630.22 424.94 628.66 424.93 624.8C424.83 591.15 425.13 557.49 424.65 523.84C424.47 511.07 419.27 499.87 409.25 491.4C395.33 479.65 378.9 479.67 362.29 482.13C349.87 483.97 340.02 490.58 332.88 501.07C332.12 502.19 331.57 504.36 329.74 503.6C328.18 502.95 328.86 500.94 328.83 499.51C328.75 496.18 328.68 492.84 328.83 489.52C329 485.87 327.43 484.42 323.8 484.48C315.8 484.6 307.81 484.48 299.81 484.51C293.48 484.53 293.07 484.91 293.06 491.4C293.03 513.23 293.05 535.05 293.05 556.88V556.87ZM578 557.18C578 579.33 578.02 601.49 577.98 623.64C577.98 627.41 578.62 630.24 583.33 630.19C592.49 630.09 601.65 630.12 610.81 630.18C614.44 630.2 615.85 628.49 615.77 624.94C615.64 619.11 615.74 613.28 615.75 607.45C615.77 585.8 615.61 564.14 615.88 542.49C616.08 526.9 623.39 516.91 636.39 513.54C643.46 511.71 650.58 511.87 657.63 513.75C664.31 515.53 668.6 519.77 670.36 526.51C671.76 531.87 672.22 537.32 672.22 542.84C672.19 569.82 672.29 596.81 672.15 623.79C672.13 628.55 673.86 630.36 678.59 630.25C687.25 630.03 695.91 630.12 704.57 630.2C708.34 630.23 709.97 628.65 709.96 624.81C709.86 591 710.29 557.17 709.59 523.38C709.29 508.73 702.83 496.04 689.83 488.23C673.24 478.26 655.51 478.95 637.81 485C629.73 487.76 623.4 493.17 618.57 500.3C617.62 501.7 616.89 504.36 614.84 503.62C612.94 502.94 613.92 500.37 613.84 498.63C613.7 495.97 613.59 493.28 613.86 490.64C614.37 485.68 612.12 484.22 607.45 484.41C600.63 484.69 593.79 484.48 586.96 484.48C581 484.48 578.013 487.39 578 493.21C578 514.53 578 535.85 578 557.17V557.18ZM443.08 570.2C443.08 587.52 443.07 604.84 443.08 622.16C443.08 629.8 443.45 630.16 450.88 630.19C457.04 630.22 463.2 630.2 469.37 630.19C476.337 630.19 479.82 626.77 479.82 619.93C479.82 585.79 479.9 551.64 479.75 517.5C479.73 512.56 481.28 510.47 486.35 510.82C490.83 511.12 495.34 510.77 499.84 510.89C503.48 510.99 504.95 509.38 504.87 505.79C504.74 500.46 504.71 495.13 504.89 489.8C505.02 485.96 503.52 484.33 499.63 484.45C494.47 484.61 489.31 484.45 484.14 484.42C481.93 484.41 480.39 483.76 479.97 481.16C478.64 472.98 483.89 464.36 491.9 462.2C494.46 461.51 497.13 461.14 499.77 460.93C502.69 460.7 503.89 459.26 503.88 456.43C503.84 449.1 503.84 441.77 503.88 434.45C503.89 431.67 502.64 430.55 499.86 430.78C492.39 431.41 484.95 432.05 477.67 434.05C457.1 439.69 444.63 454.9 443.29 476.2C442.79 484.2 442.79 484.34 434.68 484.42C430.89 484.46 429.16 485.74 429.31 489.68C429.49 494.34 429.33 499.01 429.34 503.67C429.36 510.66 429.44 510.72 436.22 510.86C442.58 510.99 443.04 511.37 443.05 517.72C443.1 535.21 443.07 552.7 443.08 570.18V570.2ZM275.04 530.79C275.04 499.49 274.97 468.19 275.11 436.89C275.13 432.2 273.65 430.29 268.8 430.44C259.98 430.72 251.15 430.58 242.33 430.51C238.74 430.48 237.32 431.94 237.39 435.61C237.57 444.6 237.44 453.59 237.44 462.58C237.44 516.36 237.44 570.13 237.44 623.91C237.44 630.18 237.74 630.43 243.84 630.38C252 630.31 260.15 630.22 268.31 630.21C274.98 630.2 275.02 630.24 275.02 623.69C275.03 592.72 275.02 561.75 275.02 530.79H275.04ZM586.33 166.49C586.94 166.37 587.55 166.28 588.16 166.14C602.5 162.66 616.98 160.99 631.75 162.34C663.79 165.27 690.46 179.32 713.85 200.87C736.63 221.86 759.91 242.3 782.89 263.08C785.67 265.59 787.68 265.69 790.53 263.12C806.45 248.7 822.38 234.26 838.58 220.16C852.51 208.03 864.99 194.2 880.55 183.98C906.22 167.12 934.29 159.51 965.02 162.7C970.95 163.32 976.83 164.43 984.04 165.5C933.29 143.91 872.62 156.53 834.76 195.53C820.38 210.35 805.61 224.79 791.14 239.52C788.33 242.38 786.47 242.71 783.45 239.64C769.58 225.48 755.4 211.64 741.5 197.51C708.59 164.06 668.96 149.65 622.29 155.46C609.75 157.02 597.62 160.4 586.35 166.49H586.33ZM985.45 415.33C984 415.66 982.54 415.95 981.1 416.32C966.37 420.09 951.39 420.41 936.43 418.66C905.39 415.02 879.99 400.03 857.4 379.13C835.64 359 813.37 339.42 791.28 319.65C786.19 315.09 786.16 315.26 780.93 319.96C755.16 343.11 729.65 366.55 703.48 389.24C681.35 408.44 655.13 418.18 625.82 419.45C614.55 419.94 603.36 419.07 591.63 416.44C592.48 417.26 592.67 417.56 592.93 417.68C593.85 418.08 594.78 418.43 595.73 418.76C613.22 424.99 631.19 427.32 649.76 426.21C683.47 424.19 712.33 411.36 736.43 387.91C751.71 373.04 766.72 357.89 781.63 342.65C785.06 339.14 787.21 339.38 790.51 342.75C804.5 357.03 818.82 370.98 832.83 385.24C863.76 416.73 901.31 430.21 945.1 426.79C959.29 425.68 972.86 421.98 985.45 415.34V415.33ZM522.44 557.6C522.44 579.76 522.52 601.91 522.37 624.07C522.34 628.62 524 630.34 528.5 630.25C537.16 630.08 545.83 630.06 554.48 630.33C558.69 630.46 560.05 628.84 560.05 624.81C559.98 579.83 559.98 534.86 560.05 489.88C560.05 485.65 558.21 484.38 554.28 484.45C546.29 484.61 538.29 484.49 530.29 484.49C525.057 484.49 522.433 487.037 522.42 492.13C522.42 513.95 522.42 535.77 522.42 557.6H522.44ZM765.08 557.03C765.08 534.87 765 512.7 765.14 490.54C765.17 485.99 763.52 484.3 758.98 484.43C750.65 484.67 742.31 484.64 733.99 484.43C729.74 484.33 728.01 485.85 728.02 490.22C728.11 534.88 728.1 579.54 728.04 624.2C728.04 628.42 729.64 630.29 733.94 630.21C741.94 630.07 749.94 630.21 757.94 630.17C764.53 630.14 765.08 629.61 765.09 623.01C765.12 601.01 765.1 579.02 765.09 557.02L765.08 557.03ZM373.66 690.29C373.66 681.06 373.67 673.9 373.66 666.74C373.66 665.21 373.57 663.58 371.66 663.19C369.92 662.83 368.57 663.67 368.35 665.4C367.64 670.88 365.4 668.9 362.56 666.93C350.25 658.35 333.13 661.53 325.58 673.65C318.74 684.65 320.12 698.1 329.03 707.24C337.38 715.8 350.91 716.9 362.2 710.01C363.49 709.22 364.72 707.09 366.46 708.56C367.85 709.73 367.06 711.7 366.74 713.31C365.12 721.58 360.28 726.88 353.2 728.21C343.36 730.06 336.17 727.34 331.65 719.73C330.18 717.26 328.2 715.38 325.7 716.73C322.65 718.37 325.24 720.85 326.18 722.63C331.03 731.89 341.18 736.4 352.54 734.56C363.74 732.75 370.46 726.11 372.71 714.66C374.44 705.9 373.34 697.04 373.65 690.3L373.66 690.29ZM662.8 690.2C662.88 690.2 662.96 690.2 663.05 690.2C663.05 687.37 663.07 684.54 663.05 681.7C663.02 676.7 663 671.71 662.9 666.71C662.87 665.12 662.28 663.73 660.42 663.47C659.08 663.29 657.89 663.97 657.76 665.2C657.05 671.84 654.16 668.14 651.75 666.53C642.58 660.39 630 660.65 621.27 667.17C612.37 673.82 608.69 686.02 612.33 696.77C617.93 713.3 636.54 719.44 652.07 709.92C653.27 709.19 654.35 707.33 655.92 708.3C657.66 709.37 656.71 711.33 656.47 712.91C655.28 720.81 650.12 726.71 643.26 728.13C633.5 730.15 625.87 727.42 621.48 720.02C619.95 717.44 618.02 715.12 615.27 716.85C612.61 718.54 615.14 721.1 616.15 722.93C621.5 732.69 632.06 736.73 644.66 734.03C654.73 731.87 662.04 723.36 662.71 712.18C663.15 704.88 662.79 697.53 662.79 690.2H662.8ZM541.08 465.75V465.77C545.57 465.77 550.06 465.64 554.55 465.81C558.28 465.95 560.1 464.59 560.04 460.65C559.92 452.34 559.93 444.02 560.04 435.71C560.09 431.83 558.28 430.42 554.54 430.47C545.56 430.59 536.58 430.58 527.61 430.5C524.14 430.47 522.38 431.64 522.44 435.41C522.59 443.89 522.58 452.37 522.46 460.84C522.41 464.57 524.12 465.86 527.63 465.77C532.12 465.65 536.61 465.74 541.1 465.74L541.08 465.75ZM746.18 465.74C751.01 465.74 755.84 465.71 760.67 465.75C763.57 465.78 765.01 464.39 765.02 461.53C765.04 452.54 765.05 443.54 765.02 434.55C765.01 431.95 763.64 430.54 760.98 430.54C751.49 430.54 741.99 430.54 732.5 430.53C729.65 430.53 728.14 431.85 728.14 434.75C728.14 443.58 728.13 452.41 728.11 461.23C728.11 464.31 729.54 465.82 732.7 465.76C737.2 465.69 741.69 465.74 746.19 465.74H746.18ZM238.32 681.69C238.32 691.34 238.41 700.98 238.28 710.63C238.23 714.41 239.66 716.15 243.54 716.05C249.69 715.9 255.85 716.18 262 715.91C278.66 715.19 290.94 703.62 293.39 686.56C295.69 670.57 286.32 655.32 271.11 650.05C262.18 646.95 252.97 648.67 243.89 648.16C239.82 647.93 238.22 649.7 238.28 653.75C238.42 663.06 238.33 672.38 238.33 681.69H238.32ZM703.37 692.01V691.94C709.69 691.94 716.01 691.94 722.34 691.94C725.12 691.94 726.84 690.93 726.57 687.81C725.74 678.11 721.96 670.1 713.11 665.28C702.52 659.52 688.7 661.72 680.94 670.18C672.48 679.4 671.32 694.81 678.28 705.43C689.19 722.1 714.72 720.78 723.87 703.08C724.4 702.06 725.29 700.97 724.38 699.88C723.39 698.68 721.91 699.05 720.65 699.43C718.04 700.2 717.05 702.77 715.35 704.54C704.67 715.7 685.89 711.75 681.22 697.37C680.06 693.78 680.82 691.95 684.89 692.01C691.04 692.1 697.2 692.03 703.36 692.03L703.37 692.01ZM494.11 689.6C494.11 689.6 494.06 689.6 494.04 689.6C494.04 682.11 494.07 674.62 494.02 667.12C494.01 665.38 493.51 663.67 491.38 663.49C489.18 663.3 488.49 664.81 488.45 666.67C488.37 670.17 487.11 670.38 484.63 668.26C478.41 662.93 471.08 661.5 463.13 662.3C449.66 663.66 439.88 675.48 440.04 690.21C440.2 704.62 450.31 715.9 463.91 716.88C471.29 717.42 478.16 716.23 484.13 711.45C485.48 710.37 487.5 707.97 488.31 711.97C488.69 713.83 488.76 715.9 491.33 715.65C494.05 715.38 494.05 713.07 494.07 711.08C494.13 703.92 494.09 696.76 494.09 689.6H494.11ZM608.01 713.09C607.88 712.7 607.68 711.89 607.35 711.13C598.8 691.44 590.24 671.75 581.66 652.07C580.85 650.22 579.95 648.36 577.45 648.42C574.72 648.49 573.93 650.65 573.09 652.63C564.87 671.92 556.66 691.21 548.55 710.55C547.88 712.14 545.83 714.46 548.61 715.65C551.23 716.77 553.4 715.38 554.54 712.62C556.06 708.93 557.87 705.34 559.2 701.59C560.32 698.42 562.31 697.15 565.55 697.18C573.54 697.26 581.53 697.31 589.52 697.18C593.25 697.12 595.29 698.7 596.55 702.16C597.97 706.06 599.83 709.8 601.59 713.57C602.59 715.71 604.48 716.19 606.64 715.75C607.8 715.51 608.24 714.66 608.01 713.09ZM853.2 733.92C862.15 733.81 867.29 730.5 871.45 721.79C880.07 703.78 888.43 685.65 896.81 667.52C897.39 666.27 899.45 664.45 897.16 663.29C895.39 662.4 893.09 662.91 891.76 664.71C890.69 666.16 889.96 667.88 889.19 669.53C884.59 679.32 880.03 689.13 875.42 698.92C874.8 700.23 874.45 702.18 872.71 702.15C871.04 702.12 870.59 700.2 869.94 698.91C867.54 694.16 865.27 689.34 862.92 684.56C859.83 678.29 856.71 672.04 853.62 665.77C852.17 662.83 849.22 661.92 846.93 663.18C844.69 664.41 847.14 666.69 847.9 668.25C853.87 680.52 859.77 692.84 866.18 704.88C868.81 709.82 868.91 713.92 866.22 718.81C863.18 724.34 859.57 728.3 852.76 728.11C850.9 728.06 848.96 728.34 848.6 730.75C848.41 732.04 848.98 733.14 850.24 733.49C851.5 733.84 852.85 733.87 853.2 733.91V733.92ZM814.88 716.97C829.81 717.16 837.77 712.35 842.96 702.9C843.65 701.64 844.74 699.96 843.17 698.86C841.56 697.74 839.62 698.12 838.19 699.62C837.51 700.33 837.03 701.24 836.43 702.04C830.51 709.96 821.65 712.9 812.61 709.96C803.87 707.12 797.85 698.65 798.02 689.43C798.19 680.05 804.29 671.66 812.87 668.99C821.71 666.25 830.92 669.42 836.54 677.41C838.22 679.8 840.25 682.19 842.91 680.35C845.49 678.56 842.81 676.12 841.72 674.33C835.16 663.56 821.44 659.14 809.32 663.72C796.78 668.46 789.92 681.24 792.43 695.23C794.73 708.1 805.47 716.91 814.89 716.98L814.88 716.97ZM737.14 689.45H737.1C737.1 692.28 737.1 695.11 737.1 697.94C737.1 702.27 737.06 706.59 737.15 710.92C737.19 713.06 737.07 715.69 740.21 715.62C743 715.56 742.87 713.13 742.97 711.14C743.04 709.65 742.97 708.15 742.99 706.65C743.11 699 742.71 691.3 743.49 683.72C744.48 674.05 752.54 667.51 761.55 668.03C770.26 668.53 775.58 674.78 776.07 685.14C776.15 686.8 776.12 688.47 776.12 690.13C776.13 697.12 776.11 704.11 776.17 711.1C776.19 713.09 776.13 715.46 778.9 715.63C781.7 715.8 781.99 713.53 781.99 711.47C781.99 701.32 782.31 691.15 781.76 681.03C781.14 669.83 772.88 662.47 761.72 662.11C756.17 661.93 751.26 663.53 746.77 666.77C745.56 667.64 743.74 669.98 742.77 666.44C742.28 664.66 741.56 663.14 739.45 663.57C737.09 664.05 737.15 666.17 737.14 667.99C737.09 675.15 737.12 682.3 737.12 689.46L737.14 689.45ZM413.14 687.94H413.23C413.23 691.94 413.17 695.94 413.24 699.93C413.5 714.14 423.92 717.15 435.01 715.83C436.47 715.66 437.52 714.83 437.57 713.25C437.63 711.38 436.45 710.56 434.76 710.41C433.27 710.27 431.76 710.31 430.27 710.22C422.91 709.74 419.55 706.78 419.23 699.36C418.86 690.71 419.12 682.04 419.1 673.38C419.1 670.28 420.61 668.85 423.73 668.89C427.06 668.94 430.39 668.87 433.72 668.75C435.36 668.69 436.69 667.95 436.68 666.06C436.67 664.2 435.38 663.49 433.74 663.3C432.75 663.19 431.75 663.17 430.75 663.15C423.617 662.997 419.693 659.46 418.98 652.54C418.79 650.65 418.63 648.65 416.14 648.6C413.65 648.55 413.38 650.51 413.21 652.43C412.94 655.4 413.99 658.65 412.42 661.28C410.55 664.41 406.91 662.61 404.12 663.33C402.68 663.71 401.67 664.44 401.65 666.02C401.63 667.6 402.56 668.5 404.06 668.7C405.38 668.87 406.72 668.96 408.05 668.89C411.69 668.69 413.2 670.43 413.15 673.97C413.07 678.63 413.13 683.3 413.13 687.96L413.14 687.94ZM515.75 681.14C515.75 671 515.77 660.86 515.73 650.73C515.73 648.46 516.15 645.64 512.7 645.52C509.26 645.4 509.37 648.1 509.37 650.46C509.35 670.57 509.35 690.68 509.37 710.79C509.37 713.14 509.27 715.86 512.69 715.76C516.12 715.66 515.74 712.84 515.75 710.56C515.79 700.75 515.77 690.95 515.75 681.14ZM310.76 689.1C310.76 681.94 310.78 674.77 310.75 667.61C310.75 665.46 311.03 662.93 307.67 663.11C304.71 663.26 304.4 665.44 304.4 667.76C304.4 682.25 304.39 696.74 304.4 711.24C304.4 713.51 304.57 715.85 307.65 715.79C310.74 715.73 310.75 713.32 310.75 711.09C310.77 703.76 310.75 696.43 310.75 689.1H310.76ZM388.34 689.61C388.34 696.59 388.31 703.58 388.36 710.56C388.38 712.84 388.02 715.68 391.44 715.75C394.88 715.83 394.68 713.03 394.68 710.72C394.7 696.59 394.69 682.45 394.65 668.32C394.65 665.99 394.81 663.24 391.34 663.36C388.27 663.46 388.36 665.98 388.35 668.16C388.32 675.31 388.34 682.46 388.33 689.61H388.34ZM394.95 650.08C395.14 647.86 393.97 646.54 391.16 646.57C388.28 646.59 387.45 648.13 387.49 650.72C387.53 653.3 388.42 654.86 391.27 654.81C394.13 654.76 394.99 653.08 394.94 650.08H394.95ZM306.97 647.16C304.52 647.27 303.52 648.64 303.51 651C303.51 653.69 304.79 654.92 307.46 654.81C309.9 654.71 311.02 653.4 310.99 651.03C310.96 648.4 309.58 647.14 306.97 647.16Z" fill="black"/>
<path d="M572.72 290.221C572.63 262.501 588.99 237.631 614.38 226.871C640.16 215.951 669.63 221.261 689.42 240.691C704.75 255.741 719.75 271.111 735.05 286.191C738.15 289.251 738.14 291.271 735.05 294.341C719.93 309.351 705.07 324.631 689.98 339.671C670.31 359.291 640.82 364.791 614.58 353.901C589.08 343.321 572.8 318.561 572.71 290.221H572.72Z" fill="black"/>
<path d="M1000.44 291.281C1000.45 319.661 983.9 344.321 957.46 355.311C932.45 365.711 902.5 359.761 882.98 340.381C868.09 325.601 853.38 310.651 838.44 295.921C835.14 292.671 834.83 290.431 838.34 286.971C853.28 272.241 867.91 257.201 882.74 242.361C902.83 222.251 932.14 216.541 958.93 227.801C983.22 238.011 1001.27 263.621 1000.44 291.291V291.281Z" fill="black"/>
<path d="M346.94 708.28C335.72 708.02 327.42 699.19 327.64 687.73C327.85 676.66 336.99 667.8 347.96 668.04C359.05 668.28 367.48 677.32 367.23 688.71C366.98 700.06 358.19 708.54 346.95 708.28H346.94Z" fill="black"/>
<path d="M637.41 708.269C626.18 708.359 617.27 699.639 617.17 688.459C617.06 677.009 625.97 667.999 637.36 668.039C648.36 668.079 657.03 677.079 657 688.439C656.97 699.559 648.45 708.189 637.42 708.279L637.41 708.269Z" fill="black"/>
<path d="M244.75 681.57C244.75 674.26 244.91 666.94 244.69 659.63C244.56 655.49 246.29 654.08 250.26 654.01C260.38 653.83 270.37 654.07 278.34 661.56C286.96 669.67 289.17 679.75 285.83 690.79C282.62 701.41 275.19 707.72 264.07 709.53C259.1 710.34 254.13 710.15 249.15 710.15C246.03 710.15 244.72 708.64 244.75 705.51C244.84 697.53 244.78 689.55 244.78 681.57H244.76H244.75Z" fill="black"/>
<path d="M699.77 686.101C694.62 686.101 689.47 686.141 684.32 686.091C681.17 686.061 680.32 684.591 681.32 681.551C683.8 674.011 691.02 668.511 699.36 668.061C707.36 667.631 715.16 672.301 718.3 679.401C720.61 684.611 719.81 686.011 714.23 686.131C709.41 686.231 704.59 686.151 699.77 686.151V686.101Z" fill="black"/>
<path d="M446.04 689.841C445.93 678.001 455.39 668.101 466.88 668.051C478.86 668.001 488 677.191 488.04 689.341C488.08 701.651 479.27 710.951 467.39 711.121C455.73 711.291 446.15 701.741 446.04 689.841Z" fill="black"/>
<path d="M577.62 691.3C568.427 691.32 565.567 687.046 569.04 678.48C571.04 673.55 573.14 668.66 575.26 663.78C575.76 662.62 576.05 660.93 577.67 660.98C578.96 661.02 579.36 662.47 579.81 663.51C583.21 671.27 586.58 679.05 589.96 686.83C591.22 689.73 590.41 691.32 587.1 691.31C583.94 691.31 580.78 691.31 577.62 691.31V691.3Z" fill="black"/>
</svg>
