<svg width="137" height="54" viewBox="0 0 137 54" fill="none" xmlns="http://www.w3.org/2000/svg">
<g clip-path="url(#clip0_426_10941)">
<path d="M9.24501 0.0390625C9.74887 0.603016 10.225 1.18546 10.7612 1.71706C19.6458 10.5554 28.5396 19.3814 37.4427 28.1951C38.3672 29.1196 38.8572 30.021 38.7694 31.3616C38.6492 33.1829 38.7694 35.018 38.737 36.844C38.737 38.0135 38.737 38.0273 37.4473 38.0366C35.6815 38.0366 33.9203 38.0366 32.1591 38.0366C30.8925 36.8209 29.6121 35.6236 28.364 34.3894C23.1589 29.2275 17.9539 24.061 12.7489 18.8899C12.5779 18.7235 12.4438 18.2982 12.1018 18.5525C11.977 18.6449 11.9954 18.9685 11.9954 19.1857C11.9954 24.7328 11.9954 30.2953 11.9954 35.8732C11.9954 36.3355 11.9723 36.7977 11.9954 37.26C12.037 37.8424 11.8105 38.0874 11.2188 38.0736C10.2943 38.0736 9.36982 38.0736 8.44531 38.0736C6.06931 38.0736 3.6933 38.0736 1.3173 38.0736C0.776463 38.0736 0.443638 37.9488 0.489863 37.3155C0.526844 36.7885 0.489863 36.2523 0.489863 35.7161L0.503731 0.0390625H9.24501Z" fill="#029A76"/>
<path d="M136.338 8.74185C133.883 8.74185 131.433 8.74185 128.979 8.70487C128.295 8.70487 128.054 8.93137 128.054 9.62938C128.082 13.517 128.054 17.4092 128.054 21.2967C128.054 26.4771 128.054 31.6605 128.054 36.8471C128.054 38.0304 128.031 38.0489 126.778 38.0536C124.313 38.0536 121.86 38.0536 119.419 38.0536C118.352 38.0536 118.328 38.0212 118.328 36.8887C118.328 31.0951 118.328 25.3014 118.328 19.5078C118.328 16.383 118.328 13.2581 118.328 10.1332C118.328 8.74647 118.328 8.74647 117.016 8.72336C115.102 8.72336 113.183 8.72336 111.265 8.72336C110.128 8.72336 110.105 8.70024 110.1 7.63705C110.1 5.27492 110.1 2.91279 110.128 0.550652L136.324 0.513672L136.338 8.74185Z" fill="#029A76"/>
<path d="M38.7232 0.0390625C38.7232 4.88352 38.7232 9.72797 38.7232 14.5724C38.7232 14.8636 38.7232 15.3583 38.5845 15.4045C38.1777 15.5478 38.0067 15.0855 37.7709 14.8498C36.1438 13.2596 34.5351 11.6463 32.9172 10.0423C31.8217 8.94676 31.8725 8.72949 30.6522 10.0423C30.4437 10.251 30.223 10.447 29.9911 10.6294L29.344 10.5924C29.4087 9.3597 29.4703 8.13935 29.5289 6.93131C29.6693 6.9655 29.8046 7.01836 29.931 7.08848C30.9942 7.90668 31.0035 7.92054 31.8679 7.08848C33.0651 5.91435 34.2393 4.7171 35.4411 3.54759C35.6383 3.41374 35.7919 3.2251 35.8831 3.00496C35.9743 2.78481 35.999 2.54278 35.9542 2.30874C36.0173 2.31914 36.0819 2.31437 36.1427 2.29482C36.2036 2.27527 36.2589 2.2415 36.3041 2.19632C36.3493 2.15113 36.383 2.09583 36.4026 2.03499C36.4221 1.97416 36.4269 1.90954 36.4165 1.84649C36.5598 1.84649 36.7077 1.84649 36.8464 1.84649C36.9851 1.84649 37.3087 1.84649 37.1746 1.55064C37.1422 1.47206 36.925 1.41659 36.8002 1.43508C36.6965 1.45069 36.6019 1.50328 36.534 1.58314C36.466 1.663 36.4292 1.76474 36.4304 1.8696C36.3682 1.86392 36.3056 1.87197 36.247 1.89319C36.1883 1.91441 36.135 1.94828 36.0909 1.99239C36.0468 2.03651 36.0129 2.08978 35.9917 2.14845C35.9705 2.20712 35.9624 2.26973 35.9681 2.33186C35.4596 2.23941 35.1499 2.55374 34.7709 2.83109C33.0513 4.10692 31.401 5.47983 29.4965 6.46906C27.6244 4.65239 25.7522 2.82647 23.8662 1.01905C23.7236 0.903918 23.6162 0.750917 23.5566 0.577586C23.4969 0.404256 23.4872 0.217615 23.5288 0.0390625H38.7232Z" fill="#4E4E4F"/>
<path d="M136.338 48.5694C135.414 49.0317 134.914 50.2197 133.615 49.9562C133.241 49.8776 133.093 50.1734 133.088 50.5201C133.088 51.0564 133.088 51.588 133.088 52.1242C133.088 52.5541 133.222 53.0487 132.52 53.1319C131.683 53.2243 130.981 52.9239 130.874 52.2952C130.844 51.9152 130.844 51.5334 130.874 51.1534C130.874 49.3229 130.874 47.4924 130.874 45.6618C130.859 45.5114 130.876 45.3594 130.924 45.2161C130.973 45.0729 131.051 44.9416 131.155 44.8312C131.258 44.7209 131.384 44.6339 131.524 44.5762C131.663 44.5186 131.814 44.4915 131.965 44.4969C132.748 44.3835 133.547 44.4444 134.303 44.6753C135.06 44.9063 135.756 45.3015 136.343 45.8329L136.338 48.5694ZM133.102 47.1826C133.081 47.4179 133.081 47.6546 133.102 47.8899C133.144 48.0933 133.213 48.3522 133.361 48.4539C133.652 48.6203 133.902 48.4076 134.133 48.1996C134.252 48.1117 134.348 47.9965 134.413 47.8638C134.478 47.7311 134.511 47.5847 134.508 47.4369C134.508 46.9423 134.669 46.3552 133.87 46.2489C133.07 46.1426 133.051 46.688 133.084 47.1826H133.102Z" fill="#4E4E4F"/>
<path d="M136.338 0.495812L110.142 0.532793L110.091 0.0381777C118.609 0.0381777 127.128 0.0381777 135.649 0.0381777C135.926 0.0520455 136.495 -0.234554 136.338 0.495812Z" fill="#72C6B2"/>
<path d="M66.8099 0.0424483C66.8099 0.190371 66.833 0.33367 66.833 0.504705L45.6016 0.463102C45.6016 0.319356 45.6109 0.175761 45.6293 0.0332031L66.8099 0.0424483Z" fill="#72C6B2"/>
<path d="M95.775 0.460953C95.798 0.323342 95.8119 0.184363 95.8166 0.0449219H107.789C107.789 0.414728 107.946 0.876984 107.359 0.969436C107.244 0.280673 106.703 0.507179 106.287 0.507179C102.783 0.460953 99.2789 0.460953 95.775 0.460953Z" fill="#72C6B2"/>
<path d="M84.3063 0.0414073V0.503664L72.3338 0.475929C72.3088 0.322859 72.3088 0.166742 72.3338 0.0136719L84.3063 0.0414073Z" fill="#72C6B2"/>
<path d="M72.32 0.484767L84.2925 0.512502C85.3649 2.29681 86.442 4.08113 87.5283 5.87468C87.9074 6.5126 88.2171 7.19674 88.6562 7.79305C89.0954 8.38936 89.2479 9.64208 89.761 9.52652C90.5099 9.37859 90.8427 8.31078 91.3188 7.5989C92.872 5.25526 94.0276 2.662 95.7981 0.457031C99.302 0.457031 102.806 0.480144 106.31 0.503257C106.726 0.503257 107.267 0.295241 107.382 0.965514C104.322 5.31073 101.26 9.65749 98.1972 14.0058C97.5547 14.9303 96.9121 15.8548 96.2881 16.7793C95.664 17.7038 95.6363 18.0968 96.2881 18.9889C99.7889 23.858 103.282 28.7287 106.767 33.6009C107.636 34.8166 108.418 36.0878 109.282 37.2989C109.633 37.7935 109.744 38.0478 108.968 38.0385C106.592 38.0385 104.216 38.0385 101.84 38.0385C100.541 38.0385 99.2465 37.9969 97.9476 37.9738C97.1109 36.8274 96.1355 35.755 95.4653 34.5208C93.9583 31.7472 92.0214 29.2788 90.3296 26.6624C89.8951 25.9829 89.6686 25.9736 89.2294 26.5977C87.1369 29.6054 85.0521 32.6209 82.9751 35.644C82.8503 35.8243 82.7855 36.0508 82.6561 36.2265C81.3017 38.0755 81.2971 38.0755 78.9904 38.0755C76.0782 38.0755 73.166 38.0755 70.2538 38.0755C70.0504 38.0755 69.7407 37.9923 69.6667 37.8536C69.5927 37.715 69.7083 37.4145 69.8285 37.2527C74.3586 31.1756 78.8949 25.1 83.4373 19.0259C84.0984 18.1476 84.1168 17.8102 83.4373 16.8209C80.086 11.9534 76.7161 7.11353 73.3694 2.2321C72.9626 1.64965 72.6575 1.05797 72.32 0.484767Z" fill="#029A76"/>
<path d="M45.6015 0.457031H66.8329C66.8329 2.81916 66.8607 5.1813 66.8329 7.54343C66.8329 8.65285 66.8006 8.68058 65.705 8.6852C62.5617 8.6852 59.4137 8.72219 56.2704 8.6852C55.429 8.6852 55.2257 8.96256 55.2626 9.73453C55.3412 11.3247 55.3458 12.9149 55.3782 14.505C56.9406 14.9996 58.54 14.6391 60.1209 14.7038C61.8821 14.7731 63.648 14.7454 65.4138 14.7038C66.0979 14.7038 66.3614 14.9072 66.3383 15.5959C66.3106 17.8826 66.3106 20.1707 66.3383 22.4605C66.3383 23.1538 66.0748 23.3572 65.4138 23.3526C62.3444 23.3249 59.275 23.3526 56.2103 23.3526C55.5677 23.3526 55.2395 23.482 55.2626 24.2263C55.3089 25.8257 55.2904 27.4297 55.2626 29.0291C55.2626 29.6393 55.54 29.7919 56.0993 29.7919C59.1687 29.7919 62.2335 29.7919 65.3029 29.7919C66.8838 29.7919 66.8514 29.6301 66.8422 31.211C66.8422 33.1155 66.8422 35.0246 66.8422 36.9291C66.8422 38.0293 66.8144 38.057 65.7189 38.0616C60.5 38.0616 55.2857 38.094 50.0715 38.0616C48.4906 38.0616 46.8819 38.3482 45.3149 37.8721C45.2779 36.3605 45.2085 34.8489 45.2039 33.3374C45.2039 25.4097 45.2548 17.482 45.1716 9.54963C45.1531 6.46637 45.5275 3.48481 45.6015 0.457031Z" fill="#029A76"/>
<path d="M30.4672 49.4589C30.4672 48.3172 30.4672 47.1754 30.5088 46.0336C30.5505 44.8918 30.9064 44.4434 31.6691 44.5035C32.4318 44.5636 32.6722 44.9334 32.6815 45.9504C32.6815 47.8549 32.7092 49.7594 32.6815 51.6593C32.6815 52.1446 33.0097 52.7779 32.3533 53.0876C31.9572 53.2133 31.5332 53.2212 31.1327 53.1104C30.7323 52.9997 30.3726 52.7749 30.0974 52.4636C29.0851 51.0768 28.0959 49.6901 27.0928 48.2709C27.0018 48.1477 26.898 48.0346 26.7831 47.9335C26.6733 47.8589 26.5573 47.794 26.4364 47.7393C26.3709 47.8737 26.3257 48.017 26.3023 48.1646C26.3023 49.5514 26.3023 50.9058 26.3023 52.2741C26.3023 53.0044 25.9834 53.1431 25.3362 53.1477C24.6197 53.1477 24.4117 52.8704 24.4394 52.2232C24.4764 50.0922 24.4394 47.9566 24.4718 45.8256C24.4718 45.3633 24.1436 44.5914 24.9618 44.5775C25.5396 44.5775 26.2283 44.1152 26.7692 45.0166C27.6859 46.3923 28.6718 47.7207 29.723 48.9967C29.894 49.2232 30.0281 49.5329 30.3979 49.5375L30.5874 49.9027L30.7862 49.6808L30.4672 49.4589Z" fill="#4E4E4F"/>
<path d="M109.624 53.1566C106.851 53.1566 105.002 51.4231 105.002 48.7975C104.995 48.2176 105.106 47.6424 105.328 47.1067C105.55 46.5709 105.878 46.0858 106.293 45.6805C106.708 45.2752 107.201 44.9582 107.741 44.7487C108.282 44.5392 108.86 44.4415 109.439 44.4615C111.862 44.4615 114.094 46.5741 114.173 48.9408C114.251 51.3076 112.194 53.1566 109.624 53.1566ZM111.972 48.9085C111.972 47.0594 111.302 46.2921 109.684 46.2551C109.329 46.2286 108.973 46.275 108.637 46.3914C108.3 46.5079 107.992 46.692 107.729 46.9323C107.467 47.1727 107.256 47.4642 107.111 47.7889C106.965 48.1137 106.888 48.4648 106.883 48.8206C106.883 50.4709 108.15 51.8068 109.657 51.7328C110.886 51.6589 111.963 50.3553 111.972 48.8946V48.9085Z" fill="#4E4E4F"/>
<path d="M49.281 47.947C49.281 47.1889 49.281 46.4261 49.281 45.6634C49.281 45.0486 49.1886 44.48 50.1639 44.4615C51.1393 44.443 51.1532 44.8545 51.1347 45.5663C51.0977 46.9531 51.0931 48.3121 51.1347 49.6804C51.1717 51.1781 52.1886 51.8669 53.6031 51.3307C53.8589 51.2441 54.0793 51.0761 54.2304 50.8523C54.3815 50.6286 54.4551 50.3614 54.4398 50.0918C54.4167 48.8715 54.4398 47.6511 54.4398 46.4354C54.3865 46.0582 54.3865 45.6754 54.4398 45.2982C54.5018 45.0358 54.6604 44.8063 54.884 44.6555C55.1076 44.5047 55.3798 44.4437 55.6463 44.4846C56.1779 44.5355 56.6309 44.8914 56.6078 45.2936C56.4876 47.3137 56.9175 49.3476 56.275 51.3723C56.1813 51.7312 55.9969 52.0601 55.7395 52.3272C55.4821 52.5944 55.1603 52.7908 54.805 52.8977C53.5051 53.3274 52.103 53.3371 50.7972 52.9255C50.3592 52.8067 49.9736 52.5445 49.7021 52.1809C49.4306 51.8172 49.2889 51.373 49.2995 50.9193C49.2625 49.93 49.2995 48.9362 49.2995 47.947H49.281Z" fill="#4E4E4F"/>
<path d="M62.6357 48.5607C62.5894 48.0316 62.5894 47.4995 62.6357 46.9705C62.7883 46.1477 62.0579 44.9412 63.1211 44.5483C64.8499 43.9196 67.4432 44.821 68.0395 45.9813C68.2491 46.498 68.2831 47.0694 68.1361 47.6073C67.9891 48.1452 67.6693 48.6199 67.2259 48.9582C66.625 49.4204 66.6574 49.7856 66.9486 50.2479C67.4108 51.006 67.9979 51.7086 68.5018 52.4529C68.539 52.4949 68.5662 52.545 68.5812 52.5991C68.5962 52.6533 68.5987 52.7101 68.5884 52.7654C68.5782 52.8207 68.5555 52.8728 68.522 52.918C68.4886 52.9632 68.4453 53.0001 68.3954 53.0261C68.0331 53.1769 67.6316 53.2067 67.2509 53.1109C66.8703 53.0151 66.5307 52.7989 66.2829 52.4945C66.2006 52.3658 66.1045 52.2464 65.9963 52.1385C65.3445 51.5699 65.3261 50.5807 64.6096 50.0445C64.3137 50.8488 64.5125 51.6809 64.4755 52.4991C64.4431 53.1971 63.9578 53.1 63.5094 53.1231C63.061 53.1462 62.5849 53.0815 62.6126 52.4297C62.645 51.14 62.6357 49.8503 62.6357 48.5607ZM65.3307 46.2494C64.5587 46.2494 64.5032 46.291 64.4801 47.1739C64.4801 47.7471 64.5079 48.2186 65.3029 48.14C65.8577 48.0845 66.3523 48.0891 66.3615 47.3218C66.3708 46.5545 66.209 46.2679 65.3307 46.2447V46.2494Z" fill="#4E4E4F"/>
<path d="M119.725 48.727C119.725 47.5853 119.725 46.4435 119.725 45.3017C119.725 44.9365 119.725 44.4789 120.275 44.5112C121.467 44.5806 122.683 44.2709 123.848 44.8764C125.669 45.8333 125.956 47.7286 124.31 48.9905C123.783 49.3927 123.848 49.5868 124.112 50.0352C124.486 50.7639 124.901 51.4707 125.355 52.1523C125.905 52.8319 125.771 53.0399 125.013 53.1323C124.088 53.2525 123.395 53.026 123.081 52.0738C123.029 51.8565 122.94 51.65 122.817 51.4636C122.438 51.0013 122.378 49.989 121.823 50.0768C121.269 50.1646 121.666 51.0892 121.574 51.6392C121.544 51.8648 121.544 52.0932 121.574 52.3188C121.652 53.137 121.112 53.0954 120.543 53.1185C119.974 53.1416 119.688 52.9752 119.702 52.365C119.762 51.1631 119.725 49.9243 119.725 48.727ZM122.392 46.2447C121.68 46.1199 121.551 46.5405 121.569 47.1692C121.588 47.7979 121.606 48.2093 122.401 48.1446C122.97 48.0984 123.446 48.0799 123.464 47.3218C123.501 46.4805 123.33 46.2632 122.41 46.2262L122.392 46.2447Z" fill="#4E4E4F"/>
<path d="M13.4424 48.7561C13.4424 48.6036 13.4424 48.451 13.4424 48.2939C13.4747 47.092 13.5117 45.8855 13.544 44.6836C14.9586 44.2676 16.4008 44.5773 17.8292 44.4987C17.9617 44.4782 18.0973 44.4889 18.225 44.5298C18.3528 44.5707 18.4692 44.6409 18.5652 44.7346C18.6612 44.8283 18.734 44.9431 18.778 45.0698C18.8219 45.1966 18.8358 45.3318 18.8184 45.4649C18.7887 45.6927 18.6751 45.9013 18.4999 46.05C18.3247 46.1987 18.1004 46.2769 17.8708 46.2692C17.255 46.2316 16.6375 46.2316 16.0217 46.2692C15.6704 46.3015 15.6196 46.6344 15.6242 46.9672C15.6288 47.3 15.6935 47.6143 16.0402 47.6467C16.6458 47.7068 17.2606 47.6467 17.8893 47.6744C18.0133 47.6676 18.1374 47.6867 18.2536 47.7306C18.3698 47.7745 18.4756 47.8422 18.5641 47.9294C18.6527 48.0165 18.722 48.1212 18.7678 48.2367C18.8135 48.3522 18.8347 48.4759 18.8298 48.6001C18.825 48.7242 18.7943 48.846 18.7396 48.9575C18.685 49.0691 18.6077 49.168 18.5126 49.248C18.4176 49.328 18.3068 49.3872 18.1875 49.4219C18.0683 49.4566 17.9431 49.466 17.8199 49.4495C17.4363 49.4495 17.0526 49.4495 16.6735 49.4495C15.6797 49.4911 15.541 49.6945 15.6427 50.6837C15.6889 51.146 15.9062 51.3263 16.3546 51.3263C16.9605 51.2844 17.569 51.303 18.1712 51.3817C18.3627 51.4267 18.5333 51.5354 18.6551 51.6899C18.7768 51.8444 18.8425 52.0356 18.8415 52.2323C18.8441 52.4252 18.7803 52.6132 18.6608 52.7647C18.5413 52.9162 18.3733 53.022 18.1851 53.0644C16.7429 53.1337 15.2914 53.1198 13.8445 53.0921C13.4701 53.0921 13.4331 52.7269 13.4331 52.4126C13.4331 51.1968 13.4331 49.9811 13.4331 48.7654L13.4424 48.7561Z" fill="#4E4E4F"/>
<path d="M73.7529 48.7116C73.7529 47.5699 73.7529 46.4327 73.7529 45.2909C73.7529 44.7362 73.9193 44.4681 74.5341 44.4866C75.6805 44.5236 76.8454 44.4866 77.978 44.4866C78.1981 44.4681 78.419 44.5113 78.6159 44.6114C78.8655 44.7747 79.0527 45.0174 79.1475 45.3002C79.1746 45.4882 79.1324 45.6797 79.0286 45.8388C78.9248 45.9979 78.7665 46.1137 78.5835 46.1646C78.0644 46.264 77.5348 46.2982 77.0072 46.2663C76.471 46.2663 75.9163 46.1877 75.9671 47.0383C76.0087 47.7039 76.4294 47.7039 76.8917 47.6993C77.3536 47.6757 77.8165 47.6757 78.2784 47.6993C78.5027 47.706 78.7161 47.7978 78.8751 47.9561C79.0341 48.1145 79.1269 48.3274 79.1346 48.5517C79.1422 48.776 79.0642 48.9948 78.9163 49.1636C78.7685 49.3324 78.5619 49.4385 78.3385 49.4605C77.8779 49.5147 77.4124 49.5147 76.9517 49.4605C76.0919 49.3588 75.9533 49.7794 75.9533 50.5237C75.9533 51.2679 76.3693 51.3696 76.9564 51.3465C77.4175 51.3016 77.882 51.3016 78.3431 51.3465C78.5728 51.3684 78.786 51.4754 78.9408 51.6465C79.0956 51.8175 79.1809 52.0403 79.1798 52.271C79.1727 52.4635 79.1015 52.648 78.9776 52.7954C78.8537 52.9428 78.684 53.0446 78.4957 53.0846C77.0442 53.1447 75.5927 53.1262 74.1458 53.0846C73.7899 53.0846 73.776 52.6824 73.776 52.3681C73.7637 51.1477 73.756 49.9289 73.7529 48.7116Z" fill="#4E4E4F"/>
<path d="M4.65019 53.1208C3.82275 53.1948 3.47606 52.7556 3.20795 52.0114C2.38976 49.7001 1.47911 47.4581 0.61469 45.1838C0.429787 44.7216 0.688651 44.5136 1.16015 44.4951C1.97835 44.4627 2.54692 44.6153 2.87975 45.5444C3.43908 47.0051 3.77653 48.5121 4.2018 50.0006C4.25718 50.135 4.32857 50.2623 4.41444 50.3796C4.51453 50.272 4.5986 50.1506 4.66406 50.019C5.17254 48.5537 5.81046 47.1299 6.05083 45.586C6.18026 44.7817 6.64252 44.4442 7.46534 44.4858C8.21882 44.5228 8.53315 44.7863 8.29278 45.4103C7.41911 47.7632 6.44375 50.0838 5.62556 52.4505C5.60611 52.5589 5.56537 52.6623 5.50568 52.7548C5.44599 52.8472 5.36854 52.927 5.27782 52.9893C5.18711 53.0517 5.08492 53.0954 4.97718 53.1179C4.86945 53.1405 4.75831 53.1415 4.65019 53.1208Z" fill="#4E4E4F"/>
<path d="M96.889 53.1584C94.4251 53.1584 93.2186 52.3309 92.5068 50.1445C92.3003 49.5281 92.2362 48.8729 92.3192 48.2281C92.4022 47.5834 92.6302 46.9658 92.986 46.4218C93.3419 45.8777 93.8164 45.4214 94.3738 45.087C94.9313 44.7526 95.5573 44.5489 96.2048 44.4911C96.8843 44.4263 97.5916 44.5142 98.2711 44.4911C98.4613 44.4936 98.6489 44.5361 98.8217 44.6157C98.9945 44.6953 99.1487 44.8103 99.2742 44.9533C99.4577 45.1503 99.5748 45.3999 99.6088 45.667C99.6428 45.9341 99.592 46.2051 99.4637 46.4418C99.1725 47.0843 98.7426 46.4926 98.3636 46.3308C96.9768 45.7438 95.2664 46.1968 94.6239 47.3016C94.1616 48.0597 94.365 50.1167 94.9336 50.7315C95.9043 51.7901 96.7457 51.9611 98.1417 51.3741C98.3963 51.2192 98.6603 51.0803 98.9321 50.958C99.2557 50.8748 99.4822 51.0089 99.5192 51.4203C99.6209 52.6175 99.2557 53.0798 98.0446 53.163C97.6563 53.1584 97.2726 53.1584 96.889 53.1584Z" fill="#4E4E4F"/>
<path d="M39.7031 49.5381C39.7031 48.7754 39.6476 48.0127 39.7031 47.2592C39.7816 46.4225 39.4211 46.1683 38.6537 46.2653C37.8864 46.3624 37.7801 45.9556 37.7755 45.3408C37.7755 44.5966 38.1545 44.4903 38.7832 44.5088C40.0775 44.5457 41.3764 44.5088 42.6754 44.5088C43.1839 44.5088 43.7755 44.3562 43.8033 45.2021C43.8033 45.9048 43.7386 46.4225 42.8372 46.2792C41.9358 46.1359 41.8757 46.6675 41.9127 47.3655C41.9496 48.9557 41.8757 50.5551 41.9496 52.1452C41.9866 53.0004 41.6353 53.1668 40.8818 53.1437C39.7447 53.1067 39.7354 53.1437 39.7123 52.0482C39.6892 51.2069 39.7031 50.3841 39.7031 49.5381Z" fill="#4E4E4F"/>
<path d="M29.4966 6.46957C31.4011 5.46647 33.0514 4.09356 34.7664 2.82236C35.1454 2.545 35.4551 2.23067 35.9636 2.32312C35.9963 2.54788 35.9655 2.77729 35.8749 2.98554C35.7842 3.19379 35.6373 3.37261 35.4505 3.50188C34.2486 4.67139 33.0745 5.86863 31.8773 7.04276C31.0128 7.89332 31.0036 7.87945 29.9404 7.04276C29.814 6.97264 29.6787 6.91978 29.5382 6.8856C29.5154 6.74796 29.5015 6.60899 29.4966 6.46957Z" fill="#72C6B2"/>
<path d="M29.3438 10.5703L29.9905 10.6073C29.8935 11.0368 29.6025 11.1662 29.2468 10.9722C29.0297 10.8567 29.0898 10.6535 29.3438 10.5703Z" fill="#72C6B2"/>
<path d="M36.4257 1.88146C36.4246 1.77668 36.4613 1.67501 36.5292 1.59521C36.5971 1.51541 36.6916 1.46287 36.7953 1.44727C36.92 1.44727 37.1371 1.48422 37.1694 1.56274C37.2803 1.85837 37.0262 1.84451 36.8414 1.85837C36.6567 1.87222 36.5551 1.85837 36.4119 1.85837L36.4257 1.88146Z" fill="#72C6B2"/>
<path d="M35.9635 2.33672C35.9578 2.27464 35.9659 2.21208 35.9871 2.15345C36.0083 2.09483 36.0421 2.04159 36.0862 1.99751C36.1303 1.95343 36.1835 1.91959 36.2421 1.89839C36.3008 1.87718 36.3633 1.86913 36.4254 1.87481C36.4358 1.93782 36.431 2.00239 36.4115 2.06318C36.392 2.12397 36.3582 2.17923 36.3131 2.22438C36.2679 2.26953 36.2127 2.30327 36.1519 2.32281C36.0911 2.34235 36.0265 2.34712 35.9635 2.33672Z" fill="#72C6B2"/>
<path d="M133.084 47.181C133.051 46.6632 133.033 46.1409 133.86 46.2564C134.688 46.372 134.475 46.9498 134.498 47.4444C134.501 47.5923 134.469 47.7387 134.404 47.8714C134.339 48.0041 134.243 48.1192 134.124 48.2072C133.893 48.4152 133.661 48.6278 133.352 48.4614C133.204 48.3782 133.134 48.1009 133.093 47.8975C133.068 47.6594 133.065 47.4196 133.084 47.181Z" fill="#FBFCFC"/>
<path d="M30.4671 49.459L30.799 49.6572L30.6008 49.8784L30.4118 49.5143L30.4671 49.459Z" fill="#FBFCFC"/>
<path d="M65.3306 46.2458C66.2089 46.2458 66.3753 46.4815 66.3614 47.3136C66.3476 48.1456 65.8576 48.0763 65.3029 48.1318C64.5078 48.2104 64.4662 47.7389 64.4801 47.1657C64.5032 46.2874 64.5586 46.2227 65.3306 46.2458Z" fill="#FBFCFC"/>
<path d="M122.41 46.2227C123.335 46.2227 123.501 46.4585 123.483 47.2951C123.483 48.0532 122.988 48.0717 122.419 48.118C121.624 48.1827 121.601 47.7204 121.587 47.1426C121.573 46.5648 121.698 46.1164 122.41 46.2227Z" fill="#FBFCFC"/>
</g>
<defs>
<clipPath id="clip0_426_10941">
<rect width="136.366" height="53.6218" fill="white"/>
</clipPath>
</defs>
</svg>
