<svg width="89" height="24" viewBox="0 0 89 24" fill="none" xmlns="http://www.w3.org/2000/svg">
<path d="M29.9426 17.2802V5.71042H31.9337L36.7831 13.2659L37.5159 14.6264L37.4662 5.71042H39.3727V17.2802H37.3816L32.5498 9.75969L31.8024 8.34669L31.852 17.2802H29.9455H29.9426ZM41.2091 7.08839V5.03019H43.0309V7.08839H41.2091ZM41.2091 17.2802V8.20946H43.0309V17.2802H41.2091ZM50.4377 13.5199V8.21239H52.242V17.2831H50.4377V16.0569C49.8421 17.0262 48.8903 17.5021 47.7313 17.5021C45.8774 17.5021 44.7183 16.4131 44.7183 14.2702V8.21239H46.5401V13.8965C46.5401 15.2074 47.0861 15.9898 48.2918 15.9898C49.6202 15.9898 50.4348 14.7811 50.4348 13.5229L50.4377 13.5199ZM53.947 17.2802V8.20946H55.7687V9.5524C56.3643 8.46345 57.3015 7.97007 58.3554 7.97007C58.7116 7.97007 59.0532 8.05473 59.2225 8.20946V9.80931C58.951 9.72465 58.627 9.68962 58.2533 9.68962C56.5191 9.68962 55.7687 10.7435 55.7687 12.3259V17.2772H53.947V17.2802ZM61.5377 11.1727H59.7159C60.005 9.16413 61.383 7.97299 63.6456 7.97299C66.1126 7.97299 67.3388 9.41811 67.3388 11.5289V15.0672C67.3388 16.1562 67.441 16.7868 67.6454 17.2802H65.7389C65.6017 16.9386 65.5521 16.4627 65.5345 15.9518C64.7696 17.0233 63.596 17.4991 62.507 17.4991C60.6706 17.4991 59.4094 16.6321 59.4094 14.895C59.4094 13.6542 60.0896 12.7346 61.4501 12.2733C62.6588 11.8646 63.8821 11.7624 65.517 11.7449V11.5405C65.517 10.2122 64.9039 9.49985 63.5084 9.49985C62.3348 9.49985 61.7041 10.1451 61.5348 11.1669L61.5377 11.1727ZM61.2487 14.8308C61.2487 15.5956 61.8793 16.0715 62.8486 16.0715C64.3638 16.0715 65.52 14.8629 65.52 13.4002V12.9915C62.0311 13.0265 61.2487 13.7914 61.2487 14.8278V14.8308ZM69.1139 17.2802V5.03019H70.9357V17.2802H69.1139ZM83.259 17.2802L82.2722 14.676H76.9966L76.0098 17.2802H74.1034L78.5615 5.71042H80.792L85.2501 17.2802H83.259ZM79.2943 8.67074L77.5747 13.1813H81.6912L79.9716 8.67074L79.63 7.54675L79.2884 8.67074H79.2943ZM86.2778 17.2802V5.71042H88.1842V17.2802H86.2778Z" fill="#18181B"/>
<path fill-rule="evenodd" clip-rule="evenodd" d="M21.4001 8.91309L20.9184 8.80217H20.9126C20.86 8.79049 20.8133 8.7788 20.7753 8.76712C20.7286 8.75252 20.6848 8.73793 20.644 8.71749C20.5301 8.66494 20.4338 8.58028 20.3666 8.47518C20.2148 8.24746 20.2119 7.95553 20.3549 7.72197C20.3666 7.70446 20.3783 7.68694 20.39 7.66943C20.3958 7.66359 20.3987 7.65775 20.4046 7.64899C20.4659 7.57308 20.5505 7.50593 20.641 7.46214C20.6732 7.44754 20.7169 7.42711 20.7783 7.40959C20.8133 7.40083 20.8454 7.39207 20.8746 7.38623L20.9096 7.37748C20.9096 7.37748 20.9184 7.37748 20.9213 7.37748L21.403 7.26946C21.5023 7.24611 21.5957 7.21106 21.6862 7.16435C21.5286 6.2856 21.0498 5.49444 20.3403 4.94558C19.6367 5.20249 19.0937 5.80681 18.9302 6.54835L18.755 7.32784V7.34828C18.7346 7.42418 18.7171 7.48841 18.6996 7.5468C18.682 7.60518 18.6645 7.65191 18.6499 7.68694C18.6441 7.69862 18.6382 7.71322 18.6324 7.7249C18.5653 7.85627 18.4718 7.95845 18.358 8.03436C18.2237 8.12486 18.0689 8.17156 17.9025 8.17156C17.7361 8.17156 17.5814 8.12486 17.4471 8.03436C17.3332 7.96137 17.2398 7.85627 17.1726 7.7249C17.1726 7.7249 17.1726 7.72197 17.1697 7.71905C17.1464 7.66942 17.1259 7.61395 17.1055 7.55264C17.088 7.49133 17.0705 7.42127 17.05 7.33368L16.8749 6.54835C16.688 5.71339 16.0224 5.05069 15.1844 4.86092L14.3991 4.68283H14.3903C14.3173 4.66531 14.2473 4.64779 14.186 4.63028C14.1247 4.61276 14.075 4.59234 14.0254 4.56898C13.8911 4.50475 13.7802 4.4084 13.7013 4.28579C13.5232 4.0172 13.5203 3.67271 13.6867 3.39828C13.6984 3.37785 13.713 3.35741 13.7276 3.33989C13.7334 3.33113 13.7393 3.32237 13.7451 3.31653C13.8181 3.22603 13.9115 3.15304 14.0225 3.10049C14.0633 3.08006 14.1188 3.05379 14.1918 3.03627C14.2385 3.02168 14.2852 3.00998 14.3319 3.00122C14.3495 2.9983 14.3728 2.99247 14.3933 2.98663C14.3933 2.98663 14.3991 2.98663 14.4049 2.98663L15.1874 2.81147C15.4968 2.7414 15.783 2.60711 16.0282 2.42318L12.6824 0.493434C11.5642 -0.151762 10.1862 -0.151762 9.06512 0.493434L1.80719 4.68283C0.689008 5.32802 0 6.52209 0 7.8154V16.1942C0 17.4875 0.689008 18.6816 1.80719 19.3268L9.06512 23.5161C10.1833 24.1613 11.5642 24.1613 12.6824 23.5161L19.9404 19.3268C21.0585 18.6816 21.7475 17.4875 21.7475 16.1942V9.06491C21.6424 9.0036 21.5286 8.9569 21.406 8.9277L21.4001 8.91309ZM15.383 17.2919L13.316 18.2641H13.2079V8.74086C13.2079 8.37884 12.9773 8.10733 12.5218 7.92924C12.0722 7.74824 11.5204 7.65774 10.8665 7.65774C10.2125 7.65774 9.66071 7.74824 9.20526 7.92924C8.75273 8.10733 8.53085 8.37884 8.53085 8.74086V17.289L6.46383 18.2611H6.35581V8.36133C6.35581 7.395 7.03314 6.65053 8.39071 6.13087C9.12352 5.85061 9.94974 5.71047 10.8723 5.71047C11.7949 5.71047 12.6182 5.85061 13.3539 6.13087C14.7086 6.65053 15.3888 7.395 15.3888 8.36133V17.289L15.383 17.2919Z" fill="#714DFF"/>
<path fill-rule="evenodd" clip-rule="evenodd" d="M15.383 8.3642V17.2918L13.316 18.264H13.208V8.7408C13.208 8.37879 12.9773 8.10727 12.5219 7.92919C12.0723 7.74818 11.5205 7.65768 10.8665 7.65768C10.2125 7.65768 9.66073 7.74818 9.20529 7.92919C8.75276 8.10727 8.53088 8.37879 8.53088 8.7408V17.2889L6.46386 18.2611H6.35583V8.36128C6.35583 7.39494 7.03316 6.65048 8.39074 6.13082C9.12354 5.85055 9.94977 5.71042 10.8723 5.71042C11.7949 5.71042 12.6182 5.85055 13.3539 6.13082C14.7086 6.65048 15.3888 7.39494 15.3888 8.36128L15.383 8.3642Z" fill="white"/>
<path d="M21.6775 4.00256C21.6483 4.04635 21.6103 4.08138 21.5549 4.10766C21.5315 4.11933 21.5052 4.13101 21.4702 4.13977C21.4206 4.15436 21.3563 4.16897 21.2863 4.18356L20.5038 4.36165C20.2674 4.4142 20.0426 4.49885 19.8323 4.60979C19.1317 4.97764 18.6091 5.64035 18.431 6.43152L18.2587 7.2081C18.2412 7.28693 18.2266 7.35115 18.212 7.40078C18.2033 7.43581 18.1916 7.4621 18.1799 7.48837C18.1536 7.54092 18.1186 7.58179 18.0748 7.60806C18.0222 7.64602 17.9609 7.66061 17.8996 7.66061C17.8383 7.66061 17.7741 7.64602 17.7215 7.60806C17.6807 7.58179 17.6456 7.54092 17.6164 7.48837C17.6048 7.46502 17.596 7.43581 17.5843 7.40078C17.5697 7.35406 17.5551 7.29276 17.5405 7.21977L17.3653 6.43444C17.1347 5.4068 16.3202 4.5952 15.2925 4.36457L14.5101 4.18649C14.44 4.17189 14.3758 4.15728 14.3261 4.14269C14.2911 4.13393 14.2648 4.12226 14.2415 4.11058C14.1889 4.08722 14.148 4.05218 14.1188 4.00546C14.0488 3.90036 14.0488 3.76024 14.1188 3.65222C14.1188 3.65222 14.1188 3.65222 14.1188 3.6493L14.1276 3.63763C14.1276 3.63763 14.1276 3.63763 14.1276 3.63471C14.1539 3.60259 14.1918 3.57339 14.2356 3.55295C14.259 3.54128 14.2852 3.5296 14.3203 3.52085C14.3699 3.50333 14.4341 3.49166 14.5071 3.47414L15.2866 3.29896C15.7392 3.19678 16.1508 2.98367 16.4866 2.68589C16.9187 2.30928 17.2281 1.8013 17.3595 1.22617L17.5347 0.437916C17.5493 0.36785 17.5639 0.303623 17.5785 0.256912C17.5872 0.224798 17.5989 0.195608 17.6106 0.169333C17.6369 0.119702 17.6719 0.0788199 17.7157 0.0496255L17.7332 0.0408765C17.7828 0.0146015 17.8354 0 17.8909 0C17.9551 0 18.0164 0.0175145 18.069 0.0525478C18.1098 0.0817422 18.1449 0.122624 18.1741 0.172255C18.1828 0.19561 18.1945 0.224801 18.2062 0.259835C18.2208 0.309465 18.2354 0.373682 18.2529 0.449588L18.4281 1.22909C18.6587 2.25673 19.4732 3.06833 20.5009 3.29896L21.2746 3.47414C21.3534 3.49166 21.4176 3.50333 21.4673 3.52085C21.5023 3.5296 21.5286 3.54128 21.5519 3.55295C21.5957 3.57339 21.6308 3.60259 21.66 3.63471C21.66 3.63471 21.66 3.63471 21.66 3.63763L21.6687 3.6493C21.6687 3.6493 21.6687 3.65513 21.6716 3.65805L21.6804 3.66974C21.7417 3.78068 21.7359 3.9062 21.6716 4.00546L21.6775 4.00256Z" fill="#714DFF"/>
<path d="M25.4582 8.1978C25.4407 8.22699 25.4174 8.24742 25.3823 8.26202C25.3677 8.26786 25.3502 8.27662 25.3298 8.28245C25.3006 8.29121 25.2597 8.29998 25.2159 8.30874L24.7342 8.41968C24.0977 8.56273 23.5956 9.06486 23.4525 9.69838L23.3445 10.1772C23.3328 10.2268 23.3241 10.2648 23.3153 10.2969C23.3095 10.3173 23.3007 10.3348 23.2949 10.3494C23.2773 10.3815 23.2569 10.4078 23.2306 10.4224C23.1985 10.4458 23.1606 10.4545 23.1226 10.4545C23.0847 10.4545 23.0467 10.4458 23.0117 10.4224C22.9854 10.4078 22.965 10.3815 22.9474 10.3494C22.9387 10.3348 22.9328 10.3173 22.927 10.2969C22.9182 10.2677 22.9095 10.2297 22.8978 10.183L22.7898 9.69838C22.6642 9.14076 22.2643 8.68826 21.7388 8.48682C21.6658 8.45762 21.5869 8.43427 21.511 8.41676L21.0264 8.30581C20.9826 8.29706 20.9446 8.28829 20.9125 8.27953C20.8921 8.27369 20.8746 8.26785 20.86 8.25909C20.8279 8.2445 20.8045 8.22407 20.787 8.19487C20.7432 8.13065 20.7432 8.04306 20.787 7.97592L20.7928 7.96715C20.8074 7.94671 20.8308 7.9292 20.8571 7.91752C20.8717 7.90877 20.8892 7.90293 20.9096 7.89709C20.9388 7.88833 20.9797 7.87958 21.0235 7.8679L21.5052 7.75988C21.584 7.74236 21.6599 7.719 21.7329 7.69272C22.2584 7.49128 22.6613 7.03586 22.7869 6.48116L22.8949 5.99653C22.9036 5.95274 22.9153 5.9148 22.9241 5.88268C22.9299 5.86225 22.9358 5.84471 22.9445 5.83012C22.9591 5.798 22.9825 5.77465 23.0087 5.75713L23.0175 5.7513C23.0467 5.73379 23.0817 5.72502 23.1139 5.72502C23.1518 5.72502 23.1898 5.73669 23.2248 5.75713C23.2511 5.77465 23.2715 5.798 23.289 5.83012C23.2949 5.84471 23.3007 5.86225 23.3095 5.88268C23.3182 5.9148 23.327 5.95274 23.3357 5.99945L23.4438 6.48116C23.5868 7.11468 24.089 7.61683 24.7254 7.75988L25.2013 7.8679C25.2509 7.87958 25.2918 7.88541 25.321 7.89709C25.3415 7.90293 25.359 7.90877 25.3736 7.91752C25.3998 7.9292 25.4203 7.94671 25.4407 7.96715L25.4466 7.97592C25.4466 7.97592 25.4466 7.97592 25.4466 7.97884V7.98467C25.4874 8.05473 25.4845 8.13356 25.4466 8.19195L25.4582 8.1978Z" fill="#714DFF"/>
</svg>
