<svg width="255" height="125" viewBox="0 0 255 125" fill="none" xmlns="http://www.w3.org/2000/svg">
<g clip-path="url(#clip0_428_11272)">
<path d="M96.9301 44.8574H105.358C110.39 44.8574 114.712 46.6959 114.712 52.5094C114.712 58.1386 110.32 60.5844 105.493 60.5844H103.02V67.8839H96.9301V44.8574ZM105.217 55.7687C107.624 55.7687 108.758 54.5594 108.758 52.5148C108.758 50.4703 107.413 49.6786 105.076 49.6786H103.02V55.7687H105.217Z" fill="black"/>
<path d="M118.471 50.1055H125.201C129.029 50.1055 132.31 51.4179 132.31 55.8485C132.31 60.1436 129.029 61.917 125.201 61.917H123.178V67.8824H118.471V50.1055ZM124.87 58.2022C126.73 58.2022 127.717 57.3779 127.717 55.8485C127.717 54.3192 126.73 53.8257 124.87 53.8257H123.178V58.2022H124.87ZM124.328 60.6914L127.5 57.5731L133.27 67.877H128.021L124.328 60.6914Z" fill="black"/>
<path d="M136.405 46.0997C136.405 44.7331 137.489 43.7461 139.03 43.7461C140.57 43.7461 141.654 44.7331 141.654 46.0997C141.654 47.4663 140.57 48.4479 139.03 48.4479C137.489 48.4479 136.405 47.4663 136.405 46.0997ZM136.676 50.1454H141.362V67.8843H136.66L136.676 50.1454Z" fill="black"/>
<path d="M146.291 50.1055H151.324L154.003 57.3779C154.334 58.3649 154.605 59.4603 154.93 60.4961H155.044C155.369 59.4603 155.646 58.3649 155.971 57.3779L158.542 50.1055H163.596V67.8824H159.328V62.6328C159.42 60.5089 159.621 58.3911 159.93 56.2878H159.8L158.325 60.5558L156.156 66.4344H153.618L151.449 60.5558L150.039 56.2878H149.93C150.24 58.3911 150.441 60.5089 150.532 62.6328V67.8824H146.318L146.291 50.1055Z" fill="black"/>
<path d="M168.873 50.1055H180.359V54.0481H173.575V56.841H179.372V60.7727H173.575V63.9452H180.625V67.8824H168.873V50.1055Z" fill="black"/>
<path d="M121.014 23.6313C146.785 19.7972 172.544 18.0455 198.402 22.5955C207.621 24.2224 216.51 26.8093 224.606 31.728C233.533 37.1511 236.732 45.6545 232.817 54.2935C231.363 57.3154 229.423 60.0781 227.074 62.4716C220.056 69.9934 211.374 75.1996 202.296 79.7171C186.867 87.4287 170.565 92.662 153.808 96.6046C125.477 103.275 96.865 106.198 67.7972 103.481C56.4087 102.396 45.2479 100.319 34.7868 95.4115C31.4055 93.8854 28.2838 91.8397 25.5349 89.3485C19.5261 83.7735 18.2571 76.7289 21.9449 69.4186C25.0469 63.2688 30.0307 58.8218 35.4213 54.8142C46.6254 46.4843 59.2178 40.8117 72.2713 36.1533C78.2367 34.022 84.2455 32.0805 90.3356 30.4048C100.426 27.572 110.669 25.3106 121.014 23.6313ZM144.496 91.854C148.661 91.2683 156.676 89.4732 164.638 87.3908C179.28 83.5566 193.505 78.627 206.726 71.1214C213.201 67.4554 219.292 63.2688 223.972 57.3251C229.845 49.8629 228.853 42.0156 221.211 36.3973C220.265 35.7065 219.272 35.0814 218.24 34.5263C210.647 30.3722 202.399 28.4416 193.955 27.2919C173.277 24.4827 152.701 25.6975 132.131 28.9188C110.867 32.2757 90.1946 37.5416 70.7365 46.929C62.1843 51.1048 53.8327 55.7469 47.7209 63.3068C39.9496 72.8894 41.7555 81.165 52.5474 87.1304C59.5975 91.0459 67.3417 92.944 75.2323 94.11C97.0765 97.315 118.829 95.9647 144.496 91.854Z" fill="url(#paint0_linear_428_11272)"/>
<path d="M223.001 53.7087C224.601 46.8919 220.832 43.1011 215.55 40.2214C207.957 36.0945 199.617 34.473 191.178 33.3287C177.333 31.4523 163.461 31.5607 149.561 32.7864C140.743 33.5619 131.942 34.4513 123.243 36.1053C102.695 39.9991 82.5209 45.1077 63.7624 54.7337C63.3773 54.9289 62.9543 55.0482 62.3469 55.276C62.4608 54.1914 63.22 54.0449 63.7569 53.7196C74.9882 47.0003 87.1793 42.5154 99.6362 38.6704C109.227 35.7412 119.013 33.494 128.921 31.9458C153.639 28.0086 178.428 26.0726 203.217 31.7397C208.267 32.8212 213.127 34.649 217.637 37.1628C220.669 38.9036 223.359 41.0295 224.612 44.4406C225.783 47.7053 225.094 50.7965 223.001 53.7087Z" fill="black"/>
<path d="M48.5559 80.4001C48.5177 80.2599 48.4923 80.1165 48.48 79.9717C48.4564 79.7484 48.4456 79.5238 48.4475 79.2993C48.4771 79.0671 48.5546 78.8436 48.6752 78.6431C48.8747 78.2656 49.1013 77.9031 49.3531 77.5584C49.5717 77.2246 49.8145 76.9074 50.0798 76.6094C50.2662 76.4 50.4673 76.2042 50.6818 76.0237C50.8933 75.6929 51.1428 75.3241 51.4356 74.9391C51.7722 74.4816 52.1343 74.0434 52.5202 73.6267C53.0625 73.0356 53.5181 72.5421 53.8543 72.157C54.1026 71.8803 54.3362 71.5907 54.5539 71.2893C54.6569 71.1971 54.7817 71.0778 54.9281 70.9206L55.4162 70.3782C55.5596 70.2311 55.7157 70.0968 55.8826 69.9769C56.0066 69.8893 56.1537 69.8402 56.3056 69.8359C56.4845 69.8793 56.6581 69.9227 56.8479 69.9715C57.2236 70.0499 57.5673 70.2387 57.8349 70.5138C58.0453 70.7613 58.1556 71.0786 58.144 71.4032C58.1443 71.7656 58.1243 72.1277 58.0843 72.4878C58.0436 72.8361 57.9839 73.1819 57.9054 73.5236C57.867 73.6893 57.8434 73.8581 57.8349 74.028C57.8349 74.2449 57.8349 74.4944 57.8349 74.771C57.8349 74.8523 57.8349 74.9391 57.8349 75.0204C57.8349 75.1018 57.8349 75.1994 57.7969 75.3024C57.7672 75.3981 57.7454 75.496 57.7318 75.5953C57.7318 75.682 57.7318 75.7471 57.7318 75.7959V76.284C57.7295 76.4388 57.7131 76.5931 57.683 76.745C57.683 76.9185 57.6125 77.1083 57.5637 77.2873C57.5258 77.5801 57.4878 77.8296 57.4498 77.9814L57.3848 78.3285C57.3305 78.5021 57.2817 78.7027 57.2275 78.9305C57.1733 79.1583 57.0973 79.4728 57.0051 79.7765L57.1895 80.3188L57.0214 81.2082C56.9292 81.6908 56.8099 82.3579 56.6581 83.2147C56.5496 83.8275 56.4411 84.3644 56.3272 84.8417C56.2451 85.2151 56.1233 85.5787 55.9639 85.9263C55.8752 86.1916 55.8081 86.4636 55.7632 86.7398C55.6982 87.0923 55.6277 87.5315 55.5572 88.063C55.4596 88.2962 55.3457 88.5619 55.2101 88.871C55.0745 89.1801 54.9389 89.5272 54.7925 89.9177L54.3966 90.3787C54.2556 90.5468 54.0984 90.7257 53.914 90.921C53.7714 91.153 53.5876 91.357 53.3717 91.5229C53.2153 91.6423 53.0259 91.7105 52.8293 91.7182C52.7166 91.7286 52.6041 91.6956 52.5148 91.626C52.4776 91.5897 52.4491 91.5455 52.4312 91.4967C52.4134 91.4479 52.4067 91.3957 52.4118 91.344C52.4043 91.2047 52.4079 91.0651 52.4226 90.9264C52.4555 90.7229 52.5082 90.5231 52.5799 90.3298C52.6775 90.0207 52.786 89.6899 52.8944 89.3374C53.0137 88.8656 53.1113 88.4372 53.1873 88.0576C53.2632 87.6779 53.3337 87.3471 53.3934 87.076C53.3934 86.9133 53.3933 86.7181 53.4476 86.4849C53.5018 86.2517 53.4964 85.9859 53.5289 85.6714C53.5573 85.5387 53.5954 85.4081 53.6428 85.2809C53.6984 85.1368 53.7313 84.985 53.7404 84.8308C53.763 84.349 53.8155 83.869 53.8977 83.3937C54.0007 82.7104 54.1689 81.821 54.3858 80.7255C54.3858 80.655 54.3858 80.5683 54.4237 80.4544C54.4469 80.3167 54.4795 80.1808 54.5214 80.0476C54.4617 79.9175 54.4129 79.8036 54.3749 79.7006L54.44 79.2342C54.4676 79.0202 54.4803 78.8046 54.478 78.5888C54.4966 78.0825 54.5546 77.5785 54.6515 77.0812C54.7466 76.5928 54.8046 76.0979 54.825 75.6007C54.83 75.4359 54.8099 75.2713 54.7654 75.1126C54.722 74.9987 54.6624 74.9391 54.581 74.9391L54.402 74.9987C53.8001 75.579 53.3174 76.0345 52.9378 76.3599C52.7026 76.5936 52.4339 76.791 52.1406 76.9456C51.941 77.2437 51.7218 77.5281 51.4844 77.7971C51.2187 78.1007 50.8987 78.4316 50.53 78.7841L49.6623 79.6246L48.7946 80.4706L48.5559 80.4001Z" fill="black"/>
<path d="M59.2123 84.5938C59.2557 84.5233 59.3099 84.4474 59.375 84.3606L59.6082 84.0515C59.7058 83.9701 59.8359 83.8562 59.9986 83.7044C60.1613 83.5525 60.3403 83.379 60.5409 83.1621C60.7416 82.9452 60.9423 82.712 61.2026 82.4137C61.4629 82.1154 61.7828 81.7575 62.157 81.3291L62.759 80.6729L63.6158 79.7184C63.866 79.4194 64.1741 79.174 64.5215 78.9971C64.8387 78.835 65.1902 78.7514 65.5465 78.7531C65.6971 78.7408 65.8485 78.7654 65.9875 78.825C66.1264 78.8845 66.2487 78.9771 66.3437 79.0947C66.5366 79.3862 66.6281 79.7331 66.604 80.0818C66.5638 80.5307 66.4766 80.9743 66.3437 81.405C66.1755 82.0612 65.9098 82.9235 65.5465 84.0027L65.2916 84.5721C65.2375 84.6823 65.1974 84.7989 65.1723 84.9192C65.1544 84.9939 65.1435 85.0702 65.1397 85.1469C65.1519 85.2321 65.1897 85.3116 65.2482 85.3747C65.3015 85.3409 65.3491 85.2987 65.3892 85.25L65.5465 85.071C65.6471 84.8959 65.7712 84.7354 65.9152 84.5938C66.0834 84.4311 66.2786 84.2467 66.5118 84.0515C66.6098 83.8705 66.728 83.7013 66.8643 83.5471C67.0127 83.3771 67.1781 83.2227 67.3578 83.0862C67.4153 83.0254 67.4679 82.9601 67.5151 82.8909C67.5872 82.7907 67.665 82.6947 67.7482 82.6035C67.8957 82.459 68.0514 82.3232 68.2146 82.1968C68.399 82.0558 68.6105 81.9093 68.8491 81.7575C69.0863 81.6327 69.3308 81.5222 69.5813 81.4267C69.7539 81.3561 69.9373 81.3158 70.1236 81.3074C70.4163 81.302 70.7043 81.3811 70.9533 81.5351C71.2177 81.7118 71.4309 81.955 71.5715 82.2402C71.7722 82.8638 71.962 83.4441 72.1464 83.9755C72.2231 84.2287 72.3484 84.4644 72.5152 84.6697C72.5704 84.7393 72.6404 84.7959 72.7201 84.8353C72.7998 84.8747 72.8872 84.8959 72.9761 84.8975C73.0977 84.898 73.218 84.8721 73.3286 84.8215C73.4405 84.766 73.5401 84.6885 73.6215 84.5938L74.2234 85.9821L73.6811 86.4214L73.1388 86.8552C72.9474 87.0377 72.7276 87.1879 72.488 87.2999C72.2985 87.3842 72.0935 87.4286 71.8861 87.4301C71.6568 87.4314 71.4303 87.3794 71.2245 87.2782C71.0106 87.1733 70.8247 87.019 70.6821 86.8281C70.5673 86.6908 70.4673 86.5417 70.3839 86.3834C70.2646 86.1665 70.1236 85.8953 69.9609 85.5754C69.8015 85.404 69.653 85.2229 69.5162 85.033L68.9359 84.2684L68.8003 84.225C68.6086 84.2915 68.4262 84.3826 68.258 84.4962C68.0475 84.636 67.848 84.792 67.6615 84.9625C67.367 85.2515 67.0394 85.5046 66.6853 85.7164C66.5183 85.7891 66.3767 85.9099 66.2786 86.0634C66.0661 86.3981 65.8228 86.7122 65.5519 87.0016C65.2102 87.3813 64.7872 87.8368 64.272 88.3574L63.8816 88.7425L63.4911 89.1112C63.3622 89.2212 63.2102 89.3009 63.0464 89.3444C62.8693 89.3907 62.6871 89.4144 62.5041 89.4149C62.1028 89.4149 61.8804 89.2739 61.8479 88.9973C61.8154 88.7208 61.7774 88.455 61.7503 88.1622C61.8967 87.7392 62.0703 87.2131 62.2601 86.5786C62.4499 85.9441 62.6722 85.2066 62.9217 84.3606C62.9259 84.2913 62.9425 84.2234 62.9705 84.1599C63.0103 84.0732 63.0536 83.9593 63.1006 83.8183C63.1421 83.7085 63.1765 83.5962 63.2037 83.482C63.2235 83.4003 63.2344 83.3167 63.2362 83.2326C63.2367 83.2007 63.2301 83.1691 63.217 83.14C63.2039 83.111 63.1845 83.0852 63.1603 83.0645C63.0871 83.0197 63.0018 82.9988 62.9163 83.0048C62.7697 83.0246 62.6321 83.0868 62.5204 83.1838C62.3023 83.3543 62.1023 83.547 61.9238 83.7586C61.6418 84.0623 61.4141 84.3009 61.2459 84.469C61.1423 84.5817 61.0258 84.6818 60.8989 84.7673C60.7718 84.859 60.6521 84.9605 60.5409 85.071L60.0854 85.5049C60.0854 85.5482 60.0312 85.6079 59.9932 85.6892C59.9376 85.7861 59.8722 85.877 59.798 85.9604C59.7391 85.7753 59.6684 85.5942 59.5865 85.4181C59.5051 85.2012 59.375 84.9246 59.2123 84.5938Z" fill="black"/>
<path d="M73.627 84.594L73.6866 84.4747L73.9252 84.171L74.2615 83.748C75.0299 83.025 75.7289 82.2315 76.3494 81.3781C77.0878 80.3632 77.7598 79.3017 78.3613 78.2002C78.4617 78.062 78.5523 77.9171 78.6325 77.7663C78.7355 77.5819 78.844 77.3596 78.9633 77.0884C78.9668 77.064 78.9647 77.0391 78.9572 77.0156C78.9497 76.9921 78.9369 76.9707 78.9199 76.9528C78.8995 76.9345 78.8754 76.9206 78.8492 76.9122C78.823 76.9038 78.7954 76.901 78.7681 76.904C78.6686 76.91 78.5702 76.9282 78.4752 76.9583C78.3743 76.9868 78.2707 77.005 78.1661 77.0125H76.2843H75.883H75.4817L75.1997 76.8281L74.9502 76.7196C74.8463 76.6883 74.7515 76.6325 74.6736 76.557C74.6414 76.5272 74.6156 76.4912 74.5979 76.4511C74.5801 76.4109 74.5708 76.3676 74.5706 76.3238C74.5501 75.8237 74.6199 75.324 74.7767 74.8487C74.8065 74.7013 74.8845 74.5681 74.9984 74.4699C75.1123 74.3717 75.2556 74.3142 75.4057 74.3064C75.6823 74.3064 75.948 74.3064 76.1975 74.3443C76.447 74.3823 76.6585 74.404 76.8537 74.4419L77.2713 74.3552C77.5479 74.3552 77.7756 74.3552 77.9654 74.3552C78.1136 74.3693 78.2604 74.3947 78.4047 74.4311L78.7898 74.3498L79.2073 74.2684L79.7008 74.4148C80.0533 74.3769 80.4329 73.8725 80.8288 72.9397C81.2247 72.007 81.6531 71.5243 82.1033 71.5243C82.2045 71.5192 82.3055 71.5365 82.3993 71.5749C82.493 71.6134 82.5771 71.672 82.6456 71.7467C82.7885 71.9384 82.8578 72.1751 82.8408 72.4137C82.8241 72.7263 82.7563 73.0341 82.6402 73.3248C82.5285 73.5986 82.4484 73.8843 82.4015 74.1762L82.4829 74.3064C82.5311 74.3628 82.5837 74.4154 82.6402 74.4636C82.7062 74.5118 82.751 74.5837 82.7649 74.6643C82.7933 74.7814 82.806 74.9018 82.8028 75.0222C82.8116 75.4882 82.7844 75.9542 82.7215 76.416C82.6673 76.7413 82.5805 76.9095 82.4612 76.9203L81.4362 77.1318C81.4362 77.2294 81.3928 77.3541 81.3603 77.5006C81.3278 77.647 81.2898 77.8151 81.241 78.0049C81.0675 78.5093 80.8776 79.1438 80.6661 79.9193C80.4546 80.6948 80.216 81.6113 79.9557 82.6634C79.793 83.5094 79.6683 84.1927 79.5869 84.7133C79.5202 85.0625 79.4767 85.4158 79.4568 85.7708C79.4495 85.8965 79.4757 86.0219 79.5327 86.1342C79.5567 86.1724 79.5904 86.2037 79.6305 86.2246C79.6705 86.2456 79.7154 86.2555 79.7605 86.2535C79.9998 86.1404 80.2209 85.9924 80.4167 85.8142C80.7909 85.5213 81.3169 85.0929 81.9894 84.5181L82.5751 85.9064C82.4443 86.0452 82.3048 86.1757 82.1575 86.2968C81.9731 86.4487 81.7562 86.6114 81.5067 86.7795C81.3887 86.9091 81.2638 87.0322 81.1325 87.1483C80.9807 87.2839 80.8126 87.4411 80.6336 87.6255L80.0913 88.2275C79.9178 88.4299 79.737 88.6252 79.549 88.8132C79.3474 89.0337 79.1088 89.2172 78.844 89.3555C78.643 89.4618 78.4205 89.5212 78.1932 89.529C78.0093 89.5434 77.8246 89.5152 77.6534 89.4465C77.4822 89.3779 77.3292 89.2706 77.2062 89.1331C76.9636 88.7868 76.8486 88.3671 76.8808 87.9455C76.8808 87.3598 76.8808 86.8609 76.9459 86.427C76.9691 86.0769 77.0346 85.7309 77.1411 85.3966C77.1755 85.3285 77.2045 85.2578 77.2279 85.1851C77.2317 85.0483 77.2481 84.9122 77.2767 84.7784C77.2767 84.6048 77.3418 84.4042 77.3797 84.1764C77.4394 83.7805 77.5045 83.3901 77.575 82.9996C77.6889 82.7556 77.8027 82.5007 77.9221 82.2295C77.9221 82.1807 77.8841 82.1319 77.8027 82.0939L77.6509 82.1861C77.4785 82.456 77.2825 82.7101 77.0652 82.9454C76.795 83.241 76.507 83.5199 76.2029 83.7805C75.6932 84.274 75.1671 84.773 74.6357 85.2773C74.5859 85.3546 74.5316 85.4288 74.473 85.4997C74.3916 85.6027 74.2994 85.7274 74.2018 85.8793C74.1476 85.76 74.0879 85.6027 74.012 85.4183C73.9361 85.2339 73.8601 85.017 73.7788 84.7784C73.7568 84.7209 73.7314 84.6648 73.7029 84.6103C73.6781 84.6027 73.6527 84.5973 73.627 84.594Z" fill="black"/>
<path d="M81.9839 84.5944C82.1172 84.3658 82.2734 84.1514 82.4503 83.9545C82.6702 83.7094 82.9116 83.4843 83.1715 83.282C83.2041 83.0814 83.2312 82.8861 83.2637 82.6855C83.2963 82.4848 83.3125 82.295 83.3234 82.0944C83.3616 81.9257 83.4087 81.7592 83.4644 81.5954C83.5295 81.4056 83.6054 81.1996 83.6867 80.9772C83.7681 80.7549 83.8982 80.4783 84.0555 80.1475C84.2128 79.8167 84.4134 79.4425 84.6629 79.0303C84.8744 78.8025 85.0967 78.5477 85.3299 78.2711L86.0241 77.4305C86.1384 77.3387 86.2579 77.2536 86.382 77.1756C86.5122 77.0943 86.6423 77.0075 86.7779 76.9045C86.9111 76.8612 87.0469 76.8267 87.1846 76.8014C87.3469 76.7674 87.5124 76.7511 87.6781 76.7526C87.8851 76.7474 88.0916 76.773 88.291 76.8285C88.4415 76.8769 88.5751 76.9672 88.676 77.0888C88.7622 77.1963 88.83 77.3172 88.8767 77.4468C88.9527 77.6395 89.0161 77.8369 89.0665 78.0379C89.099 78.2385 89.1315 78.4609 89.1749 78.6995C89.1749 78.6399 89.1749 78.667 89.1207 78.7754C89.0665 78.8839 89.0339 79.0629 88.9634 79.3177L88.8278 79.8004C88.614 80.4111 88.2926 80.9787 87.8788 81.4761C87.2632 82.2417 86.5983 82.9663 85.8885 83.6454C85.813 83.7233 85.7507 83.8131 85.7041 83.9111C85.6541 84.0161 85.6282 84.131 85.6282 84.2473C85.6263 84.4342 85.6652 84.6193 85.7421 84.7897C85.8096 84.942 85.9235 85.0691 86.0675 85.153C86.1862 85.2315 86.316 85.2918 86.4525 85.332C86.6566 85.4012 86.8649 85.4574 87.0762 85.5001C87.4436 85.4737 87.8072 85.4083 88.1608 85.3048C88.4579 85.2128 88.745 85.0911 89.0177 84.9415C89.0665 84.909 89.1478 84.871 89.2617 84.8113C89.3795 84.7513 89.4905 84.6786 89.5925 84.5944L89.9396 85.3808C90.0372 85.6085 90.1185 85.8092 90.1782 85.9827C89.7079 86.4658 89.1839 86.8934 88.6163 87.2572C88.2358 87.5161 87.7909 87.6644 87.3311 87.6856C87.1645 87.7894 86.9809 87.8628 86.7888 87.9025C86.5482 87.9539 86.3026 87.9775 86.0566 87.973C85.72 87.9796 85.3851 87.9226 85.0696 87.8049C84.7954 87.7045 84.5497 87.5388 84.3538 87.3222C84.2321 87.1902 84.1315 87.0402 84.0555 86.8775C83.9525 86.6823 83.8494 86.4491 83.7355 86.178C83.6739 86.0041 83.5881 85.8398 83.4807 85.6899C83.4516 85.6432 83.4118 85.6042 83.3647 85.5759C83.3175 85.5476 83.2644 85.5309 83.2095 85.5272C83.1091 85.5345 83.0139 85.5745 82.9384 85.6411C82.8136 85.74 82.7024 85.8549 82.6075 85.9827C82.5486 85.7977 82.478 85.6165 82.396 85.4404L81.9839 84.5944ZM86.805 79.7136C86.5827 79.7136 86.2627 80.0011 85.9156 80.5759C85.6346 80.9507 85.4486 81.388 85.3733 81.8503C85.3709 81.8968 85.3843 81.9426 85.4113 81.9805C85.4573 82.012 85.5133 82.0255 85.5686 82.0184C85.626 82.017 85.682 82.0001 85.7306 81.9696C85.7793 81.9391 85.8189 81.896 85.8451 81.8449L86.0404 81.5195C86.1537 81.4179 86.2606 81.3092 86.3603 81.1941L86.6694 80.8579C86.7824 80.7327 86.874 80.5898 86.9406 80.4349C87.0021 80.3024 87.0336 80.158 87.0328 80.0119C87.0376 79.9357 87.0187 79.8599 86.9786 79.795C86.9632 79.7629 86.9382 79.7363 86.9072 79.7188C86.8761 79.7013 86.8405 79.6939 86.805 79.6974V79.7136Z" fill="black"/>
<path d="M89.5654 84.5929C89.7281 84.3814 89.8854 84.1591 90.0481 83.9313C90.7005 83.4077 91.3033 82.8249 91.8486 82.1905C92.2592 81.7197 92.6024 81.194 92.8681 80.6286L92.7163 79.9019C92.9697 79.537 93.3013 79.2331 93.687 79.0125C94.0518 78.7306 94.487 78.5542 94.9451 78.5028C95.2613 78.4915 95.5704 78.5978 95.8128 78.801C96.0515 79.0071 96.2792 79.2186 96.5016 79.4355C96.5846 79.4864 96.6643 79.5425 96.7402 79.6037C97.1572 79.9245 97.4719 80.3598 97.6459 80.8564C97.8713 81.4767 97.9834 82.1325 97.9767 82.7924C97.926 83.3924 97.7681 83.9783 97.5103 84.5224C97.252 85.0532 97.0921 85.6265 97.0385 86.2144C97.0383 86.2378 97.0431 86.261 97.0524 86.2825C97.0617 86.304 97.0755 86.3233 97.0927 86.3391C97.1336 86.3689 97.1832 86.3841 97.2337 86.3825C97.4038 86.3687 97.567 86.3087 97.7055 86.209C97.9152 86.0685 98.1112 85.9087 98.2912 85.7318C98.587 85.4165 98.91 85.128 99.2565 84.8695C99.3997 84.7869 99.5357 84.6926 99.6632 84.5875C99.7446 84.7881 99.8368 85.0051 99.9507 85.2383C100.065 85.4715 100.168 85.7155 100.265 85.9758L99.9561 86.2632C99.8422 86.3717 99.7066 86.4964 99.5439 86.6374C99.2041 86.8905 98.7594 87.1942 98.2099 87.5485C97.6675 87.9064 97.0059 88.3186 96.2413 88.7795C96.0264 88.9176 95.7926 89.0236 95.5471 89.0941C95.2202 89.1151 94.8934 89.0516 94.5981 88.9097C94.4944 88.8463 94.4102 88.7556 94.3548 88.6475C94.2993 88.5394 94.2746 88.4181 94.2835 88.2969C94.287 88.1661 94.3089 88.0365 94.3486 87.9118C94.3992 87.7498 94.4626 87.592 94.5384 87.44C94.5981 87.3045 94.6631 87.1743 94.7336 87.0387C94.8034 86.9041 94.8632 86.7645 94.9126 86.6211C95.1184 86.0446 95.2887 85.456 95.4224 84.8586C95.5285 84.3776 95.5849 83.887 95.5905 83.3944C95.6142 82.9735 95.5302 82.5536 95.3465 82.1742C95.2693 82.0399 95.1611 81.926 95.0309 81.842C94.9007 81.758 94.7523 81.7064 94.5981 81.6915C94.3403 81.848 94.0987 82.0296 93.8768 82.2339C93.5841 82.4849 93.3154 82.7627 93.0742 83.0636C92.7813 83.4215 92.5319 83.7198 92.2933 83.953C92.1226 84.1327 91.9294 84.2894 91.7184 84.4194C91.5946 84.6075 91.4469 84.7789 91.2791 84.9291C91.0333 85.1597 90.7664 85.3667 90.4819 85.5474L90.3897 85.7318C90.3379 85.831 90.2721 85.9223 90.1945 86.0029C90.1132 85.7697 90.0264 85.542 89.9233 85.3142C89.8203 85.0864 89.6847 84.8369 89.5654 84.5929Z" fill="black"/>
<path d="M99.6036 84.5925C99.647 84.522 99.6958 84.446 99.7609 84.3593L99.9995 84.0502C100.097 83.9688 100.227 83.8549 100.39 83.7031C100.553 83.5512 100.732 83.3777 100.932 83.1608L101.594 82.4124L102.543 81.3278C102.706 81.1596 102.906 80.9427 103.15 80.6716L104.007 79.7171C104.256 79.4122 104.564 79.1612 104.913 78.9796C105.23 78.8175 105.582 78.7338 105.938 78.7355C106.088 78.7232 106.24 78.7479 106.379 78.8074C106.518 78.867 106.64 78.9596 106.735 79.0772C106.928 79.3686 107.019 79.7155 106.995 80.0642C106.955 80.5132 106.868 80.9567 106.735 81.3874C106.567 82.0436 106.301 82.9059 105.938 83.9851L105.683 84.5545C105.63 84.6657 105.588 84.782 105.558 84.9016C105.553 84.9774 105.553 85.0535 105.558 85.1294C105.568 85.2142 105.604 85.2939 105.661 85.3571C105.716 85.3234 105.766 85.2814 105.808 85.2324L105.965 85.0534C106.066 84.8783 106.19 84.7178 106.334 84.5762C106.502 84.4135 106.697 84.2291 106.93 84.0339C107.027 83.8519 107.145 83.6825 107.283 83.5295C107.431 83.3596 107.597 83.2051 107.776 83.0686C107.834 83.0078 107.886 82.9425 107.934 82.8733C108.006 82.7731 108.084 82.6772 108.167 82.5859C108.314 82.4414 108.47 82.3056 108.633 82.1792C108.836 82.0213 109.048 81.8746 109.268 81.7399C109.505 81.6151 109.749 81.5046 110 81.4091C110.172 81.3386 110.356 81.2982 110.542 81.2898C110.835 81.2854 111.122 81.3644 111.372 81.5176C111.635 81.6957 111.848 81.9385 111.99 82.2226C112.191 82.8462 112.38 83.4265 112.565 83.958C112.642 84.2111 112.767 84.4468 112.934 84.6521C112.988 84.7211 113.057 84.7772 113.136 84.8166C113.215 84.8559 113.301 84.8775 113.389 84.8799C113.513 84.8805 113.635 84.8546 113.747 84.804C113.859 84.7484 113.959 84.671 114.04 84.5762L114.642 85.9645L114.1 86.4038C113.915 86.5502 113.742 86.6966 113.557 86.8376C113.366 87.0202 113.146 87.1703 112.907 87.2823C112.708 87.3749 112.491 87.4229 112.272 87.4229C112.053 87.4229 111.836 87.3749 111.638 87.2823C111.424 87.1766 111.238 87.0224 111.095 86.8322C110.98 86.6949 110.88 86.5459 110.797 86.3875C110.672 86.1706 110.537 85.8994 110.374 85.5795C110.213 85.4096 110.064 85.2284 109.929 85.0372L109.349 84.2725L109.213 84.2291C109.022 84.2956 108.839 84.3867 108.671 84.5003C108.46 84.6388 108.26 84.7948 108.075 84.9667C107.779 85.2562 107.449 85.5092 107.093 85.7205C106.927 85.7929 106.787 85.914 106.692 86.0676C106.479 86.4022 106.236 86.7163 105.965 87.0058C105.623 87.3854 105.2 87.8409 104.685 88.3615L104.295 88.7466L103.904 89.1153C103.775 89.2243 103.623 89.3039 103.459 89.3485C103.282 89.3948 103.1 89.4185 102.917 89.419C102.51 89.419 102.293 89.278 102.261 89.0015C102.228 88.7249 102.19 88.4591 102.163 88.1663C102.31 87.7433 102.483 87.2173 102.673 86.5827C102.863 85.9482 103.085 85.2107 103.335 84.3647C103.339 84.2955 103.356 84.2275 103.384 84.164C103.422 84.0773 103.459 83.9634 103.514 83.8224C103.555 83.7126 103.59 83.6003 103.617 83.4862C103.626 83.4033 103.626 83.3196 103.617 83.2367C103.618 83.2046 103.612 83.1726 103.599 83.1434C103.586 83.1141 103.566 83.0885 103.541 83.0686C103.47 83.0239 103.386 83.003 103.302 83.0089C103.154 83.0283 103.014 83.0905 102.901 83.1879C102.686 83.3603 102.488 83.5528 102.31 83.7627C102.028 84.0664 101.8 84.305 101.626 84.4732C101.525 84.5884 101.409 84.6889 101.279 84.7714C101.155 84.8647 101.038 84.9662 100.927 85.0751C100.791 85.2053 100.639 85.3517 100.466 85.509C100.466 85.5524 100.417 85.612 100.379 85.6934C100.324 85.7902 100.258 85.8811 100.184 85.9645C100.125 85.7794 100.054 85.5983 99.9724 85.4222C99.9128 85.1999 99.7826 84.9233 99.6036 84.5925Z" fill="black"/>
<path d="M114.517 83.9306L115.889 83.0249C115.938 82.9761 115.998 82.9056 116.068 82.8189C116.161 82.7037 116.243 82.5803 116.312 82.4501C116.381 82.3224 116.475 82.2099 116.589 82.1193C116.714 82.0268 116.849 81.9468 116.99 81.8807C117.099 81.7477 117.215 81.6209 117.337 81.501C117.489 81.3492 117.679 81.1757 117.912 80.9587C118.021 80.8991 118.162 80.8069 118.335 80.693C118.529 80.5553 118.71 80.401 118.877 80.232C119.616 79.5096 120.423 78.8595 121.285 78.2906C121.796 77.9197 122.398 77.6947 123.026 77.6398C123.234 77.622 123.44 77.6819 123.606 77.8079C123.67 77.8669 123.721 77.9393 123.753 78.0199C123.786 78.1005 123.801 78.1874 123.796 78.2743C123.798 78.4611 123.759 78.6461 123.682 78.8166C123.604 78.9815 123.482 79.122 123.33 79.2233C123.075 79.4023 122.787 79.603 122.511 79.8253C122.331 80.0622 122.135 80.2869 121.925 80.4978C121.672 80.751 121.4 80.9848 121.112 81.1974C121.009 81.3275 120.927 81.4468 120.857 81.5444L120.569 81.8156C120.397 81.9765 120.216 82.1286 120.027 82.2711C119.852 82.5874 119.63 82.8761 119.371 83.128C119.035 83.4895 118.585 83.9125 118.021 84.397C117.884 84.5464 117.759 84.706 117.646 84.8742L116.958 85.9046L117.061 86.0402C117.31 85.9571 117.544 85.8344 117.755 85.6768C118.04 85.4726 118.308 85.2459 118.557 84.9989L119.393 84.2397C119.538 84.1017 119.692 83.9731 119.854 83.8547L120.065 83.7354L120.304 83.5835C120.675 83.114 121.112 82.6995 121.6 82.3525C121.925 82.1137 122.314 81.976 122.717 81.9566C122.812 81.9515 122.906 81.9713 122.991 82.0141C123.076 82.057 123.148 82.1213 123.2 82.2006C123.325 82.4302 123.392 82.6873 123.395 82.949C123.395 83.4534 123.395 83.936 123.395 84.397C123.38 84.7074 123.472 85.0135 123.655 85.2647C123.735 85.3851 123.844 85.4834 123.972 85.5507C124.1 85.618 124.243 85.652 124.387 85.6497C124.481 85.6478 124.572 85.6216 124.653 85.5738C124.746 85.518 124.834 85.4526 124.913 85.3786L125.119 85.1183L125.32 84.8796C125.381 84.8481 125.439 84.8118 125.494 84.7712C125.574 84.7196 125.648 84.6596 125.716 84.5922C125.857 84.8959 125.971 85.1345 126.068 85.384C126.154 85.5779 126.226 85.7772 126.285 85.9805C126.058 86.192 125.83 86.409 125.602 86.6367C125.374 86.8645 125.136 87.076 124.886 87.2767C124.619 87.4966 124.324 87.679 124.008 87.819C123.742 87.9314 123.456 87.9904 123.167 87.9925C122.892 88.0132 122.615 87.9756 122.355 87.8821C122.096 87.7887 121.859 87.6415 121.659 87.4502C121.268 86.9746 121.05 86.3797 121.041 85.7636C121.042 85.6683 121.029 85.5734 121.003 85.4816C120.969 85.3752 120.916 85.276 120.846 85.1888L120.678 85.346C120.618 85.4003 120.548 85.4762 120.466 85.563L119.978 85.9426C119.783 86.0944 119.55 86.2734 119.29 86.4849C118.937 86.8482 118.644 87.1411 118.4 87.3743C118.156 87.6075 117.988 87.7702 117.89 87.8732C117.668 88.0597 117.432 88.23 117.185 88.383C116.92 88.5565 116.643 88.73 116.291 88.9253C116.079 89.0337 115.9 89.1205 115.748 89.1856C115.645 89.2376 115.533 89.2707 115.417 89.2832C115.222 89.3012 115.025 89.2793 114.839 89.2187C114.652 89.1581 114.48 89.0601 114.333 88.9307C114.084 88.6265 113.961 88.2381 113.991 87.8461C113.989 87.5766 114.047 87.31 114.159 87.0652C114.3 86.7988 114.483 86.557 114.702 86.3493C114.721 86.2455 114.732 86.1403 114.734 86.0348C114.734 85.9801 114.721 85.9263 114.696 85.8775L114.599 85.6877L114.393 85.2104C114.317 85.0369 114.235 84.8471 114.143 84.6681C114.211 84.5981 114.269 84.5197 114.317 84.4349C114.327 84.2451 114.42 84.0987 114.517 83.9306Z" fill="black"/>
<path d="M125.635 84.5925L125.694 84.4732L125.927 84.1695L126.269 83.7465C127.036 83.0221 127.735 82.2288 128.357 81.3766C129.095 80.3617 129.767 79.3002 130.369 78.1987C130.469 78.0605 130.56 77.9156 130.64 77.7648C130.743 77.5804 130.852 77.3581 130.971 77.0869C130.974 77.0625 130.972 77.0376 130.965 77.0141C130.957 76.9906 130.945 76.9692 130.927 76.9513C130.907 76.9335 130.883 76.92 130.856 76.9117C130.83 76.9033 130.803 76.9002 130.776 76.9025C130.676 76.9085 130.578 76.9267 130.483 76.9568C130.382 76.9853 130.278 77.0035 130.174 77.011H128.286H127.891H127.489L127.213 76.8808L126.963 76.7724C126.858 76.7409 126.761 76.6852 126.681 76.6097C126.65 76.5797 126.625 76.5435 126.608 76.5033C126.591 76.4632 126.583 76.42 126.584 76.3765C126.563 75.8764 126.633 75.3767 126.79 74.9014C126.925 74.5598 127.131 74.3591 127.413 74.3591C127.695 74.3591 127.956 74.3591 128.205 74.3971C128.455 74.435 128.671 74.4567 128.861 74.4947L129.284 74.4079C129.555 74.4079 129.789 74.4079 129.978 74.4079C130.126 74.4231 130.273 74.4485 130.418 74.4838L130.803 74.4025L131.215 74.3211L131.714 74.4676C132.066 74.4296 132.441 73.9253 132.842 72.9925C133.243 72.0597 133.661 71.577 134.116 71.577C134.217 71.5719 134.319 71.5892 134.412 71.6277C134.506 71.6661 134.59 71.7247 134.659 71.7994C134.807 71.9969 134.876 72.2423 134.854 72.4881C134.835 72.8009 134.765 73.1086 134.648 73.3992C134.54 73.6739 134.462 73.9593 134.415 74.2506L134.496 74.3808C134.544 74.4373 134.597 74.4898 134.653 74.5381C134.719 74.5862 134.764 74.6582 134.778 74.7387C134.806 74.8558 134.819 74.9762 134.816 75.0966C134.825 75.5626 134.797 76.0286 134.734 76.4904C134.68 76.8158 134.588 76.9839 134.469 76.9947L133.449 77.2062C133.449 77.3038 133.4 77.4286 133.373 77.575C133.346 77.7214 133.303 77.8895 133.254 78.0793C133.08 78.5837 132.891 79.2182 132.679 79.9937C132.468 80.7692 132.229 81.6857 131.969 82.7378C131.806 83.5838 131.681 84.2671 131.595 84.7877C131.531 85.1374 131.49 85.4905 131.47 85.8452C131.46 85.9711 131.486 86.0972 131.546 86.2086C131.569 86.2461 131.602 86.2768 131.641 86.2977C131.68 86.3186 131.724 86.329 131.768 86.3279C132.009 86.2176 132.231 86.0693 132.424 85.8886C132.804 85.5958 133.33 85.1673 134.002 84.5925L134.588 85.9808C134.457 86.1209 134.315 86.2513 134.165 86.3713C133.959 86.5438 133.743 86.7049 133.52 86.8539C133.4 86.9834 133.273 87.1065 133.14 87.2227C132.994 87.3583 132.826 87.5156 132.647 87.6999C132.468 87.8843 132.283 88.1012 132.104 88.3019C131.925 88.5026 131.752 88.6978 131.562 88.8876C131.36 89.1081 131.122 89.2917 130.857 89.4299C130.656 89.5363 130.433 89.5956 130.206 89.6034C130.022 89.6179 129.838 89.5896 129.666 89.521C129.495 89.4523 129.342 89.3451 129.219 89.2076C128.977 88.8612 128.862 88.4415 128.894 88.0199C128.894 87.4342 128.894 86.9353 128.953 86.5014C128.982 86.1521 129.048 85.8067 129.149 85.471C129.185 85.4029 129.215 85.3322 129.241 85.2595C129.245 85.1228 129.261 84.9866 129.29 84.8528C129.317 84.6793 129.355 84.4786 129.393 84.2508C129.452 83.855 129.517 83.4645 129.588 83.074C129.702 82.83 129.816 82.5751 129.935 82.3039C129.935 82.2551 129.897 82.2063 129.816 82.1684L129.664 82.2606C129.49 82.5292 129.294 82.7831 129.078 83.0198C128.814 83.3209 128.534 83.607 128.238 83.8766C127.728 84.3702 127.202 84.8691 126.67 85.3734C126.618 85.4505 126.562 85.5247 126.502 85.5958C126.426 85.6988 126.334 85.8235 126.231 85.9754C126.182 85.8561 126.117 85.6988 126.047 85.5144C125.976 85.33 125.889 85.1131 125.813 84.8745C125.791 84.817 125.766 84.7609 125.738 84.7064C125.71 84.6629 125.675 84.6244 125.635 84.5925Z" fill="black"/>
<path d="M133.981 84.5905L134.073 84.4875L134.116 84.3357C134.542 83.8029 135.022 83.3158 135.548 82.8823C136.075 82.4507 136.551 81.9614 136.969 81.4234C137.053 81.2798 137.172 81.1602 137.316 81.0764C137.435 81.0095 137.57 80.9741 137.706 80.9733C138.024 80.9615 138.337 81.0549 138.596 81.2391C138.85 81.433 139.023 81.7157 139.078 82.0308C139.149 82.34 139.214 82.6545 139.274 82.969C139.333 83.2836 139.388 83.6035 139.426 83.9289C139.496 84.1296 139.583 84.4333 139.68 84.84C139.726 85.0821 139.802 85.3173 139.908 85.5396C139.955 85.6387 140.036 85.7176 140.136 85.7619C140.255 85.8092 140.382 85.8314 140.51 85.827C140.695 85.824 140.878 85.7911 141.052 85.7294C141.266 85.6505 141.464 85.5349 141.638 85.3877L142.115 84.9918L142.603 84.5905L143.211 85.9789C143.007 86.1723 142.791 86.3534 142.565 86.5212C142.3 86.7272 141.98 86.9659 141.611 87.237C141.269 87.4914 140.906 87.7164 140.526 87.9095C140.324 88.0287 140.098 88.1027 139.865 88.1264C139.254 88.1915 138.637 88.0825 138.086 87.8119C137.649 87.3041 137.339 86.7001 137.18 86.0494C137.128 85.9489 137.069 85.8528 137.001 85.7619C136.92 85.6535 136.828 85.5179 136.73 85.3715C136.64 85.1815 136.533 85 136.41 84.8292C136.323 84.7099 136.248 84.6556 136.188 84.6556C135.942 84.6937 135.715 84.8074 135.537 84.981C135.18 85.2766 134.848 85.6013 134.545 85.9517C134.49 85.8216 134.431 85.6643 134.355 85.4854C134.279 85.3064 134.203 85.0895 134.122 84.8509C134.1 84.7934 134.074 84.7372 134.046 84.6827C134.028 84.6495 134.006 84.6185 133.981 84.5905ZM140.277 72.6977C140.469 72.6833 140.66 72.7349 140.819 72.8441C140.879 72.8995 140.926 72.9678 140.956 73.0438C140.986 73.1199 140.999 73.2018 140.993 73.2834C140.933 73.5654 140.879 73.8257 140.841 73.9938C140.743 74.3517 140.651 74.65 140.575 74.8832C140.499 75.1164 140.445 75.2791 140.407 75.3767C140.32 75.5919 140.193 75.7888 140.033 75.957C139.875 76.1314 139.693 76.2813 139.491 76.4017C139.31 76.5353 139.115 76.6498 138.91 76.7433C138.81 76.796 138.698 76.8239 138.585 76.8247L138.097 76.7758C137.943 76.7679 137.789 76.7679 137.636 76.7758C137.486 76.6833 137.376 76.5383 137.327 76.3691C137.242 76.1067 137.203 75.8314 137.213 75.5557C137.268 75.1282 137.458 74.7293 137.755 74.4168C137.977 74.0613 138.323 73.8005 138.726 73.6847L139.328 72.9634C139.449 72.8835 139.583 72.8248 139.724 72.7899C139.903 72.7348 140.089 72.7038 140.277 72.6977Z" fill="black"/>
<path d="M142.609 84.5929C142.69 84.5079 142.763 84.4153 142.826 84.3163C142.902 84.197 142.989 84.0723 143.092 83.9313L144.252 83.1287C144.454 82.8973 144.669 82.6781 144.897 82.4725L145.982 81.5018C146.053 81.3656 146.136 81.2367 146.232 81.1167C146.358 80.962 146.498 80.8187 146.649 80.6883C146.79 80.5581 146.931 80.4334 147.072 80.3195C147.213 80.2056 147.343 80.0917 147.463 79.9779C147.582 79.864 147.755 79.6796 147.891 79.5277C148.027 79.3759 148.162 79.2295 148.303 79.0885C148.454 78.9567 148.622 78.8455 148.802 78.7577C148.972 78.679 149.157 78.6383 149.344 78.6384C149.516 78.6294 149.688 78.6571 149.849 78.7197C149.899 78.7373 149.943 78.7683 149.977 78.8095C150.01 78.8507 150.032 78.9003 150.039 78.9529C149.935 79.1861 149.832 79.4193 149.724 79.6471L149.811 79.7826C150.255 79.6127 150.603 79.488 150.852 79.4084C151.008 79.3497 151.17 79.3096 151.335 79.2891C151.639 79.2695 151.943 79.3194 152.225 79.4349C152.507 79.5505 152.759 79.7288 152.962 79.9562C153.369 80.5502 153.561 81.2662 153.504 81.9844C153.5 82.1863 153.48 82.3877 153.444 82.5864C153.409 82.8387 153.358 83.0887 153.292 83.3348C153.208 83.5956 153.099 83.848 152.967 84.0886C152.882 84.251 152.772 84.3992 152.642 84.5278C152.669 84.6278 152.715 84.7217 152.777 84.8044C152.801 84.8331 152.831 84.8558 152.865 84.8709C152.898 84.8859 152.935 84.8929 152.972 84.8912C153.061 84.8879 153.147 84.8618 153.222 84.8153C153.332 84.7495 153.436 84.6732 153.531 84.5875C153.634 84.8099 153.732 85.0376 153.824 85.2762C153.916 85.5149 154.019 85.7426 154.122 85.9758L153.58 86.4422C153.412 86.5941 153.227 86.7405 153.038 86.8815C152.84 87.0503 152.619 87.1892 152.381 87.2936C152.19 87.3775 151.983 87.4218 151.774 87.4238C151.569 87.4329 151.367 87.3738 151.199 87.2557C151.039 87.1349 150.914 86.974 150.836 86.7893C150.574 87.1323 150.268 87.4387 149.925 87.7004C149.351 88.1115 148.721 88.4366 148.054 88.6657C147.879 88.7248 147.696 88.7577 147.511 88.7633C147.412 88.7738 147.314 88.7938 147.219 88.823C147.104 88.8592 146.986 88.8793 146.866 88.8826C146.57 88.8784 146.279 88.8121 146.011 88.6878C145.743 88.5635 145.504 88.3841 145.31 88.1613C145.092 87.9498 144.918 87.697 144.799 87.4176C144.68 87.1383 144.617 86.8381 144.615 86.5344C144.631 86.2105 144.688 85.8898 144.784 85.5799C144.856 85.3512 144.91 85.1173 144.946 84.8804C144.948 84.8485 144.942 84.8168 144.931 84.787C144.92 84.7572 144.903 84.7299 144.881 84.7068C144.856 84.6822 144.827 84.6631 144.794 84.6509C144.761 84.6388 144.726 84.6338 144.691 84.6363C144.557 84.6862 144.435 84.7638 144.333 84.8641L143.531 85.504C143.493 85.5632 143.458 85.6248 143.428 85.6884C143.374 85.7864 143.308 85.8775 143.233 85.9595C143.151 85.7264 143.059 85.4932 142.961 85.26C142.864 85.0268 142.728 84.8153 142.609 84.5929ZM149.86 81.8326C149.774 81.8683 149.697 81.9241 149.637 81.9953C149.533 82.1031 149.441 82.2212 149.361 82.3478C149.22 82.5755 149.057 82.8304 148.878 83.1016C148.778 83.2138 148.658 83.3074 148.525 83.3782C148.39 83.4463 148.246 83.4956 148.097 83.5246C147.994 83.5246 147.891 83.633 147.777 83.8174C147.637 84.0737 147.526 84.3447 147.446 84.6255C147.351 84.8863 147.272 85.1525 147.208 85.4227C147.162 85.5999 147.136 85.7819 147.132 85.965C147.123 86.0795 147.137 86.1946 147.173 86.3036C147.21 86.4125 147.268 86.5131 147.343 86.5995C147.431 86.676 147.534 86.7342 147.645 86.7705C147.755 86.8069 147.872 86.8206 147.989 86.811C148.442 86.8127 148.886 86.6786 149.263 86.4259C149.695 86.1136 150.063 85.7215 150.348 85.2708L150.798 84.7285C150.891 84.6525 150.959 84.5505 150.993 84.4357C151.053 84.2704 151.103 84.102 151.145 83.9313L151.416 83.069C151.345 82.8258 151.26 82.5868 151.161 82.3532C151.114 82.2228 151.029 82.1095 150.917 82.0278C150.811 81.9825 150.7 81.9498 150.586 81.9302C150.429 81.9139 150.18 81.876 149.86 81.8326Z" fill="black"/>
<path d="M153.509 84.5922C153.556 84.5109 153.609 84.4329 153.667 84.3591L153.9 84.0499C154.003 83.9686 154.133 83.8547 154.29 83.7029C154.447 83.551 154.632 83.3775 154.833 83.1605C155.033 82.9436 155.234 82.7104 155.5 82.4122L156.449 81.3275L157.051 80.6713L157.907 79.7169C158.156 79.412 158.464 79.161 158.813 78.9793C159.131 78.8184 159.482 78.7348 159.838 78.7353C159.989 78.7235 160.141 78.7483 160.281 78.8078C160.421 78.8673 160.544 78.9596 160.641 79.077C160.829 79.376 160.914 79.7282 160.885 80.0802C160.844 80.5288 160.759 80.9721 160.63 81.4035C160.456 82.0597 160.191 82.9219 159.827 84.0011C159.74 84.2018 159.654 84.3916 159.572 84.5706C159.518 84.6808 159.478 84.7974 159.453 84.9176C159.435 84.9924 159.424 85.0686 159.42 85.1454C159.433 85.2306 159.47 85.3101 159.529 85.3732C159.582 85.3393 159.63 85.2972 159.67 85.2484L159.827 85.0695C159.928 84.8944 160.052 84.7338 160.196 84.5922C160.364 84.4296 160.565 84.2452 160.793 84.0499C160.891 83.8678 161.011 83.6985 161.15 83.5456C161.297 83.3757 161.461 83.2212 161.639 83.0846C161.696 83.0238 161.749 82.9586 161.796 82.8894C161.861 82.7972 161.942 82.705 162.029 82.602C162.176 82.4575 162.332 82.3217 162.495 82.1952C162.68 82.0542 162.891 81.9078 163.13 81.756C163.367 81.6311 163.612 81.5207 163.862 81.4252C164.035 81.3546 164.218 81.3142 164.404 81.3058C164.697 81.2999 164.985 81.379 165.234 81.5336C165.5 81.7087 165.713 81.9523 165.852 82.2386C166.053 82.8623 166.243 83.4426 166.427 83.974C166.504 84.2271 166.629 84.4629 166.796 84.6682C166.851 84.7378 166.921 84.7944 167.001 84.8338C167.081 84.8731 167.168 84.8944 167.257 84.8959C167.38 84.8969 167.502 84.8701 167.614 84.8175C167.726 84.7649 167.824 84.688 167.902 84.5922L168.504 85.9806L167.962 86.4198L167.42 86.8537C167.228 87.0362 167.008 87.1864 166.769 87.2984C166.579 87.3827 166.374 87.427 166.167 87.4285C165.937 87.4298 165.711 87.3779 165.505 87.2767C165.29 87.1738 165.104 87.0191 164.963 86.8266C164.844 86.6911 164.742 86.5418 164.659 86.3819C164.54 86.165 164.399 85.8938 164.236 85.5738C164.077 85.4025 163.928 85.2213 163.791 85.0315L163.211 84.2669L163.076 84.2235C162.884 84.2899 162.702 84.3811 162.533 84.4946C162.323 84.6345 162.123 84.7904 161.937 84.961C161.642 85.25 161.315 85.503 160.961 85.7148C160.794 85.7875 160.652 85.9084 160.554 86.0619C160.342 86.3955 160.1 86.7094 159.833 87.0001C159.491 87.3797 159.063 87.8353 158.553 88.3559L158.157 88.7409L157.766 89.1097C157.637 89.2197 157.486 89.2994 157.322 89.3429C157.145 89.3896 156.962 89.4133 156.779 89.4134C156.378 89.4134 156.156 89.2724 156.123 88.9958C156.091 88.7192 156.053 88.4535 156.026 88.1607C156.177 87.7376 156.346 87.2116 156.535 86.5771C156.725 85.9426 156.948 85.2051 157.197 84.3591C157.201 84.2891 157.219 84.2208 157.251 84.1584C157.284 84.0716 157.327 83.9577 157.376 83.8167C157.42 83.7078 157.454 83.5953 157.479 83.4805C157.499 83.3988 157.51 83.3151 157.512 83.231C157.512 83.1992 157.505 83.1676 157.492 83.1385C157.479 83.1095 157.46 83.0837 157.436 83.0629C157.363 83.0174 157.277 82.9965 157.192 83.0033C157.045 83.0231 156.907 83.0853 156.796 83.1822C156.578 83.3528 156.378 83.5454 156.199 83.7571C155.917 84.0608 155.689 84.2994 155.521 84.4675C155.418 84.5802 155.301 84.6803 155.174 84.7658C155.047 84.8574 154.927 84.959 154.816 85.0695L154.361 85.5033C154.361 85.5467 154.306 85.6064 154.269 85.6877C154.217 85.7869 154.151 85.8782 154.073 85.9589C154.017 85.773 153.946 85.5916 153.862 85.4166L153.509 84.5922Z" fill="black"/>
<path d="M168.401 83.9306L169.773 83.0249C169.839 82.9608 169.901 82.8919 169.957 82.8189C170.05 82.7047 170.13 82.5811 170.196 82.4501C170.266 82.321 170.362 82.2082 170.478 82.1193C170.602 82.0268 170.734 81.9468 170.874 81.8807C170.955 81.7776 171.075 81.6529 171.221 81.501C171.367 81.3492 171.563 81.1757 171.796 80.9587C171.904 80.8991 172.045 80.8069 172.219 80.693C172.413 80.5552 172.594 80.401 172.761 80.232C173.497 79.5086 174.302 78.8584 175.164 78.2906C175.674 77.9197 176.276 77.6947 176.904 77.6398C177.112 77.622 177.319 77.6819 177.485 77.8079C177.549 77.8669 177.599 77.9393 177.632 78.0199C177.665 78.1005 177.679 78.1874 177.675 78.2743C177.676 78.4611 177.637 78.6461 177.561 78.8166C177.482 78.9815 177.36 79.122 177.208 79.2233C176.955 79.4005 176.684 79.6012 176.395 79.8253C176.211 80.0609 176.014 80.2854 175.804 80.4978C175.553 80.7536 175.281 80.9876 174.99 81.1974L174.735 81.5444L174.448 81.8156C174.275 81.9765 174.094 82.1286 173.906 82.2711C173.732 82.5886 173.511 82.8776 173.249 83.128C172.913 83.4895 172.463 83.9125 171.899 84.397C171.762 84.5464 171.637 84.706 171.525 84.8742L170.814 85.8721L170.923 86.0076C171.172 85.9234 171.406 85.8008 171.617 85.6443C171.899 85.4384 172.166 85.2118 172.414 84.9664L173.249 84.2072C173.395 84.0692 173.549 83.9406 173.71 83.8221L173.922 83.7028L174.16 83.551C174.534 83.0811 174.972 82.6666 175.462 82.3199C175.786 82.0816 176.172 81.9439 176.574 81.924C176.668 81.9189 176.763 81.9388 176.848 81.9816C176.932 82.0244 177.004 82.0887 177.056 82.1681C177.187 82.3957 177.254 82.6541 177.252 82.9165C177.252 83.4208 177.224 83.9035 177.224 84.3644C177.21 84.6749 177.302 84.9809 177.485 85.2321C177.566 85.3515 177.675 85.4491 177.803 85.5162C177.93 85.5834 178.073 85.618 178.217 85.6172C178.311 85.6152 178.402 85.5891 178.483 85.5413C178.578 85.4857 178.667 85.4202 178.748 85.346L178.949 85.0857L179.155 84.8471C179.215 84.8143 179.273 84.778 179.329 84.7386C179.407 84.687 179.48 84.627 179.546 84.5597C179.687 84.8634 179.806 85.102 179.898 85.3515C179.982 85.5464 180.057 85.7455 180.12 85.948C179.887 86.1595 179.659 86.3764 179.432 86.6042C179.204 86.832 178.965 87.0435 178.716 87.2441C178.451 87.4636 178.157 87.6461 177.843 87.7864C177.575 87.8983 177.287 87.9573 176.997 87.96C176.721 87.98 176.445 87.9421 176.185 87.8486C175.926 87.7552 175.688 87.6084 175.489 87.4177C175.097 86.942 174.879 86.3472 174.871 85.7311C174.871 85.6358 174.858 85.5409 174.833 85.4491C174.803 85.3408 174.749 85.2407 174.676 85.1562C174.627 85.205 174.573 85.2593 174.507 85.3135C174.435 85.3821 174.366 85.4545 174.301 85.5304L173.808 85.91L173.125 86.4523C172.772 86.8157 172.474 87.1085 172.235 87.3417L171.72 87.8407C171.498 88.0259 171.265 88.1962 171.02 88.3504C170.755 88.524 170.478 88.6975 170.12 88.8927C169.909 89.0012 169.73 89.088 169.578 89.153C169.475 89.2058 169.362 89.2388 169.247 89.2507C169.052 89.27 168.855 89.2487 168.668 89.188C168.481 89.1273 168.309 89.0287 168.162 88.8982C167.909 88.5962 167.784 88.2066 167.815 87.8135C167.815 87.5437 167.875 87.2771 167.989 87.0326C168.126 86.7638 168.31 86.5214 168.531 86.3168C168.546 86.2125 168.555 86.1075 168.558 86.0022C168.558 85.9476 168.545 85.8937 168.52 85.845C168.493 85.7791 168.461 85.7156 168.423 85.6551L168.222 85.1779C168.146 85.0044 168.065 84.8146 167.973 84.6356C168.037 84.5626 168.095 84.4847 168.146 84.4024C168.217 84.2451 168.303 84.0987 168.401 83.9306Z" fill="black"/>
<path d="M179.513 84.5916C179.617 84.4789 179.708 84.3552 179.784 84.2228C179.893 84.0545 180.014 83.895 180.148 83.7456L181.145 82.8724C181.164 82.8584 181.18 82.8405 181.191 82.8199C181.202 82.7993 181.209 82.7765 181.21 82.7531C181.214 82.6827 181.214 82.6121 181.21 82.5416C181.204 82.4355 181.187 82.3302 181.162 82.2271C181.181 81.8376 181.226 81.4499 181.297 81.0666C181.332 80.7296 181.414 80.3991 181.541 80.085L181.449 79.7975C181.579 79.1251 181.764 78.3875 181.991 77.5903C182.219 76.7931 182.501 75.9255 182.799 74.9873C182.919 74.7916 183.025 74.5888 183.119 74.3799C183.228 74.1304 183.353 73.8376 183.494 73.5393C183.683 72.9825 183.91 72.439 184.172 71.9124C184.454 71.37 184.768 70.7518 185.121 70.1498C185.479 69.507 185.898 68.9004 186.373 68.3385C186.49 68.1769 186.638 68.0404 186.809 67.937C186.979 67.8336 187.168 67.7655 187.366 67.7366C187.794 67.6895 188.223 67.81 188.564 68.0728C188.819 68.446 188.933 68.8979 188.884 69.3472C188.875 69.5983 188.848 69.8484 188.803 70.0956C188.757 70.3464 188.73 70.6001 188.721 70.8548C188.705 71.1046 188.649 71.3501 188.553 71.5815C188.452 71.856 188.397 72.1457 188.391 72.4384C188.378 72.5231 188.352 72.6054 188.315 72.6824V72.8939C188.271 73.0349 188.212 73.2031 188.13 73.4037C188.049 73.6044 187.946 73.8484 187.816 74.1304C187.686 74.4124 187.653 74.6727 187.545 75.0035C187.436 75.3343 187.301 75.6977 187.149 76.0881C187.089 76.1912 187.013 76.3105 186.916 76.4569L186.606 76.9504C186.571 77.1045 186.522 77.2551 186.46 77.4005C186.39 77.5686 186.292 77.7747 186.173 78.0025C186.103 78.1399 186.022 78.2706 185.929 78.393C185.831 78.534 185.706 78.7183 185.571 78.9353C185.495 79.0549 185.428 79.1799 185.37 79.3095L185.131 79.8518C185.023 80.0199 184.877 80.2314 184.692 80.4809C184.508 80.7303 184.307 81.0232 184.074 81.3702C183.765 81.9126 183.445 82.4549 183.109 82.9538C183.055 83.735 183.259 84.5122 183.689 85.1664C183.901 85.4191 184.169 85.618 184.473 85.7472C184.776 85.8763 185.106 85.9319 185.435 85.9094C185.588 85.8883 185.738 85.8538 185.885 85.8063C186.135 85.7358 186.482 85.622 186.926 85.4755C187.089 85.3714 187.245 85.2573 187.393 85.1339L188.011 84.5916L188.597 85.9799C188.336 86.2131 188.054 86.4463 187.816 86.6903C187.577 86.9344 187.274 87.1675 187.013 87.3953C186.729 87.6414 186.409 87.8426 186.064 87.9919C185.765 88.124 185.442 88.1941 185.115 88.1979C184.952 88.1979 184.708 88.1979 184.378 88.1437C184.127 88.1122 183.876 88.0941 183.624 88.0895C183.355 88.0935 183.088 88.0342 182.846 87.9165C182.604 87.7988 182.393 87.6258 182.23 87.4116C181.801 86.8114 181.534 86.1111 181.455 85.3779C181.436 85.2931 181.407 85.2111 181.368 85.1339C181.32 85.0447 181.258 84.9641 181.183 84.8953C181.048 85.0254 180.896 85.1773 180.722 85.3616C180.549 85.546 180.332 85.7467 180.082 85.9799L179.513 84.5916ZM186.704 72.7584L186.601 72.6987C186.111 73.152 185.682 73.668 185.327 74.2334C185.057 74.6533 184.909 75.1393 184.898 75.638C184.884 75.7599 184.852 75.8789 184.801 75.9905C184.736 76.1586 184.638 76.3701 184.508 76.6305C184.378 76.8908 184.177 77.2866 184.009 77.6554C183.819 78.1977 183.673 78.675 183.57 79.0275C183.49 79.2721 183.439 79.525 183.418 79.7813L183.51 79.9006C183.602 79.9006 183.711 79.803 183.841 79.6294C184.014 79.3918 184.166 79.1396 184.296 78.8756C184.395 78.6571 184.511 78.4467 184.643 78.2465C184.79 78.0025 184.963 77.7042 185.153 77.3843C185.465 76.8434 185.723 76.273 185.923 75.6814C186.164 75.1168 186.356 74.5326 186.498 73.9352C186.506 73.7342 186.533 73.5344 186.579 73.3386C186.623 73.1434 186.666 72.9482 186.704 72.7584Z" fill="black"/>
</g>
<defs>
<linearGradient id="paint0_linear_428_11272" x1="133.595" y1="102.306" x2="120.89" y2="23.0062" gradientUnits="userSpaceOnUse">
<stop stop-color="#EDF2F8"/>
<stop offset="0.07" stop-color="#D0E2EF"/>
<stop offset="0.2" stop-color="#99C5DE"/>
<stop offset="0.34" stop-color="#6AABCF"/>
<stop offset="0.48" stop-color="#4497C3"/>
<stop offset="0.62" stop-color="#2687BA"/>
<stop offset="0.75" stop-color="#117BB3"/>
<stop offset="0.88" stop-color="#0474AF"/>
<stop offset="1" stop-color="#0072AE"/>
</linearGradient>
<clipPath id="clip0_428_11272">
<rect width="214.581" height="84.6059" fill="white" transform="translate(19.884 19.8848)"/>
</clipPath>
</defs>
</svg>
