<svg width="119" height="39" viewBox="0 0 119 39" fill="none" xmlns="http://www.w3.org/2000/svg">
<path d="M15.0841 13.348C14.8041 13.348 14.5721 13.224 14.3881 12.976C14.2121 12.72 14.1241 12.268 14.1241 11.62C14.1241 10.94 14.1361 10.28 14.1601 9.64C14.1841 8.992 14.2281 8.412 14.2921 7.9C14.3641 7.388 14.4601 6.98 14.5801 6.676C14.7001 6.372 14.8561 6.22 15.0481 6.22C15.1841 6.22 15.3041 6.296 15.4081 6.448C15.5121 6.592 15.5641 6.784 15.5641 7.024C15.5641 7.272 15.5401 7.604 15.4921 8.02C15.4441 8.436 15.3841 8.884 15.3121 9.364C15.2481 9.836 15.1921 10.296 15.1441 10.744C15.0961 11.184 15.0721 11.556 15.0721 11.86C15.0721 11.988 15.0761 12.092 15.0841 12.172C15.1001 12.244 15.1241 12.28 15.1561 12.28C15.2761 12.28 15.4041 12.176 15.5401 11.968C15.6841 11.752 15.8361 11.472 15.9961 11.128C16.1561 10.776 16.3241 10.392 16.5001 9.976C16.6761 9.552 16.8561 9.132 17.0401 8.716C17.2241 8.3 17.4121 7.92 17.6041 7.576C17.7961 7.224 17.9881 6.944 18.1801 6.736C18.3721 6.52 18.5601 6.412 18.7441 6.412C18.9601 6.412 19.1601 6.516 19.3441 6.724C19.5361 6.924 19.6321 7.212 19.6321 7.588C19.6321 7.7 19.6161 7.896 19.5841 8.176C19.5521 8.448 19.5121 8.76 19.4641 9.112C19.4161 9.464 19.3681 9.816 19.3201 10.168C19.2721 10.512 19.2321 10.82 19.2001 11.092C19.1681 11.356 19.1521 11.544 19.1521 11.656C19.1521 12.072 19.1921 12.28 19.2721 12.28C19.4961 12.28 19.7321 12.14 19.9801 11.86C20.2361 11.572 20.4921 11.204 20.7481 10.756C21.0121 10.3 21.2721 9.808 21.5281 9.28C21.7921 8.744 22.0441 8.232 22.2841 7.744C22.3961 7.488 22.4881 7.316 22.5601 7.228C22.6401 7.132 22.7201 7.084 22.8001 7.084C22.9121 7.084 23.0161 7.144 23.1121 7.264C23.2161 7.384 23.2681 7.548 23.2681 7.756C23.2681 7.828 23.2641 7.9 23.2561 7.972C23.2481 8.036 23.2281 8.108 23.1961 8.188C22.9241 8.908 22.6321 9.576 22.3201 10.192C22.0081 10.8 21.6881 11.332 21.3601 11.788C21.0401 12.236 20.7241 12.588 20.4121 12.844C20.1001 13.092 19.8121 13.216 19.5481 13.216C19.0921 13.216 18.7361 13.088 18.4801 12.832C18.2321 12.568 18.1081 12.216 18.1081 11.776C18.1081 11.592 18.1201 11.352 18.1441 11.056C18.1761 10.76 18.2121 10.44 18.2521 10.096C18.3001 9.752 18.3481 9.42 18.3961 9.1C18.4441 8.78 18.4841 8.5 18.5161 8.26C18.5561 8.02 18.5801 7.856 18.5881 7.768C18.5961 7.656 18.5841 7.6 18.5521 7.6C18.5201 7.6 18.4561 7.704 18.3601 7.912C18.2721 8.112 18.1641 8.368 18.0361 8.68C17.9161 8.984 17.7881 9.3 17.6521 9.628C17.5001 9.988 17.3241 10.384 17.1241 10.816C16.9321 11.24 16.7241 11.644 16.5001 12.028C16.2841 12.412 16.0561 12.728 15.8161 12.976C15.5761 13.224 15.3321 13.348 15.0841 13.348ZM24.611 13.54C24.435 13.54 24.299 13.488 24.203 13.384C24.107 13.288 24.059 13.044 24.059 12.652C24.059 12.292 24.123 11.824 24.251 11.248C24.379 10.664 24.551 10.016 24.767 9.304C24.983 8.592 25.227 7.856 25.499 7.096C25.771 6.328 26.055 5.576 26.351 4.84C26.655 4.096 26.947 3.416 27.227 2.8C27.331 2.576 27.439 2.42 27.551 2.332C27.663 2.244 27.795 2.2 27.947 2.2C28.051 2.2 28.139 2.232 28.211 2.296C28.291 2.352 28.331 2.448 28.331 2.584C28.331 2.632 28.279 2.788 28.175 3.052C28.079 3.316 27.943 3.664 27.767 4.096C27.599 4.528 27.411 5.012 27.203 5.548C26.995 6.084 26.783 6.648 26.567 7.24C26.351 7.832 26.147 8.428 25.955 9.028C25.763 9.62 25.599 10.188 25.463 10.732C25.327 11.276 25.235 11.764 25.187 12.196C25.379 11.964 25.599 11.668 25.847 11.308C26.095 10.948 26.359 10.56 26.639 10.144C26.919 9.728 27.203 9.316 27.491 8.908C27.779 8.5 28.063 8.128 28.343 7.792C28.623 7.456 28.883 7.188 29.123 6.988C29.371 6.78 29.587 6.676 29.771 6.676C30.075 6.676 30.319 6.772 30.503 6.964C30.695 7.148 30.791 7.452 30.791 7.876C30.791 8.116 30.743 8.404 30.647 8.74C30.559 9.076 30.455 9.428 30.335 9.796C30.215 10.164 30.107 10.516 30.011 10.852C29.923 11.188 29.879 11.476 29.879 11.716C29.879 12.044 30.003 12.208 30.251 12.208C30.635 12.208 31.019 12.124 31.403 11.956C31.795 11.788 32.167 11.58 32.519 11.332C32.871 11.076 33.195 10.82 33.491 10.564C33.787 10.3 34.039 10.076 34.247 9.892C34.471 9.692 34.659 9.592 34.811 9.592C35.003 9.592 35.099 9.692 35.099 9.892C35.099 9.948 35.087 10.012 35.063 10.084C35.039 10.156 34.975 10.248 34.871 10.36C34.743 10.504 34.559 10.692 34.319 10.924C34.087 11.156 33.815 11.404 33.503 11.668C33.199 11.932 32.867 12.18 32.507 12.412C32.155 12.644 31.791 12.836 31.415 12.988C31.047 13.132 30.687 13.204 30.335 13.204C29.855 13.204 29.483 13.068 29.219 12.796C28.963 12.516 28.835 12.132 28.835 11.644C28.835 11.34 28.883 10.972 28.979 10.54C29.075 10.108 29.195 9.652 29.339 9.172C29.491 8.684 29.643 8.208 29.795 7.744C29.539 7.92 29.259 8.184 28.955 8.536C28.659 8.88 28.347 9.272 28.019 9.712C27.691 10.144 27.363 10.584 27.035 11.032C26.715 11.48 26.403 11.896 26.099 12.28C25.803 12.656 25.527 12.96 25.271 13.192C25.015 13.424 24.795 13.54 24.611 13.54ZM39.0324 7.828C39.0324 8.084 38.9524 8.336 38.7924 8.584C38.6324 8.824 38.4204 9.056 38.1564 9.28C37.8924 9.496 37.6004 9.7 37.2804 9.892C36.9604 10.084 36.6404 10.252 36.3204 10.396C36.0004 10.54 35.7084 10.656 35.4444 10.744C35.3804 11.056 35.3484 11.332 35.3484 11.572C35.3484 11.724 35.3844 11.832 35.4564 11.896C35.5284 11.96 35.6404 11.992 35.7924 11.992C36.1284 11.992 36.4844 11.932 36.8604 11.812C37.2364 11.692 37.6204 11.536 38.0124 11.344C38.4044 11.152 38.7804 10.948 39.1404 10.732C39.5004 10.516 39.8284 10.312 40.1244 10.12C40.4284 9.928 40.6804 9.772 40.8804 9.652C41.0804 9.532 41.2124 9.472 41.2764 9.472C41.3724 9.472 41.4444 9.504 41.4924 9.568C41.5484 9.624 41.5764 9.692 41.5764 9.772C41.5764 9.836 41.4764 9.96 41.2764 10.144C41.0844 10.328 40.8244 10.544 40.4964 10.792C40.1684 11.032 39.8004 11.28 39.3924 11.536C38.9844 11.792 38.5604 12.032 38.1204 12.256C37.6884 12.48 37.2684 12.66 36.8604 12.796C36.4604 12.932 36.1004 13 35.7804 13C35.3644 13 35.0404 12.844 34.8084 12.532C34.5764 12.22 34.4604 11.736 34.4604 11.08C34.4604 10.64 34.5164 10.196 34.6284 9.748C34.7484 9.3 34.9084 8.872 35.1084 8.464C35.3164 8.048 35.5444 7.68 35.7924 7.36C36.0484 7.032 36.3164 6.776 36.5964 6.592C36.8764 6.4 37.1484 6.304 37.4124 6.304C37.9164 6.304 38.3124 6.444 38.6004 6.724C38.8884 7.004 39.0324 7.372 39.0324 7.828ZM35.6964 9.82C35.9444 9.668 36.2004 9.508 36.4644 9.34C36.7284 9.172 36.9724 9 37.1964 8.824C37.4204 8.648 37.6004 8.464 37.7364 8.272C37.8804 8.072 37.9524 7.868 37.9524 7.66C37.9524 7.364 37.7924 7.216 37.4724 7.216C37.2724 7.216 37.0604 7.344 36.8364 7.6C36.6204 7.848 36.4124 8.172 36.2124 8.572C36.0124 8.972 35.8404 9.388 35.6964 9.82ZM41.747 12.724C41.515 12.724 41.307 12.592 41.123 12.328C40.939 12.064 40.847 11.724 40.847 11.308C40.847 10.852 40.907 10.364 41.027 9.844C41.155 9.324 41.311 8.796 41.495 8.26C41.679 7.716 41.859 7.192 42.035 6.688C42.075 6.584 42.131 6.508 42.203 6.46C42.283 6.404 42.403 6.376 42.563 6.376C42.851 6.376 42.995 6.516 42.995 6.796C42.995 6.86 42.963 7.004 42.899 7.228C42.835 7.452 42.751 7.728 42.647 8.056C42.551 8.384 42.451 8.74 42.347 9.124C42.243 9.5 42.151 9.88 42.071 10.264C41.991 10.648 41.935 11.004 41.903 11.332C42.031 11.196 42.175 10.988 42.335 10.708C42.503 10.428 42.683 10.112 42.875 9.76C43.067 9.4 43.267 9.04 43.475 8.68C43.683 8.312 43.891 7.976 44.099 7.672C44.315 7.36 44.523 7.112 44.723 6.928C44.931 6.736 45.123 6.64 45.299 6.64C45.555 6.64 45.771 6.72 45.947 6.88C46.131 7.032 46.271 7.304 46.367 7.696C46.471 8.08 46.523 8.624 46.523 9.328C46.523 9.704 46.559 10.056 46.631 10.384C46.711 10.712 46.835 10.976 47.003 11.176C47.179 11.368 47.403 11.464 47.675 11.464C48.083 11.464 48.447 11.392 48.767 11.248C49.087 11.096 49.363 10.928 49.595 10.744C49.835 10.552 50.035 10.384 50.195 10.24C50.355 10.088 50.479 10.012 50.567 10.012C50.751 10.012 50.843 10.108 50.843 10.3C50.843 10.38 50.783 10.508 50.663 10.684C50.551 10.852 50.391 11.044 50.183 11.26C49.983 11.468 49.751 11.672 49.487 11.872C49.231 12.064 48.955 12.224 48.659 12.352C48.371 12.48 48.079 12.544 47.783 12.544C47.231 12.544 46.779 12.436 46.427 12.22C46.083 12.004 45.827 11.648 45.659 11.152C45.499 10.656 45.419 9.992 45.419 9.16C45.419 8.704 45.391 8.372 45.335 8.164C45.287 7.948 45.195 7.804 45.059 7.732C44.963 7.9 44.839 8.14 44.687 8.452C44.535 8.756 44.359 9.096 44.159 9.472C43.967 9.848 43.763 10.228 43.547 10.612C43.339 10.988 43.127 11.336 42.911 11.656C42.695 11.976 42.487 12.236 42.287 12.436C42.087 12.628 41.907 12.724 41.747 12.724ZM55.9829 13.06C55.8309 13.06 55.6949 13.004 55.5749 12.892C55.4549 12.772 55.3949 12.588 55.3949 12.34C55.3949 12.164 55.4189 11.92 55.4669 11.608C55.5149 11.288 55.5789 10.94 55.6589 10.564C55.7389 10.188 55.8229 9.816 55.9109 9.448C56.0069 9.072 56.1029 8.736 56.1989 8.44C56.2949 8.144 56.3789 7.924 56.4509 7.78C56.5149 7.668 56.5749 7.596 56.6309 7.564C56.6949 7.532 56.7549 7.516 56.8109 7.516C56.9229 7.516 57.0189 7.552 57.0989 7.624C57.1869 7.696 57.2309 7.836 57.2309 8.044C57.2309 8.164 57.2069 8.364 57.1589 8.644C57.1189 8.916 57.0629 9.236 56.9909 9.604C56.9269 9.964 56.8549 10.336 56.7749 10.72C56.7029 11.096 56.6309 11.456 56.5589 11.8C56.4869 12.144 56.4309 12.432 56.3909 12.664C56.3589 12.792 56.3029 12.892 56.2229 12.964C56.1509 13.028 56.0709 13.06 55.9829 13.06ZM57.1589 6.424C56.9749 6.424 56.7989 6.368 56.6309 6.256C56.4709 6.144 56.3909 5.964 56.3909 5.716C56.3909 5.508 56.4389 5.34 56.5349 5.212C56.6389 5.084 56.7589 4.992 56.8949 4.936C57.0389 4.872 57.1629 4.84 57.2669 4.84C57.3709 4.84 57.4869 4.864 57.6149 4.912C57.7509 4.952 57.8669 5.032 57.9629 5.152C58.0589 5.264 58.1069 5.432 58.1069 5.656C58.1069 5.808 58.0549 5.944 57.9509 6.064C57.8469 6.176 57.7189 6.264 57.5669 6.328C57.4229 6.392 57.2869 6.424 57.1589 6.424ZM65.639 13.312C65.335 13.312 65.083 13.172 64.883 12.892C64.691 12.604 64.595 12.232 64.595 11.776C64.595 11.352 64.699 10.932 64.907 10.516C65.123 10.1 65.407 9.7 65.759 9.316C66.111 8.932 66.495 8.58 66.911 8.26C67.327 7.932 67.743 7.648 68.159 7.408C68.583 7.168 68.971 6.98 69.323 6.844C69.675 6.708 69.955 6.64 70.163 6.64C70.275 6.64 70.367 6.664 70.439 6.712C70.511 6.752 70.547 6.828 70.547 6.94C70.547 7.012 70.519 7.08 70.463 7.144C70.471 7.144 70.479 7.144 70.487 7.144C70.663 7.144 70.751 7.248 70.751 7.456C70.751 7.528 70.723 7.676 70.667 7.9C70.611 8.116 70.547 8.388 70.475 8.716C70.403 9.044 70.339 9.408 70.283 9.808C70.227 10.2 70.199 10.6 70.199 11.008C70.199 11.352 70.331 11.524 70.595 11.524C70.891 11.524 71.191 11.456 71.495 11.32C71.799 11.184 72.095 11.02 72.383 10.828C72.671 10.628 72.935 10.432 73.175 10.24C73.415 10.04 73.619 9.872 73.787 9.736C73.955 9.6 74.075 9.532 74.147 9.532C74.211 9.532 74.267 9.552 74.315 9.592C74.363 9.632 74.387 9.696 74.387 9.784C74.387 9.864 74.307 10.008 74.147 10.216C73.987 10.424 73.775 10.66 73.511 10.924C73.247 11.188 72.951 11.444 72.623 11.692C72.295 11.94 71.959 12.144 71.615 12.304C71.271 12.464 70.943 12.544 70.631 12.544C70.391 12.544 70.171 12.472 69.971 12.328C69.779 12.176 69.623 11.92 69.503 11.56C69.391 11.2 69.335 10.704 69.335 10.072V9.772C68.943 10.42 68.531 11.012 68.099 11.548C67.675 12.084 67.251 12.512 66.827 12.832C66.411 13.152 66.015 13.312 65.639 13.312ZM69.935 7.504C69.895 7.52 69.839 7.544 69.767 7.576C69.399 7.744 69.015 7.952 68.615 8.2C68.223 8.448 67.839 8.724 67.463 9.028C67.095 9.332 66.763 9.648 66.467 9.976C66.171 10.304 65.935 10.636 65.759 10.972C65.583 11.308 65.495 11.636 65.495 11.956C65.495 12.06 65.515 12.14 65.555 12.196C65.603 12.252 65.683 12.28 65.795 12.28C65.955 12.28 66.163 12.18 66.419 11.98C66.675 11.772 66.955 11.5 67.259 11.164C67.571 10.828 67.883 10.456 68.195 10.048C68.507 9.64 68.803 9.228 69.083 8.812C69.371 8.396 69.619 8.012 69.827 7.66C69.859 7.604 69.895 7.552 69.935 7.504ZM82.9765 12.64C82.9685 12.768 82.9165 12.872 82.8205 12.952C82.7245 13.032 82.6125 13.072 82.4845 13.072C82.3405 13.072 82.2205 13.024 82.1245 12.928C82.0285 12.832 81.9805 12.684 81.9805 12.484C81.9805 11.964 82.0045 11.4 82.0525 10.792C82.1005 10.176 82.1605 9.568 82.2325 8.968C82.3045 8.36 82.3765 7.8 82.4485 7.288C82.1845 7.664 81.8965 8.08 81.5845 8.536C81.2805 8.992 80.9685 9.444 80.6485 9.892C80.3285 10.34 80.0165 10.752 79.7125 11.128C79.4085 11.496 79.1325 11.796 78.8845 12.028C78.6365 12.252 78.4325 12.364 78.2725 12.364C77.9765 12.364 77.7205 12.248 77.5045 12.016C77.2885 11.776 77.1805 11.476 77.1805 11.116C77.1805 10.972 77.1965 10.776 77.2285 10.528C77.2605 10.272 77.2965 10.004 77.3365 9.724C77.3765 9.444 77.4125 9.184 77.4445 8.944C77.4765 8.696 77.4925 8.512 77.4925 8.392C77.4925 8.28 77.4805 8.184 77.4565 8.104C77.4405 8.016 77.4005 7.972 77.3365 7.972C77.2405 7.972 77.1085 8.08 76.9405 8.296C76.7725 8.504 76.5845 8.772 76.3765 9.1C76.1765 9.428 75.9685 9.776 75.7525 10.144C75.5445 10.512 75.3485 10.86 75.1645 11.188C74.9805 11.508 74.8245 11.76 74.6965 11.944C74.5925 12.12 74.4965 12.248 74.4085 12.328C74.3205 12.408 74.2125 12.448 74.0845 12.448C73.9325 12.448 73.7925 12.368 73.6645 12.208C73.5445 12.048 73.4845 11.852 73.4845 11.62C73.4845 11.484 73.5085 11.272 73.5565 10.984C73.6045 10.688 73.6645 10.364 73.7365 10.012C73.8165 9.66 73.8925 9.316 73.9645 8.98C74.0445 8.636 74.1125 8.344 74.1685 8.104C74.2325 7.832 74.3125 7.648 74.4085 7.552C74.5045 7.456 74.6085 7.408 74.7205 7.408C74.8725 7.408 74.9925 7.464 75.0805 7.576C75.1765 7.68 75.2245 7.844 75.2245 8.068C75.2245 8.108 75.2005 8.216 75.1525 8.392C75.1045 8.56 75.0445 8.768 74.9725 9.016C74.9085 9.256 74.8365 9.508 74.7565 9.772C74.6845 10.036 74.6245 10.28 74.5765 10.504C74.7525 10.208 74.9365 9.888 75.1285 9.544C75.3285 9.2 75.5285 8.86 75.7285 8.524C75.9285 8.18 76.1285 7.868 76.3285 7.588C76.5285 7.3 76.7245 7.072 76.9165 6.904C77.1085 6.736 77.2925 6.652 77.4685 6.652C77.6765 6.652 77.8685 6.716 78.0445 6.844C78.2285 6.972 78.3765 7.144 78.4885 7.36C78.6005 7.576 78.6565 7.816 78.6565 8.08C78.6565 8.264 78.6245 8.524 78.5605 8.86C78.4965 9.188 78.4285 9.544 78.3565 9.928C78.2925 10.312 78.2525 10.676 78.2365 11.02C78.2365 11.1 78.2605 11.14 78.3085 11.14C78.3485 11.14 78.3965 11.112 78.4525 11.056C78.6845 10.8 78.9405 10.492 79.2205 10.132C79.5005 9.764 79.7845 9.376 80.0725 8.968C80.3685 8.56 80.6605 8.16 80.9485 7.768C81.2365 7.368 81.5045 7.008 81.7525 6.688C82.0085 6.36 82.2325 6.1 82.4245 5.908C82.6245 5.716 82.7805 5.62 82.8925 5.62C83.1325 5.62 83.3165 5.688 83.4445 5.824C83.5725 5.96 83.6365 6.188 83.6365 6.508C83.6365 6.764 83.6165 7.096 83.5765 7.504C83.5445 7.912 83.5005 8.356 83.4445 8.836C83.3965 9.316 83.3405 9.8 83.2765 10.288C83.2205 10.768 83.1645 11.216 83.1085 11.632C83.0525 12.04 83.0085 12.376 82.9765 12.64ZM92.2548 12.724C92.0228 12.724 91.8148 12.592 91.6308 12.328C91.4468 12.064 91.3548 11.724 91.3548 11.308C91.3548 10.852 91.4148 10.364 91.5348 9.844C91.6628 9.324 91.8188 8.796 92.0028 8.26C92.1868 7.716 92.3668 7.192 92.5428 6.688C92.5828 6.584 92.6388 6.508 92.7108 6.46C92.7908 6.404 92.9108 6.376 93.0708 6.376C93.3588 6.376 93.5028 6.516 93.5028 6.796C93.5028 6.86 93.4708 7.004 93.4068 7.228C93.3428 7.452 93.2588 7.728 93.1548 8.056C93.0588 8.384 92.9588 8.74 92.8548 9.124C92.7508 9.5 92.6588 9.88 92.5788 10.264C92.4988 10.648 92.4428 11.004 92.4108 11.332C92.5388 11.196 92.6828 10.988 92.8428 10.708C93.0108 10.428 93.1908 10.112 93.3828 9.76C93.5748 9.4 93.7748 9.04 93.9828 8.68C94.1908 8.312 94.3988 7.976 94.6068 7.672C94.8228 7.36 95.0308 7.112 95.2308 6.928C95.4388 6.736 95.6308 6.64 95.8068 6.64C96.0628 6.64 96.2788 6.72 96.4548 6.88C96.6388 7.032 96.7788 7.304 96.8748 7.696C96.9788 8.08 97.0308 8.624 97.0308 9.328C97.0308 9.704 97.0668 10.056 97.1388 10.384C97.2188 10.712 97.3428 10.976 97.5108 11.176C97.6868 11.368 97.9108 11.464 98.1828 11.464C98.5908 11.464 98.9548 11.392 99.2748 11.248C99.5948 11.096 99.8708 10.928 100.103 10.744C100.343 10.552 100.543 10.384 100.703 10.24C100.863 10.088 100.987 10.012 101.075 10.012C101.259 10.012 101.351 10.108 101.351 10.3C101.351 10.38 101.291 10.508 101.171 10.684C101.059 10.852 100.899 11.044 100.691 11.26C100.491 11.468 100.259 11.672 99.9948 11.872C99.7388 12.064 99.4628 12.224 99.1668 12.352C98.8788 12.48 98.5868 12.544 98.2908 12.544C97.7388 12.544 97.2868 12.436 96.9348 12.22C96.5908 12.004 96.3348 11.648 96.1668 11.152C96.0068 10.656 95.9268 9.992 95.9268 9.16C95.9268 8.704 95.8988 8.372 95.8428 8.164C95.7948 7.948 95.7028 7.804 95.5668 7.732C95.4708 7.9 95.3468 8.14 95.1948 8.452C95.0428 8.756 94.8668 9.096 94.6668 9.472C94.4748 9.848 94.2708 10.228 94.0548 10.612C93.8468 10.988 93.6348 11.336 93.4188 11.656C93.2028 11.976 92.9948 12.236 92.7948 12.436C92.5948 12.628 92.4148 12.724 92.2548 12.724ZM102.066 13.12C101.594 13.12 101.222 12.94 100.95 12.58C100.678 12.22 100.542 11.752 100.542 11.176C100.542 10.968 100.57 10.748 100.626 10.516C100.69 10.276 100.77 10.06 100.866 9.868C100.81 9.812 100.766 9.736 100.734 9.64C100.702 9.536 100.686 9.408 100.686 9.256C100.686 8.784 100.766 8.352 100.926 7.96C101.086 7.568 101.298 7.228 101.562 6.94C101.826 6.644 102.118 6.416 102.438 6.256C102.766 6.096 103.098 6.016 103.434 6.016C103.986 6.016 104.434 6.216 104.778 6.616C105.122 7.008 105.294 7.608 105.294 8.416C105.294 8.84 105.23 9.272 105.102 9.712C104.982 10.152 104.814 10.576 104.598 10.984C104.39 11.392 104.146 11.756 103.866 12.076C103.594 12.396 103.302 12.652 102.99 12.844C102.686 13.028 102.378 13.12 102.066 13.12ZM101.658 9.46C101.706 9.524 101.73 9.608 101.73 9.712C101.73 9.832 101.706 9.952 101.658 10.072C101.618 10.192 101.574 10.356 101.526 10.564C101.478 10.772 101.454 11.068 101.454 11.452C101.454 11.836 101.606 12.028 101.91 12.028C102.246 12.028 102.558 11.896 102.846 11.632C103.134 11.36 103.39 11.012 103.614 10.588C103.838 10.164 104.01 9.712 104.13 9.232C104.258 8.744 104.322 8.284 104.322 7.852C104.322 7.572 104.27 7.376 104.166 7.264C104.062 7.144 103.874 7.084 103.602 7.084C103.322 7.084 103.03 7.18 102.726 7.372C102.43 7.556 102.182 7.808 101.982 8.128C101.782 8.448 101.682 8.808 101.682 9.208C101.682 9.296 101.674 9.38 101.658 9.46ZM106.153 9.16C105.937 9.144 105.837 9.004 105.853 8.74C105.861 8.676 105.905 8.6 105.985 8.512C106.065 8.416 106.157 8.364 106.261 8.356C106.509 8.332 106.813 8.296 107.173 8.248C107.541 8.192 107.945 8.128 108.385 8.056C108.465 7.664 108.561 7.252 108.673 6.82C108.785 6.388 108.909 5.968 109.045 5.56C109.181 5.144 109.325 4.768 109.477 4.432C109.629 4.096 109.789 3.832 109.957 3.64C110.045 3.552 110.125 3.492 110.197 3.46C110.269 3.42 110.333 3.4 110.389 3.4C110.501 3.4 110.589 3.448 110.653 3.544C110.725 3.64 110.761 3.748 110.761 3.868C110.761 3.932 110.749 3.996 110.725 4.06C110.565 4.508 110.393 5.06 110.209 5.716C110.025 6.372 109.829 7.088 109.621 7.864C110.357 7.744 111.093 7.616 111.829 7.48C112.565 7.344 113.197 7.22 113.725 7.108C113.877 7.044 113.993 7.056 114.073 7.144C114.161 7.232 114.205 7.32 114.205 7.408C114.205 7.52 114.173 7.604 114.109 7.66C114.053 7.716 113.993 7.764 113.929 7.804L113.917 7.816C113.757 7.88 113.517 7.956 113.197 8.044C112.877 8.124 112.509 8.212 112.093 8.308C111.677 8.396 111.233 8.484 110.761 8.572C110.297 8.66 109.837 8.74 109.381 8.812C109.197 9.516 109.009 10.24 108.817 10.984C108.633 11.72 108.449 12.444 108.265 13.156C108.185 13.444 108.093 13.624 107.989 13.696C107.893 13.776 107.789 13.816 107.677 13.816C107.549 13.816 107.437 13.768 107.341 13.672C107.253 13.576 107.241 13.38 107.305 13.084L108.181 8.992C107.701 9.064 107.277 9.116 106.909 9.148C106.549 9.18 106.297 9.184 106.153 9.16ZM18.5997 30.348C18.3197 30.348 18.0877 30.224 17.9037 29.976C17.7277 29.72 17.6397 29.268 17.6397 28.62C17.6397 27.94 17.6517 27.28 17.6757 26.64C17.6997 25.992 17.7437 25.412 17.8077 24.9C17.8797 24.388 17.9757 23.98 18.0957 23.676C18.2157 23.372 18.3717 23.22 18.5637 23.22C18.6997 23.22 18.8197 23.296 18.9237 23.448C19.0277 23.592 19.0797 23.784 19.0797 24.024C19.0797 24.272 19.0557 24.604 19.0077 25.02C18.9597 25.436 18.8997 25.884 18.8277 26.364C18.7637 26.836 18.7077 27.296 18.6597 27.744C18.6117 28.184 18.5877 28.556 18.5877 28.86C18.5877 28.988 18.5917 29.092 18.5997 29.172C18.6157 29.244 18.6397 29.28 18.6717 29.28C18.7917 29.28 18.9197 29.176 19.0557 28.968C19.1997 28.752 19.3517 28.472 19.5117 28.128C19.6717 27.776 19.8397 27.392 20.0157 26.976C20.1917 26.552 20.3717 26.132 20.5557 25.716C20.7397 25.3 20.9277 24.92 21.1197 24.576C21.3117 24.224 21.5037 23.944 21.6957 23.736C21.8877 23.52 22.0757 23.412 22.2597 23.412C22.4757 23.412 22.6757 23.516 22.8597 23.724C23.0517 23.924 23.1477 24.212 23.1477 24.588C23.1477 24.7 23.1317 24.896 23.0997 25.176C23.0677 25.448 23.0277 25.76 22.9797 26.112C22.9317 26.464 22.8837 26.816 22.8357 27.168C22.7877 27.512 22.7477 27.82 22.7157 28.092C22.6837 28.356 22.6677 28.544 22.6677 28.656C22.6677 29.072 22.7077 29.28 22.7877 29.28C23.0117 29.28 23.2477 29.14 23.4957 28.86C23.7517 28.572 24.0077 28.204 24.2637 27.756C24.5277 27.3 24.7877 26.808 25.0437 26.28C25.3077 25.744 25.5597 25.232 25.7997 24.744C25.9117 24.488 26.0037 24.316 26.0757 24.228C26.1557 24.132 26.2357 24.084 26.3157 24.084C26.4277 24.084 26.5317 24.144 26.6277 24.264C26.7317 24.384 26.7837 24.548 26.7837 24.756C26.7837 24.828 26.7797 24.9 26.7717 24.972C26.7637 25.036 26.7437 25.108 26.7117 25.188C26.4397 25.908 26.1477 26.576 25.8357 27.192C25.5237 27.8 25.2037 28.332 24.8757 28.788C24.5557 29.236 24.2397 29.588 23.9277 29.844C23.6157 30.092 23.3277 30.216 23.0637 30.216C22.6077 30.216 22.2517 30.088 21.9957 29.832C21.7477 29.568 21.6237 29.216 21.6237 28.776C21.6237 28.592 21.6357 28.352 21.6597 28.056C21.6917 27.76 21.7277 27.44 21.7677 27.096C21.8157 26.752 21.8637 26.42 21.9117 26.1C21.9597 25.78 21.9997 25.5 22.0317 25.26C22.0717 25.02 22.0957 24.856 22.1037 24.768C22.1117 24.656 22.0997 24.6 22.0677 24.6C22.0357 24.6 21.9717 24.704 21.8757 24.912C21.7877 25.112 21.6797 25.368 21.5517 25.68C21.4317 25.984 21.3037 26.3 21.1677 26.628C21.0157 26.988 20.8397 27.384 20.6397 27.816C20.4477 28.24 20.2397 28.644 20.0157 29.028C19.7997 29.412 19.5717 29.728 19.3317 29.976C19.0917 30.224 18.8477 30.348 18.5997 30.348ZM29.4452 30.12C28.9732 30.12 28.6012 29.94 28.3292 29.58C28.0572 29.22 27.9212 28.752 27.9212 28.176C27.9212 27.968 27.9492 27.748 28.0052 27.516C28.0692 27.276 28.1492 27.06 28.2452 26.868C28.1892 26.812 28.1452 26.736 28.1132 26.64C28.0812 26.536 28.0652 26.408 28.0652 26.256C28.0652 25.784 28.1452 25.352 28.3052 24.96C28.4652 24.568 28.6772 24.228 28.9412 23.94C29.2052 23.644 29.4972 23.416 29.8172 23.256C30.1452 23.096 30.4772 23.016 30.8132 23.016C31.3652 23.016 31.8132 23.216 32.1572 23.616C32.5012 24.008 32.6732 24.608 32.6732 25.416C32.6732 25.84 32.6092 26.272 32.4812 26.712C32.3612 27.152 32.1932 27.576 31.9772 27.984C31.7692 28.392 31.5252 28.756 31.2452 29.076C30.9732 29.396 30.6812 29.652 30.3692 29.844C30.0652 30.028 29.7572 30.12 29.4452 30.12ZM29.0372 26.46C29.0852 26.524 29.1092 26.608 29.1092 26.712C29.1092 26.832 29.0852 26.952 29.0372 27.072C28.9972 27.192 28.9532 27.356 28.9052 27.564C28.8572 27.772 28.8332 28.068 28.8332 28.452C28.8332 28.836 28.9852 29.028 29.2892 29.028C29.6252 29.028 29.9372 28.896 30.2252 28.632C30.5132 28.36 30.7692 28.012 30.9932 27.588C31.2172 27.164 31.3892 26.712 31.5092 26.232C31.6372 25.744 31.7012 25.284 31.7012 24.852C31.7012 24.572 31.6492 24.376 31.5452 24.264C31.4412 24.144 31.2532 24.084 30.9812 24.084C30.7012 24.084 30.4092 24.18 30.1052 24.372C29.8092 24.556 29.5612 24.808 29.3612 25.128C29.1612 25.448 29.0612 25.808 29.0612 26.208C29.0612 26.296 29.0532 26.38 29.0372 26.46ZM34.4018 30.228C34.2738 30.228 34.1658 30.176 34.0778 30.072C33.9898 29.968 33.9458 29.824 33.9458 29.64C33.9458 29.504 33.9738 29.28 34.0298 28.968C34.0938 28.648 34.1618 28.276 34.2338 27.852C34.3138 27.428 34.3818 26.988 34.4378 26.532C34.4938 26.068 34.5218 25.624 34.5218 25.2C34.5218 24.992 34.5738 24.84 34.6778 24.744C34.7898 24.64 34.9138 24.588 35.0498 24.588C35.1778 24.588 35.2738 24.668 35.3378 24.828C35.4018 24.988 35.4138 25.308 35.3738 25.788C35.7418 24.972 36.1458 24.316 36.5858 23.82C37.0338 23.316 37.4778 22.956 37.9178 22.74C38.3578 22.516 38.7538 22.404 39.1058 22.404C39.3378 22.404 39.5058 22.452 39.6098 22.548C39.7218 22.636 39.7778 22.736 39.7778 22.848C39.7778 23 39.7138 23.12 39.5858 23.208C39.4658 23.288 39.2538 23.384 38.9498 23.496C38.5978 23.632 38.2738 23.792 37.9778 23.976C37.6898 24.152 37.4138 24.384 37.1498 24.672C36.8938 24.96 36.6418 25.328 36.3938 25.776C36.1458 26.216 35.8978 26.76 35.6498 27.408C35.4018 28.056 35.1378 28.836 34.8578 29.748C34.8098 29.924 34.7458 30.048 34.6658 30.12C34.5938 30.192 34.5058 30.228 34.4018 30.228ZM45.4254 30.636C44.9054 30.636 44.4254 30.512 43.9854 30.264C43.5534 30.016 43.1614 29.696 42.8094 29.304C42.4654 28.912 42.1574 28.492 41.8854 28.044C41.6214 27.588 41.3934 27.16 41.2014 26.76C41.0654 27.408 40.9574 27.932 40.8774 28.332C40.8054 28.732 40.7454 29.036 40.6974 29.244C40.6574 29.452 40.6174 29.592 40.5774 29.664C40.5374 29.736 40.4854 29.772 40.4214 29.772C40.2454 29.772 40.0774 29.676 39.9174 29.484C39.7574 29.292 39.6774 29.044 39.6774 28.74C39.6774 28.42 39.7334 27.996 39.8454 27.468C39.9574 26.932 40.1054 26.34 40.2894 25.692C40.4814 25.036 40.7014 24.36 40.9494 23.664C41.1974 22.96 41.4534 22.276 41.7174 21.612C41.9894 20.94 42.2614 20.328 42.5334 19.776C42.6694 19.504 42.7854 19.328 42.8814 19.248C42.9854 19.168 43.1094 19.128 43.2534 19.128C43.4854 19.128 43.6014 19.236 43.6014 19.452C43.6014 19.532 43.5774 19.62 43.5294 19.716C43.4894 19.812 43.4454 19.92 43.3974 20.04C43.2534 20.392 43.0934 20.788 42.9174 21.228C42.7494 21.668 42.5774 22.128 42.4014 22.608C42.2334 23.088 42.0734 23.564 41.9214 24.036C41.7694 24.508 41.6374 24.944 41.5254 25.344C41.8694 25.104 42.2734 24.864 42.7374 24.624C43.2014 24.384 43.6814 24.168 44.1774 23.976C44.6734 23.776 45.1414 23.616 45.5814 23.496C46.0214 23.376 46.3854 23.316 46.6734 23.316C46.8254 23.316 46.9414 23.364 47.0214 23.46C47.1094 23.548 47.1534 23.648 47.1534 23.76C47.1534 23.848 47.1254 23.936 47.0694 24.024C47.0214 24.104 46.9174 24.176 46.7574 24.24C46.2294 24.424 45.7054 24.612 45.1854 24.804C44.6654 24.988 44.1214 25.188 43.5534 25.404C42.9934 25.612 42.3814 25.86 41.7174 26.148C41.9254 26.5 42.1694 26.88 42.4494 27.288C42.7294 27.688 43.0294 28.068 43.3494 28.428C43.6694 28.78 43.9974 29.072 44.3334 29.304C44.6694 29.528 45.0054 29.64 45.3414 29.64C45.7814 29.64 46.2054 29.548 46.6134 29.364C47.0214 29.18 47.3974 28.956 47.7414 28.692C48.0934 28.428 48.4014 28.172 48.6654 27.924C48.9294 27.668 49.1374 27.468 49.2894 27.324C49.3694 27.252 49.4414 27.204 49.5054 27.18C49.5774 27.148 49.6414 27.132 49.6974 27.132C49.8094 27.132 49.8854 27.192 49.9254 27.312C49.9734 27.424 49.9334 27.548 49.8054 27.684C49.7094 27.796 49.5614 27.968 49.3614 28.2C49.1614 28.432 48.9174 28.688 48.6294 28.968C48.3494 29.24 48.0374 29.504 47.6934 29.76C47.3574 30.016 46.9934 30.224 46.6014 30.384C46.2174 30.552 45.8254 30.636 45.4254 30.636ZM49.7954 30.06C49.6434 30.06 49.5074 30.004 49.3874 29.892C49.2674 29.772 49.2074 29.588 49.2074 29.34C49.2074 29.164 49.2314 28.92 49.2794 28.608C49.3274 28.288 49.3914 27.94 49.4714 27.564C49.5514 27.188 49.6354 26.816 49.7234 26.448C49.8194 26.072 49.9154 25.736 50.0114 25.44C50.1074 25.144 50.1914 24.924 50.2634 24.78C50.3274 24.668 50.3874 24.596 50.4434 24.564C50.5074 24.532 50.5674 24.516 50.6234 24.516C50.7354 24.516 50.8314 24.552 50.9114 24.624C50.9994 24.696 51.0434 24.836 51.0434 25.044C51.0434 25.164 51.0194 25.364 50.9714 25.644C50.9314 25.916 50.8754 26.236 50.8034 26.604C50.7394 26.964 50.6674 27.336 50.5874 27.72C50.5154 28.096 50.4434 28.456 50.3714 28.8C50.2994 29.144 50.2434 29.432 50.2034 29.664C50.1714 29.792 50.1154 29.892 50.0354 29.964C49.9634 30.028 49.8834 30.06 49.7954 30.06ZM50.9714 23.424C50.7874 23.424 50.6114 23.368 50.4434 23.256C50.2834 23.144 50.2034 22.964 50.2034 22.716C50.2034 22.508 50.2514 22.34 50.3474 22.212C50.4514 22.084 50.5714 21.992 50.7074 21.936C50.8514 21.872 50.9754 21.84 51.0794 21.84C51.1834 21.84 51.2994 21.864 51.4274 21.912C51.5634 21.952 51.6794 22.032 51.7754 22.152C51.8714 22.264 51.9194 22.432 51.9194 22.656C51.9194 22.808 51.8674 22.944 51.7634 23.064C51.6594 23.176 51.5314 23.264 51.3794 23.328C51.2354 23.392 51.0994 23.424 50.9714 23.424ZM53.6767 29.724C53.4447 29.724 53.2367 29.592 53.0527 29.328C52.8687 29.064 52.7767 28.724 52.7767 28.308C52.7767 27.852 52.8367 27.364 52.9567 26.844C53.0847 26.324 53.2407 25.796 53.4247 25.26C53.6087 24.716 53.7887 24.192 53.9647 23.688C54.0047 23.584 54.0607 23.508 54.1327 23.46C54.2127 23.404 54.3327 23.376 54.4927 23.376C54.7807 23.376 54.9247 23.516 54.9247 23.796C54.9247 23.86 54.8927 24.004 54.8287 24.228C54.7647 24.452 54.6807 24.728 54.5767 25.056C54.4807 25.384 54.3807 25.74 54.2767 26.124C54.1727 26.5 54.0807 26.88 54.0007 27.264C53.9207 27.648 53.8647 28.004 53.8327 28.332C53.9607 28.196 54.1047 27.988 54.2647 27.708C54.4327 27.428 54.6127 27.112 54.8047 26.76C54.9967 26.4 55.1967 26.04 55.4047 25.68C55.6127 25.312 55.8207 24.976 56.0287 24.672C56.2447 24.36 56.4527 24.112 56.6527 23.928C56.8607 23.736 57.0527 23.64 57.2287 23.64C57.4847 23.64 57.7007 23.72 57.8767 23.88C58.0607 24.032 58.2007 24.304 58.2967 24.696C58.4007 25.08 58.4527 25.624 58.4527 26.328C58.4527 26.704 58.4887 27.056 58.5607 27.384C58.6407 27.712 58.7647 27.976 58.9327 28.176C59.1087 28.368 59.3327 28.464 59.6047 28.464C60.0127 28.464 60.3767 28.392 60.6967 28.248C61.0167 28.096 61.2927 27.928 61.5247 27.744C61.7647 27.552 61.9647 27.384 62.1247 27.24C62.2847 27.088 62.4087 27.012 62.4967 27.012C62.6807 27.012 62.7727 27.108 62.7727 27.3C62.7727 27.38 62.7127 27.508 62.5927 27.684C62.4807 27.852 62.3207 28.044 62.1127 28.26C61.9127 28.468 61.6807 28.672 61.4167 28.872C61.1607 29.064 60.8847 29.224 60.5887 29.352C60.3007 29.48 60.0087 29.544 59.7127 29.544C59.1607 29.544 58.7087 29.436 58.3567 29.22C58.0127 29.004 57.7567 28.648 57.5887 28.152C57.4287 27.656 57.3487 26.992 57.3487 26.16C57.3487 25.704 57.3207 25.372 57.2647 25.164C57.2167 24.948 57.1247 24.804 56.9887 24.732C56.8927 24.9 56.7687 25.14 56.6167 25.452C56.4647 25.756 56.2887 26.096 56.0887 26.472C55.8967 26.848 55.6927 27.228 55.4767 27.612C55.2687 27.988 55.0567 28.336 54.8407 28.656C54.6247 28.976 54.4167 29.236 54.2167 29.436C54.0167 29.628 53.8367 29.724 53.6767 29.724ZM62.759 33.168C62.143 33.168 61.691 33.108 61.403 32.988C61.115 32.868 60.971 32.708 60.971 32.508C60.971 32.38 61.011 32.276 61.091 32.196C61.179 32.116 61.287 32.076 61.415 32.076C61.551 32.076 61.747 32.096 62.003 32.136C62.259 32.184 62.511 32.208 62.759 32.208C63.583 32.208 64.259 31.964 64.787 31.476C65.315 30.988 65.719 30.24 65.999 29.232C66.279 28.216 66.467 26.92 66.563 25.344C66.323 25.832 66.051 26.32 65.747 26.808C65.451 27.288 65.131 27.728 64.787 28.128C64.451 28.52 64.103 28.836 63.743 29.076C63.383 29.316 63.027 29.436 62.675 29.436C62.339 29.436 62.091 29.352 61.931 29.184C61.779 29.016 61.703 28.74 61.703 28.356C61.703 28.012 61.799 27.648 61.991 27.264C62.183 26.872 62.439 26.48 62.759 26.088C63.079 25.696 63.431 25.324 63.815 24.972C64.199 24.612 64.583 24.296 64.967 24.024C65.359 23.744 65.723 23.524 66.059 23.364C66.395 23.204 66.667 23.124 66.875 23.124C67.083 23.124 67.243 23.196 67.355 23.34C67.467 23.484 67.523 23.756 67.523 24.156C67.523 25.092 67.491 26.004 67.427 26.892C67.371 27.772 67.255 28.592 67.079 29.352C66.903 30.112 66.639 30.776 66.287 31.344C65.943 31.92 65.483 32.368 64.907 32.688C64.331 33.008 63.615 33.168 62.759 33.168ZM66.347 24.168C65.947 24.424 65.535 24.712 65.111 25.032C64.687 25.352 64.291 25.692 63.923 26.052C63.563 26.412 63.271 26.784 63.047 27.168C62.823 27.552 62.711 27.936 62.711 28.32C62.711 28.44 62.787 28.5 62.939 28.5C63.059 28.5 63.223 28.408 63.431 28.224C63.647 28.032 63.887 27.78 64.151 27.468C64.415 27.148 64.683 26.8 64.955 26.424C65.235 26.04 65.495 25.652 65.735 25.26C65.975 24.868 66.179 24.504 66.347 24.168ZM68.6427 33.78C68.3947 33.844 68.2307 33.84 68.1507 33.768C68.0707 33.696 68.0307 33.616 68.0307 33.528C68.0307 33.464 68.0507 33.4 68.0907 33.336C68.1307 33.28 68.2067 33.216 68.3187 33.144C68.7187 32.896 69.0427 32.536 69.2907 32.064C69.5307 31.6 69.7227 31.068 69.8667 30.468C70.0107 29.876 70.1227 29.272 70.2027 28.656C70.2267 28.496 70.2707 28.384 70.3347 28.32C70.3987 28.256 70.4707 28.224 70.5507 28.224C70.7507 28.224 70.9267 28.308 71.0787 28.476C71.2387 28.636 71.3187 28.884 71.3187 29.22C71.3187 29.78 71.2347 30.316 71.0667 30.828C70.8987 31.34 70.6787 31.804 70.4067 32.22C70.1347 32.636 69.8427 32.98 69.5307 33.252C69.2187 33.524 68.9227 33.7 68.6427 33.78ZM79.854 30.06C79.702 30.06 79.566 30.004 79.446 29.892C79.326 29.772 79.266 29.588 79.266 29.34C79.266 29.164 79.29 28.92 79.338 28.608C79.386 28.288 79.45 27.94 79.53 27.564C79.61 27.188 79.694 26.816 79.782 26.448C79.878 26.072 79.974 25.736 80.07 25.44C80.166 25.144 80.25 24.924 80.322 24.78C80.386 24.668 80.446 24.596 80.502 24.564C80.566 24.532 80.626 24.516 80.682 24.516C80.794 24.516 80.89 24.552 80.97 24.624C81.058 24.696 81.102 24.836 81.102 25.044C81.102 25.164 81.078 25.364 81.03 25.644C80.99 25.916 80.934 26.236 80.862 26.604C80.798 26.964 80.726 27.336 80.646 27.72C80.574 28.096 80.502 28.456 80.43 28.8C80.358 29.144 80.302 29.432 80.262 29.664C80.23 29.792 80.174 29.892 80.094 29.964C80.022 30.028 79.942 30.06 79.854 30.06ZM81.03 23.424C80.846 23.424 80.67 23.368 80.502 23.256C80.342 23.144 80.262 22.964 80.262 22.716C80.262 22.508 80.31 22.34 80.406 22.212C80.51 22.084 80.63 21.992 80.766 21.936C80.91 21.872 81.034 21.84 81.138 21.84C81.242 21.84 81.358 21.864 81.486 21.912C81.622 21.952 81.738 22.032 81.834 22.152C81.93 22.264 81.978 22.432 81.978 22.656C81.978 22.808 81.926 22.944 81.822 23.064C81.718 23.176 81.59 23.264 81.438 23.328C81.294 23.392 81.158 23.424 81.03 23.424ZM89.5101 30.312C89.2061 30.312 88.9541 30.172 88.7541 29.892C88.5621 29.604 88.4661 29.232 88.4661 28.776C88.4661 28.352 88.5701 27.932 88.7781 27.516C88.9941 27.1 89.2781 26.7 89.6301 26.316C89.9821 25.932 90.3661 25.58 90.7821 25.26C91.1981 24.932 91.6141 24.648 92.0301 24.408C92.4541 24.168 92.8421 23.98 93.1941 23.844C93.5461 23.708 93.8261 23.64 94.0341 23.64C94.1461 23.64 94.2381 23.664 94.3101 23.712C94.3821 23.752 94.4181 23.828 94.4181 23.94C94.4181 24.012 94.3901 24.08 94.3341 24.144C94.3421 24.144 94.3501 24.144 94.3581 24.144C94.5341 24.144 94.6221 24.248 94.6221 24.456C94.6221 24.528 94.5941 24.676 94.5381 24.9C94.4821 25.116 94.4181 25.388 94.3461 25.716C94.2741 26.044 94.2101 26.408 94.1541 26.808C94.0981 27.2 94.0701 27.6 94.0701 28.008C94.0701 28.352 94.2021 28.524 94.4661 28.524C94.7621 28.524 95.0621 28.456 95.3661 28.32C95.6701 28.184 95.9661 28.02 96.2541 27.828C96.5421 27.628 96.8061 27.432 97.0461 27.24C97.2861 27.04 97.4901 26.872 97.6581 26.736C97.8261 26.6 97.9461 26.532 98.0181 26.532C98.0821 26.532 98.1381 26.552 98.1861 26.592C98.2341 26.632 98.2581 26.696 98.2581 26.784C98.2581 26.864 98.1781 27.008 98.0181 27.216C97.8581 27.424 97.6461 27.66 97.3821 27.924C97.1181 28.188 96.8221 28.444 96.4941 28.692C96.1661 28.94 95.8301 29.144 95.4861 29.304C95.1421 29.464 94.8141 29.544 94.5021 29.544C94.2621 29.544 94.0421 29.472 93.8421 29.328C93.6501 29.176 93.4941 28.92 93.3741 28.56C93.2621 28.2 93.2061 27.704 93.2061 27.072V26.772C92.8141 27.42 92.4021 28.012 91.9701 28.548C91.5461 29.084 91.1221 29.512 90.6981 29.832C90.2821 30.152 89.8861 30.312 89.5101 30.312ZM93.8061 24.504C93.7661 24.52 93.7101 24.544 93.6381 24.576C93.2701 24.744 92.8861 24.952 92.4861 25.2C92.0941 25.448 91.7101 25.724 91.3341 26.028C90.9661 26.332 90.6341 26.648 90.3381 26.976C90.0421 27.304 89.8061 27.636 89.6301 27.972C89.4541 28.308 89.3661 28.636 89.3661 28.956C89.3661 29.06 89.3861 29.14 89.4261 29.196C89.4741 29.252 89.5541 29.28 89.6661 29.28C89.8261 29.28 90.0341 29.18 90.2901 28.98C90.5461 28.772 90.8261 28.5 91.1301 28.164C91.4421 27.828 91.7541 27.456 92.0661 27.048C92.3781 26.64 92.6741 26.228 92.9541 25.812C93.2421 25.396 93.4901 25.012 93.6981 24.66C93.7301 24.604 93.7661 24.552 93.8061 24.504ZM106.848 29.64C106.84 29.768 106.788 29.872 106.692 29.952C106.596 30.032 106.484 30.072 106.356 30.072C106.212 30.072 106.092 30.024 105.996 29.928C105.9 29.832 105.852 29.684 105.852 29.484C105.852 28.964 105.876 28.4 105.924 27.792C105.972 27.176 106.032 26.568 106.104 25.968C106.176 25.36 106.248 24.8 106.32 24.288C106.056 24.664 105.768 25.08 105.456 25.536C105.152 25.992 104.84 26.444 104.52 26.892C104.2 27.34 103.888 27.752 103.584 28.128C103.28 28.496 103.004 28.796 102.756 29.028C102.508 29.252 102.304 29.364 102.144 29.364C101.848 29.364 101.592 29.248 101.376 29.016C101.16 28.776 101.052 28.476 101.052 28.116C101.052 27.972 101.068 27.776 101.1 27.528C101.132 27.272 101.168 27.004 101.208 26.724C101.248 26.444 101.284 26.184 101.316 25.944C101.348 25.696 101.364 25.512 101.364 25.392C101.364 25.28 101.352 25.184 101.328 25.104C101.312 25.016 101.272 24.972 101.208 24.972C101.112 24.972 100.98 25.08 100.812 25.296C100.644 25.504 100.456 25.772 100.248 26.1C100.048 26.428 99.8396 26.776 99.6236 27.144C99.4156 27.512 99.2196 27.86 99.0356 28.188C98.8516 28.508 98.6956 28.76 98.5676 28.944C98.4636 29.12 98.3676 29.248 98.2796 29.328C98.1916 29.408 98.0836 29.448 97.9556 29.448C97.8036 29.448 97.6636 29.368 97.5356 29.208C97.4156 29.048 97.3556 28.852 97.3556 28.62C97.3556 28.484 97.3796 28.272 97.4276 27.984C97.4756 27.688 97.5356 27.364 97.6076 27.012C97.6876 26.66 97.7636 26.316 97.8356 25.98C97.9156 25.636 97.9836 25.344 98.0396 25.104C98.1036 24.832 98.1836 24.648 98.2796 24.552C98.3756 24.456 98.4796 24.408 98.5916 24.408C98.7436 24.408 98.8636 24.464 98.9516 24.576C99.0476 24.68 99.0956 24.844 99.0956 25.068C99.0956 25.108 99.0716 25.216 99.0236 25.392C98.9756 25.56 98.9156 25.768 98.8436 26.016C98.7796 26.256 98.7076 26.508 98.6276 26.772C98.5556 27.036 98.4956 27.28 98.4476 27.504C98.6236 27.208 98.8076 26.888 98.9996 26.544C99.1996 26.2 99.3996 25.86 99.5996 25.524C99.7996 25.18 99.9996 24.868 100.2 24.588C100.4 24.3 100.596 24.072 100.788 23.904C100.98 23.736 101.164 23.652 101.34 23.652C101.548 23.652 101.74 23.716 101.916 23.844C102.1 23.972 102.248 24.144 102.36 24.36C102.472 24.576 102.528 24.816 102.528 25.08C102.528 25.264 102.496 25.524 102.432 25.86C102.368 26.188 102.3 26.544 102.228 26.928C102.164 27.312 102.124 27.676 102.108 28.02C102.108 28.1 102.132 28.14 102.18 28.14C102.22 28.14 102.268 28.112 102.324 28.056C102.556 27.8 102.812 27.492 103.092 27.132C103.372 26.764 103.656 26.376 103.944 25.968C104.24 25.56 104.532 25.16 104.82 24.768C105.108 24.368 105.376 24.008 105.624 23.688C105.88 23.36 106.104 23.1 106.296 22.908C106.496 22.716 106.652 22.62 106.764 22.62C107.004 22.62 107.188 22.688 107.316 22.824C107.444 22.96 107.508 23.188 107.508 23.508C107.508 23.764 107.488 24.096 107.448 24.504C107.416 24.912 107.372 25.356 107.316 25.836C107.268 26.316 107.212 26.8 107.148 27.288C107.092 27.768 107.036 28.216 106.98 28.632C106.924 29.04 106.88 29.376 106.848 29.64Z" fill="#7D7D7D"/>
<path d="M10.1999 30.5807C10.2866 30.6598 10.4598 30.6464 10.3618 30.811C10.3598 30.8181 10.3565 30.8307 10.3583 30.8312C10.566 30.9119 10.3391 31.2481 10.6322 31.2977C10.6763 31.3057 10.5322 31.4405 10.5998 31.555C10.6838 31.5293 10.7493 31.4717 10.7561 31.6836C10.7605 31.8543 10.8318 32.1278 11.0601 32.2391C11.1094 32.2638 11.0824 32.2855 11.0758 32.303C11.0006 32.5045 11.0708 32.6235 11.2779 32.6635C11.3328 32.6744 11.3646 32.7138 11.3553 32.7556C11.3076 32.9625 11.4859 33.0738 11.5491 33.2334C11.5828 33.3234 11.6361 33.4051 11.6341 33.5491C11.3687 33.3816 11.1118 33.2473 10.8851 33.0651C10.514 32.7672 10.1309 32.4853 9.733 32.2226C8.91269 31.681 8.12517 31.0962 7.38424 30.4525C7.06827 30.179 6.79876 29.8543 6.43765 29.6342C6.41932 29.6235 6.40519 29.6043 6.39286 29.5856C5.88535 28.8619 5.44768 28.0933 5.23961 27.2301C4.95123 26.041 4.99628 24.866 5.60717 23.7656C6.01367 23.0324 6.46714 22.3253 7.09034 21.7542C7.97906 20.9402 9.00767 20.3448 10.1418 19.9454C10.4738 19.8281 10.6418 19.6111 10.7735 19.3284C10.8174 19.2361 10.8786 19.1735 10.9643 19.1194C11.1355 19.013 11.1757 18.8484 11.0928 18.6759C11.0147 18.5143 10.9686 18.3054 10.6895 18.3617C10.0566 18.4869 9.45387 18.7012 8.87801 18.9804C8.28896 19.2658 7.70421 19.5639 7.14232 19.899C6.49428 20.2822 5.9492 20.7991 5.4307 21.3461C4.72756 22.0788 4.28853 22.9478 3.95817 23.8787C3.79985 24.3257 3.68419 24.7861 3.55955 25.2441C3.50126 25.4617 3.489 25.68 3.54292 25.9103C3.56857 26.0231 3.59116 26.1833 3.55256 26.2771C3.46778 26.4856 3.52353 26.6874 3.55893 26.8646C3.76689 27.9223 4.02474 28.9665 4.66788 29.8672C5.11341 30.4915 5.59434 31.0771 6.1552 31.6089C6.85558 32.2744 7.6554 32.799 8.41306 33.3874C8.87209 33.7455 9.38673 34.0183 9.83844 34.3821C9.89546 34.4283 9.97229 34.4508 10.0128 34.5368C9.90305 34.5941 9.78317 34.5812 9.67272 34.5979C8.61345 34.7611 7.55549 34.9266 6.54237 35.2988C6.27524 35.3968 6.09697 35.5803 5.97401 35.8306C5.89216 35.9994 5.95055 36.0979 6.11618 36.1558C6.32041 36.2279 6.53112 36.2901 6.74562 36.2878C7.5558 36.2775 8.36079 36.3873 9.16865 36.4072C9.88312 36.4233 10.5975 36.4181 11.3105 36.4396C12.2167 36.4666 13.1234 36.513 14.03 36.488C14.3521 36.4799 14.6521 36.3599 14.9523 36.2534C15.0972 36.2017 15.121 36.1059 15.0668 35.97C14.9536 35.6949 14.8003 35.44 14.6648 35.1763C14.4729 34.7992 14.2742 34.4261 14.0682 34.0587C13.6474 33.3062 13.2385 32.5453 12.7744 31.8178C12.514 31.4088 12.3296 30.9605 12.0578 30.5582C11.6737 29.9851 11.2993 29.4049 10.8621 28.8716C10.7069 28.6816 10.4716 28.6031 10.2649 28.4899C10.2112 28.4601 10.0935 28.4247 10.1628 28.5763C10.1967 28.6509 10.1393 28.6567 10.0997 28.6461C9.90652 28.5905 9.9166 28.6895 9.95636 28.8216C9.97392 28.8783 9.9917 28.9486 9.90033 28.9588C9.81123 28.9677 9.83216 29.0118 9.8502 29.0668C9.99419 29.4715 10.0891 29.8939 10.2918 30.2738C10.3688 30.4178 10.2826 30.4949 10.1944 30.5869L10.1999 30.5807Z" fill="#7D7D7D"/>
</svg>
